<?xml version="1.0" encoding="UTF-8" standalone="no"?>
<!-- Created with Inkscape (http://www.inkscape.org/) -->

<svg
   width="200"
   height="200"
   id="svg2"
   sodipodi:version="0.32"
   inkscape:version="1.2.2 (b0a8486541, 2022-12-01)"
   version="1.0"
   sodipodi:docname="alarm_icon_pressed.svg"
   inkscape:output_extension="org.inkscape.output.svg.inkscape"
   inkscape:export-filename="alarm_icon_pressed.png"
   inkscape:export-xdpi="47.991966"
   inkscape:export-ydpi="47.991966"
   xmlns:inkscape="http://www.inkscape.org/namespaces/inkscape"
   xmlns:sodipodi="http://sodipodi.sourceforge.net/DTD/sodipodi-0.dtd"
   xmlns:xlink="http://www.w3.org/1999/xlink"
   xmlns="http://www.w3.org/2000/svg"
   xmlns:svg="http://www.w3.org/2000/svg"
   xmlns:rdf="http://www.w3.org/1999/02/22-rdf-syntax-ns#"
   xmlns:cc="http://creativecommons.org/ns#"
   xmlns:dc="http://purl.org/dc/elements/1.1/">
  <sodipodi:namedview
     id="base"
     pagecolor="#ffffff"
     bordercolor="#666666"
     borderopacity="1.0"
     gridtolerance="10000"
     guidetolerance="10"
     objecttolerance="10"
     inkscape:pageopacity="0.0"
     inkscape:pageshadow="2"
     inkscape:zoom="2.5950819"
     inkscape:cx="64.352497"
     inkscape:cy="128.31965"
     inkscape:document-units="px"
     inkscape:current-layer="layer1"
     width="400px"
     height="400px"
     showgrid="false"
     inkscape:window-width="1920"
     inkscape:window-height="1029"
     inkscape:window-x="0"
     inkscape:window-y="27"
     inkscape:showpageshadow="2"
     inkscape:pagecheckerboard="0"
     inkscape:deskcolor="#d1d1d1"
     inkscape:window-maximized="1" />
  <defs
     id="defs4">
    <linearGradient
       id="linearGradient16468">
      <stop
         offset="0"
         style="stop-color:#f56a4c;stop-opacity:1;"
         id="stop16462" />
      <stop
         id="stop16464"
         style="stop-color:#ba3313;stop-opacity:1;"
         offset="0.5" />
      <stop
         offset="1"
         style="stop-color:#97411c;stop-opacity:1;"
         id="stop16466" />
    </linearGradient>
    <linearGradient
       id="linearGradient16460">
      <stop
         offset="0"
         style="stop-color:#f56a4c;stop-opacity:1;"
         id="stop16454" />
      <stop
         id="stop16456"
         style="stop-color:#ba3313;stop-opacity:1;"
         offset="0.5" />
      <stop
         offset="1"
         style="stop-color:#97411c;stop-opacity:1;"
         id="stop16458" />
    </linearGradient>
    <linearGradient
       id="linearGradient3134">
      <stop
         offset="0"
         style="stop-color:#4c99f5;stop-opacity:1;"
         id="stop3136" />
      <stop
         id="stop3165"
         style="stop-color:#1361ba;stop-opacity:1;"
         offset="0.5" />
      <stop
         offset="1"
         style="stop-color:#194c9a;stop-opacity:1;"
         id="stop3138" />
    </linearGradient>
    <linearGradient
       id="linearGradient3140"
       gradientUnits="userSpaceOnUse"
       inkscape:collect="always"
       x1="91.29969"
       x2="244.97258"
       xlink:href="#linearGradient16460"
       y1="4.3178039"
       y2="237.70302" />
    <linearGradient
       id="linearGradient3148"
       gradientUnits="userSpaceOnUse"
       inkscape:collect="always"
       x1="91.29969"
       x2="244.97258"
       xlink:href="#linearGradient16468"
       y1="4.3178039"
       y2="237.70302" />
    <filter
       inkscape:collect="always"
       id="filter3172"
       x="-0.044928347"
       y="-0.051292251"
       width="1.0898567"
       height="1.1025845">
      <feGaussianBlur
         inkscape:collect="always"
         stdDeviation="6.7758054"
         id="feGaussianBlur3174" />
    </filter>
    <linearGradient
       inkscape:collect="always"
       xlink:href="#linearGradient3134"
       id="linearGradient2184"
       gradientUnits="userSpaceOnUse"
       x1="29.753853"
       y1="-13.269632"
       x2="202.58235"
       y2="183.58783"
       gradientTransform="matrix(0.62337498,0,0,0.69150666,57.475407,85.750578)" />
  </defs>
  <metadata
     id="metadata7">
    <rdf:RDF>
      <cc:Work
         rdf:about="">
        <dc:format>image/svg+xml</dc:format>
        <dc:type
           rdf:resource="http://purl.org/dc/dcmitype/StillImage" />
        <dc:date>18/9/07</dc:date>
        <dc:creator>
          <cc:Agent>
            <dc:title>Tim O'Ryan</dc:title>
          </cc:Agent>
        </dc:creator>
        <cc:license
           rdf:resource="http://creativecommons.org/licenses/by-sa/2.5/" />
      </cc:Work>
      <cc:License
         rdf:about="http://creativecommons.org/licenses/by-sa/2.5/">
        <cc:permits
           rdf:resource="http://web.resource.org/cc/Reproduction" />
        <cc:permits
           rdf:resource="http://web.resource.org/cc/Distribution" />
        <cc:requires
           rdf:resource="http://web.resource.org/cc/Notice" />
        <cc:requires
           rdf:resource="http://web.resource.org/cc/Attribution" />
        <cc:permits
           rdf:resource="http://web.resource.org/cc/DerivativeWorks" />
        <cc:requires
           rdf:resource="http://web.resource.org/cc/ShareAlike" />
      </cc:License>
    </rdf:RDF>
  </metadata>
  <g
     inkscape:label="Layer 1"
     id="layer1"
     inkscape:groupmode="layer"
     transform="translate(-15.90328,-38.352144)"
     style="display:inline">
    <path
       style="display:inline;opacity:0.5;mix-blend-mode:normal;fill:#000000;fill-opacity:0.797297;stroke:none;stroke-width:20.6878;stroke-linecap:round;stroke-linejoin:round;stroke-miterlimit:4;stroke-dasharray:none;stroke-opacity:1;filter:url(#filter3172)"
       d="m 213.05399,47.37801 c -4.21444,0.21749 -8.0347,2.54657 -10.15847,6.19326 L 33.940149,345.10803 c -2.2394,3.86491 -2.24648,8.63102 -0.01859,12.50258 2.2279,3.87156 6.35223,6.26023 10.81904,6.26604 l 336.928881,0.52869 c 4.46863,0.0134 8.60458,-2.35943 10.84845,-6.22387 2.24387,-3.86443 2.25436,-8.63271 0.0275,-12.50699 L 224.53419,53.60904 c -2.35105,-4.07005 -6.78637,-6.47738 -11.4802,-6.23103 z m 0.60422,37.46171 146.41036,254.5282 -293.651531,-0.45316 z"
       id="path3152"
       transform="matrix(0.51584995,0,0,0.57222969,10.219364,24.557235)" />
    <path
       style="display:inline;opacity:1;fill:url(#linearGradient2184);fill-opacity:1;stroke:#870100;stroke-width:3.39568;stroke-linecap:round;stroke-linejoin:round;stroke-miterlimit:4;stroke-dasharray:none;stroke-opacity:1"
       d="m 114.29993,48.30117 c -2.17401,0.124459 -4.14468,1.457225 -5.24024,3.543971 L 21.904073,218.67112 c -1.155194,2.21163 -1.158849,4.93893 -0.0096,7.15435 1.149261,2.21542 3.276793,3.58229 5.581002,3.58562 l 173.804735,0.30252 c 2.30513,0.008 4.43867,-1.35012 5.59617,-3.56147 1.1575,-2.21134 1.16291,-4.9399 0.0142,-7.15688 L 120.222,51.866751 c -1.21278,-2.329002 -3.50075,-3.706546 -5.92207,-3.565581 z m 0.31169,21.436707 75.52577,145.648583 -151.480114,-0.25931 z"
       id="path2178" />
    <path
       sodipodi:arg2="1.5723975"
       style="display:inline;opacity:1;fill:url(#linearGradient3140);fill-opacity:1;fill-rule:nonzero;stroke:url(#linearGradient3148);stroke-width:20.6882;stroke-linecap:round;stroke-linejoin:round;stroke-miterlimit:4;stroke-dasharray:none;stroke-opacity:1"
       id="path2160"
       sodipodi:cx="91.428574"
       sodipodi:cy="117.14286"
       sodipodi:arg1="0.52519998"
       sodipodi:type="star"
       d="M 230.71429,197.85715 -48.114905,197.41068 91.686339,-43.839248 Z"
       sodipodi:r2="80.491158"
       sodipodi:sides="3"
       inkscape:randomized="0"
       transform="matrix(0.62337501,0,0,0.69150668,57.47541,85.75058)"
       inkscape:rounded="0"
       sodipodi:r1="160.98232"
       inkscape:flatsided="true" />
    <path
       sodipodi:nodetypes="cccsccscccc"
       d="m 114.33501,91.945475 c -1.34353,0.07817 -2.56137,0.915224 -3.23841,2.225818 L 57.23575,198.94759 c -0.713892,1.38901 -0.71615,3.10192 -0.006,4.49332 0.710226,1.39143 2.025011,2.2499 3.448976,2.25199 l 107.408704,0.19001 c 1.42455,0.005 2.74304,-0.84797 3.45834,-2.23684 0.71532,-1.38885 0.71867,-3.10251 0.009,-4.49491 L 117.99475,94.184872 c -0.74949,-1.462756 -2.16342,-2.327926 -3.65974,-2.239397 z"
       style="display:inline;opacity:1;fill:#ffffff;fill-opacity:1;stroke:none;stroke-width:11.2399;stroke-linecap:round;stroke-linejoin:round;stroke-miterlimit:4;stroke-opacity:1"
       id="path19491" />
    <path
       style="font-style:normal;font-variant:normal;font-weight:bold;font-stretch:normal;font-size:333.226px;line-height:125%;font-family:'Angsana New';text-align:start;writing-mode:lr-tb;text-anchor:start;display:inline;fill:#000000;fill-opacity:1;stroke:none;stroke-width:0.54331px;stroke-linecap:butt;stroke-linejoin:miter;stroke-opacity:1"
       d="m 116.29134,171.2999 h -2.75122 c -0.28462,-5.41048 -1.23332,-11.88884 -2.84608,-19.4351 l -3.273,-15.37722 c -1.96064,-9.21913 -2.94095,-15.82209 -2.94094,-19.80886 -10e-6,-8.04446 3.46272,-12.06675 10.38819,-12.06684 3.0358,9e-5 5.54193,1.11245 7.51839,3.33707 1.97642,2.2248 2.96465,5.06353 2.96468,8.5162 -3e-5,3.66641 -1.04361,10.34055 -3.13071,20.02243 l -3.32041,15.37722 c -1.17009,5.41055 -2.03971,11.88889 -2.6089,19.4351 z m -1.28075,10.0913 c 3.22554,2e-5 5.72376,1.21916 7.49468,3.65743 1.77086,2.43831 2.65632,5.04566 2.65634,7.82208 -2e-5,3.66634 -1.07521,6.48729 -3.22556,8.46283 -2.15039,1.97554 -4.45889,2.96331 -6.92546,2.96331 -3.25719,0 -5.76332,-1.21025 -7.51839,-3.63072 -1.75508,-2.4205 -2.63263,-5.01896 -2.63262,-7.79542 -10e-6,-3.23915 0.9724,-5.9622 2.91722,-8.16914 1.94482,-2.20688 4.35607,-3.31035 7.23379,-3.31037 z"
       id="text2171" />
  </g>
</svg>
