<?xml version="1.0" encoding="UTF-8" standalone="no"?>
<!-- Created with Inkscape (http://www.inkscape.org/) -->

<svg
   width="250"
   height="125"
   viewBox="0 0 66.145831 33.072916"
   version="1.1"
   id="svg5"
   sodipodi:docname="save_cut_list_csv.svg"
   inkscape:export-filename="play_icon.png"
   inkscape:export-xdpi="96"
   inkscape:export-ydpi="96"
   inkscape:version="1.2.2 (b0a8486541, 2022-12-01)"
   xml:space="preserve"
   xmlns:inkscape="http://www.inkscape.org/namespaces/inkscape"
   xmlns:sodipodi="http://sodipodi.sourceforge.net/DTD/sodipodi-0.dtd"
   xmlns:xlink="http://www.w3.org/1999/xlink"
   xmlns="http://www.w3.org/2000/svg"
   xmlns:svg="http://www.w3.org/2000/svg"><sodipodi:namedview
     id="namedview7"
     pagecolor="#ffffff"
     bordercolor="#000000"
     borderopacity="0.25"
     inkscape:showpageshadow="2"
     inkscape:pageopacity="0.0"
     inkscape:pagecheckerboard="0"
     inkscape:deskcolor="#d1d1d1"
     inkscape:document-units="mm"
     showgrid="false"
     showguides="true"
     inkscape:zoom="4.9303923"
     inkscape:cx="155.26148"
     inkscape:cy="54.559553"
     inkscape:window-width="1920"
     inkscape:window-height="1029"
     inkscape:window-x="0"
     inkscape:window-y="27"
     inkscape:window-maximized="1"
     inkscape:current-layer="layer1" /><defs
     id="defs2"><linearGradient
       inkscape:collect="always"
       id="linearGradient13774"><stop
         style="stop-color:#b7b7c8;stop-opacity:1;"
         offset="0"
         id="stop13770" /><stop
         style="stop-color:#ffdd55;stop-opacity:1;"
         offset="1"
         id="stop13772" /></linearGradient><filter
       inkscape:collect="always"
       style="color-interpolation-filters:sRGB"
       id="filter13127"
       x="-0.036082763"
       y="-0.071671213"
       width="1.0721655"
       height="1.1433424"><feGaussianBlur
         inkscape:collect="always"
         stdDeviation="0.91919119"
         id="feGaussianBlur13129" /></filter><linearGradient
       inkscape:collect="always"
       xlink:href="#linearGradient13774"
       id="linearGradient13776"
       x1="52.154449"
       y1="0.95052207"
       x2="9.015748"
       y2="31.371679"
       gradientUnits="userSpaceOnUse" /><filter
       inkscape:collect="always"
       style="color-interpolation-filters:sRGB"
       id="filter4138"
       x="-0.095076387"
       y="-0.063802162"
       width="1.1901528"
       height="1.1276043"><feGaussianBlur
         inkscape:collect="always"
         stdDeviation="0.368306"
         id="feGaussianBlur4140" /></filter></defs><g
     inkscape:label="Capa 1"
     inkscape:groupmode="layer"
     id="layer1"><rect
       style="display:inline;opacity:0.5;fill:#000000;fill-opacity:1;stroke-width:0.555994;stroke-linecap:round;stroke-linejoin:round;filter:url(#filter13127)"
       id="rect13119"
       width="61.138855"
       height="30.780264"
       x="2.5795803"
       y="1.6667871"
       ry="2.3674064" /><rect
       style="display:inline;fill:url(#linearGradient13776);fill-opacity:1;stroke-width:0.550077;stroke-linecap:round;stroke-linejoin:round"
       id="rect1946"
       width="60.550789"
       height="30.421158"
       x="2.0504038"
       y="0.95052207"
       ry="2.3397861" /><path
       style="fill:#000000;fill-opacity:0;stroke:#000000;stroke-width:0.6;stroke-linecap:square;stroke-linejoin:round;stroke-miterlimit:5;stroke-dasharray:none"
       d="M 20.825143,25.107205 V 14.374625 H 35.11889 v 10.73258"
       id="path7053" /><path
       style="fill:#000000;fill-opacity:0;stroke:#000000;stroke-width:0.6;stroke-linecap:square;stroke-linejoin:round;stroke-miterlimit:5;stroke-dasharray:none"
       d="M 29.262445,3.3888884 V 7.5688596 H 20.600784 V 3.3888884"
       id="path7053-3" /><path
       style="fill:#000000;fill-opacity:0;stroke:#000000;stroke-width:0.6;stroke-linecap:square;stroke-linejoin:bevel;stroke-miterlimit:5;stroke-dasharray:none"
       d="m 26.337367,3.3726128 v 3.77779"
       id="path9318" /><path
       fill="#ff0000"
       d="m 22.550908,17.197868 h 10.842218 c 0.376859,0 0.684843,0.308473 0.684843,0.684844 v 4.604865 c 0,0.376127 -0.308472,0.684844 -0.684843,0.684844 H 22.550908 c -0.376127,0 -0.684844,-0.308228 -0.684844,-0.684844 v -4.604865 c 0,-0.37686 0.308228,-0.684844 0.684844,-0.684844 z"
       id="path2029"
       style="clip-rule:evenodd;fill:#4f7eff;fill-opacity:1;fill-rule:evenodd;stroke-width:0.0244239;image-rendering:optimizeQuality;shape-rendering:geometricPrecision;text-rendering:geometricPrecision" /><path
       fill="#ffffff"
       fill-rule="nonzero"
       d="m 26.013227,20.816011 0.07083,0.793774 c -0.198322,0.08206 -0.4472,0.123097 -0.746636,0.123097 -0.299192,0 -0.539522,-0.0315 -0.720747,-0.09452 -0.18098,-0.06301 -0.323616,-0.162418 -0.427661,-0.297726 -0.103801,-0.135552 -0.17634,-0.294551 -0.217372,-0.477485 -0.04079,-0.18269 -0.0613,-0.407878 -0.0613,-0.675807 0,-0.267685 0.02051,-0.493606 0.0613,-0.678005 0.04104,-0.1844 0.113571,-0.344131 0.217372,-0.479684 0.20174,-0.261579 0.572005,-0.392246 1.110551,-0.392246 0.119921,0 0.260846,0.01173 0.42302,0.03541 0.162175,0.0237 0.282828,0.05276 0.361473,0.08744 l -0.141658,0.722945 c -0.204916,-0.04396 -0.392247,-0.06594 -0.562481,-0.06594 -0.16999,0 -0.288201,0.01564 -0.35439,0.04714 -0.06619,0.0315 -0.09916,0.09452 -0.09916,0.18904 v 1.238287 a 1.8548419,1.8548419 0 0 0 0.373196,0.03761 c 0.267929,0 0.505816,-0.03761 0.713664,-0.113326 z m 0.425219,0.793774 0.132377,-0.779607 c 0.28991,0.07254 0.550512,0.108686 0.78205,0.108686 0.231782,0 0.41838,-0.0095 0.560038,-0.02834 v -0.236422 l -0.425219,-0.03761 c -0.38443,-0.03469 -0.648207,-0.127004 -0.791575,-0.276478 -0.143368,-0.149718 -0.214929,-0.370997 -0.214929,-0.664083 0,-0.403237 0.08744,-0.680448 0.262067,-0.831631 0.174874,-0.151184 0.471868,-0.226898 0.890981,-0.226898 0.418868,0 0.796948,0.03933 1.134241,0.118213 l -0.118211,0.75616 c -0.293086,-0.04739 -0.527799,-0.07107 -0.704138,-0.07107 -0.176585,0 -0.326058,0.008 -0.44891,0.0237 v 0.231538 l 0.340224,0.03322 c 0.412762,0.04079 0.697788,0.139216 0.855321,0.295284 0.157534,0.155824 0.236178,0.372463 0.236178,0.649673 0,0.198566 -0.02662,0.366358 -0.08035,0.503375 -0.05349,0.137018 -0.117234,0.241063 -0.191238,0.311892 -0.074,0.07083 -0.178783,0.125294 -0.314335,0.163151 -0.135552,0.03761 -0.254496,0.06057 -0.356832,0.06838 -0.102336,0.008 -0.23862,0.01197 -0.40861,0.01197 -0.409588,0 -0.789378,-0.04104 -1.139127,-0.123095 z m 4.59827,-2.901548 h 0.997224 l -0.732714,2.953571 h -1.3797 l -0.732471,-2.953571 h 0.99698 l 0.401772,1.876237 h 0.0425 z"
       id="path2031"
       style="clip-rule:evenodd;stroke-width:0.0244239;image-rendering:optimizeQuality;shape-rendering:geometricPrecision;text-rendering:geometricPrecision" /><path
       id="path3981"
       style="display:none;opacity:0.8;fill:#000000;stroke:none;stroke-width:0.0892854;filter:url(#filter4138)"
       d="m 40.691363,9.7645922 c -0.572433,0.0059 -1.153302,0.083115 -1.732194,0.2382278 -0.19138,0.05128 -0.378663,0.110327 -0.561723,0.176217 l 0.107487,0.116272 c 0.110902,0.11893 0.163814,0.270634 0.163814,0.421681 l 5.17e-4,2.903698 h 1.259355 a 3.1927114,3.1927114 0 0 1 3.909838,2.257227 3.1927114,3.1927114 0 0 1 -2.257226,3.910355 3.1927114,3.1927114 0 0 1 -0.24598,0.05271 v 3.777548 c 0.403648,-0.03448 0.809721,-0.103823 1.214913,-0.212391 3.704909,-0.992727 5.898371,-4.791727 4.905644,-8.496639 -0.837613,-3.126013 -3.673309,-5.1767745 -6.764445,-5.1449058 z" /><path
       id="rect10984"
       style="opacity:1;fill:#000000;fill-opacity:0;stroke:#000000;stroke-width:0.6;stroke-linecap:round;stroke-linejoin:round;stroke-miterlimit:5;stroke-dasharray:none;stroke-dashoffset:0"
       d="m 19.680792,3.3665663 c -1.193813,0 -2.154908,0.9610947 -2.154908,2.1549071 V 23.209283 c 0,1.193812 0.961095,2.154907 2.154908,2.154907 h 16.58245 c 1.193812,0 2.154907,-0.961095 2.154907,-2.154907 V 16.678415 C 38.264835,10.299801 38.966054,10.578996 35.0274,6.7570569 30.517923,2.7835155 32.390206,3.4478986 25.658721,3.3665663 Z"
       sodipodi:nodetypes="sssssscccs" /><g
       id="g12368"
       transform="translate(53.18726,-1.0091475)"><path
         id="path8691"
         style="fill:#333333;fill-opacity:1;stroke:none;stroke-width:0.0966443"
         d="m -12.657109,8.6511515 c -0.05615,0 -0.112098,8.417e-4 -0.167948,0.00207 -0.024,5.257e-4 -0.04789,0.00132 -0.07183,0.00207 -0.03036,9.53e-4 -0.06068,0.00231 -0.09095,0.00362 -0.02845,0.00123 -0.0569,0.00259 -0.08527,0.00413 -0.0523,0.00285 -0.104576,0.0059 -0.156579,0.00982 -0.0019,1.421e-4 -0.0038,3.733e-4 -0.0057,5.168e-4 -0.05382,0.0041 -0.107216,0.00873 -0.160714,0.013953 -0.0228,0.00222 -0.04548,0.00481 -0.06821,0.00723 -0.03396,0.00363 -0.06798,0.00729 -0.101803,0.011369 -0.02708,0.00326 -0.05414,0.00679 -0.08113,0.010335 -0.04784,0.00629 -0.09508,0.012965 -0.142627,0.020154 -0.03461,0.00522 -0.0689,0.010844 -0.103353,0.016537 -0.01515,0.00251 -0.03036,0.00515 -0.04547,0.00775 -0.03228,0.00554 -0.06449,0.011105 -0.09663,0.017053 -0.0228,0.00422 -0.04549,0.00849 -0.06821,0.012919 -0.03277,0.00638 -0.06557,0.012835 -0.09819,0.019637 -0.04305,0.00898 -0.0859,0.018193 -0.128674,0.027905 -0.0024,5.443e-4 -0.0048,10e-4 -0.0072,0.00155 -1.64e-4,3.74e-5 -3.53e-4,-3.74e-5 -5.17e-4,0 -0.03012,0.00687 -0.05994,0.014472 -0.08992,0.021704 -0.01862,0.00449 -0.03725,0.0088 -0.05581,0.013436 -0.03923,0.00978 -0.07832,0.020092 -0.117306,0.030489 -0.0045,0.0012 -0.0089,0.00241 -0.01344,0.00362 -0.04125,0.011084 -0.08254,0.022342 -0.123506,0.034107 -0.04405,0.012655 -0.08806,0.025842 -0.131775,0.039274 -3.069228,0.9430766 -5.296318,3.7971667 -5.296318,7.1783737 0,3.381201 2.22709,6.235626 5.296318,7.17889 4.7e-5,1.4e-5 -4.7e-5,5.02e-4 0,5.16e-4 0.0495,0.01521 0.09942,0.02972 0.149344,0.04392 0.0086,0.0024 0.01723,0.0048 0.02584,0.0072 0.04146,0.01164 0.08279,0.02316 0.12454,0.03411 0.02729,0.0072 0.05475,0.01382 0.08216,0.02067 0.01994,0.005 0.03994,0.0096 0.05994,0.01447 0.02998,0.0072 0.0598,0.01483 0.08992,0.02171 1.64e-4,3.7e-5 3.53e-4,-3.8e-5 5.17e-4,0 0.05029,0.01147 0.101255,0.02261 0.151929,0.03307 0.01991,0.0041 0.03998,0.0079 0.05994,0.01189 0.03423,0.0068 0.06844,0.01333 0.102836,0.01964 0.0198,0.0036 0.03958,0.0074 0.05943,0.01085 0.03604,0.0063 0.07231,0.01229 0.108521,0.01809 0.02172,0.0035 0.04333,0.007 0.06511,0.01034 0.007,0.0011 0.01415,0.0021 0.02119,0.0031 0.04887,0.0072 0.09758,0.01386 0.146761,0.02015 0.0086,0.0011 0.01723,0.002 0.02584,0.0031 0.04375,0.0054 0.08779,0.01029 0.131775,0.01499 0.02274,0.0024 0.04542,0.005 0.06821,0.0072 0.0535,0.0052 0.10689,0.0099 0.160714,0.01395 0.04913,0.0037 0.09841,0.007 0.147795,0.0098 0.0048,2.72e-4 0.0096,2.54e-4 0.01447,5.17e-4 0.02836,0.0015 0.05682,0.0029 0.08527,0.0041 0.03027,0.0013 0.06059,0.0027 0.09095,0.0036 0.02394,7.5e-4 0.04783,0.0015 0.07183,0.0021 0.05585,0.0012 0.111802,0.0021 0.167948,0.0021 0.05612,0 0.112128,-8.43e-4 0.167949,-0.0021 0.02432,-5.32e-4 0.0486,-0.0013 0.07286,-0.0021 0.03001,-9.44e-4 0.05999,-0.0023 0.08992,-0.0036 0.03072,-0.0013 0.06136,-0.0024 0.09198,-0.0041 0.01418,-7.84e-4 0.02822,-0.0017 0.04237,-0.0026 0.06749,-0.0041 0.134543,-0.0091 0.201538,-0.01499 0.01568,-0.0014 0.03138,-0.0027 0.04703,-0.0041 0.0064,-6.03e-4 0.01273,-0.0014 0.01912,-0.0021 0.02517,-0.0024 0.05035,-0.0051 0.07545,-0.0078 0.04122,-0.0044 0.08249,-0.0089 0.123507,-0.01395 0.01238,-0.0015 0.02485,-0.0031 0.03721,-0.0047 0.05283,-0.0068 0.105647,-0.01382 0.158129,-0.0217 0.0059,-8.81e-4 0.01172,-0.0017 0.01757,-0.0026 0.01675,-0.0026 0.03341,-0.0056 0.05013,-0.0083 0.03593,-0.0057 0.07173,-0.01184 0.107487,-0.01809 0.02176,-0.0038 0.04342,-0.0079 0.06511,-0.01189 0.02861,-0.0053 0.05729,-0.01044 0.08578,-0.01602 0.03073,-0.006 0.06139,-0.01222 0.09198,-0.0186 0.04532,-0.0095 0.09038,-0.01918 0.135392,-0.02945 0.03995,-0.0091 0.07967,-0.01868 0.119373,-0.02842 0.0064,-0.0016 0.01276,-0.0031 0.01912,-0.0047 0.04345,-0.01078 0.08656,-0.02205 0.129708,-0.03359 0.04429,-0.01184 0.08832,-0.02406 0.132291,-0.03669 0.02606,-0.0075 0.05208,-0.01498 0.07803,-0.02274 0.01787,-0.0053 0.03593,-0.01055 0.05374,-0.01602 3.0695141,-0.942903 5.2968346,-3.797479 5.2968346,-7.17889 0,-3.381404 -2.2273205,-6.2363162 -5.2968346,-7.1794065 -0.04371,-0.013429 -0.08773,-0.026106 -0.131775,-0.038757 -0.03282,-0.00943 -0.0657,-0.018398 -0.0987,-0.027388 -0.02069,-0.00563 -0.04125,-0.011074 -0.06201,-0.016537 -0.02483,-0.00653 -0.04949,-0.013352 -0.07441,-0.019637 -0.0287,-0.00724 -0.05747,-0.014279 -0.0863,-0.021187 -0.02631,-0.0063 -0.05265,-0.012579 -0.07907,-0.018603 -0.04488,-0.010235 -0.09021,-0.020027 -0.135392,-0.029456 -0.0306,-0.00638 -0.06125,-0.012592 -0.09198,-0.018603 -0.0285,-0.00558 -0.05717,-0.010766 -0.08578,-0.01602 -0.01998,-0.00367 -0.03991,-0.00734 -0.05995,-0.010852 -0.04212,-0.00738 -0.08425,-0.014509 -0.126607,-0.021187 -0.01208,-0.0019 -0.02407,-0.00384 -0.03617,-0.00568 -0.0038,-5.761e-4 -0.0076,-9.797e-4 -0.01137,-0.00155 -0.0041,-6.244e-4 -0.0083,-0.00145 -0.0124,-0.00207 -0.05093,-0.00761 -0.102214,-0.014606 -0.153479,-0.021187 -0.0033,-4.204e-4 -0.0065,-0.00113 -0.0098,-0.00155 -0.0086,-0.00109 -0.01726,-0.00204 -0.02584,-0.0031 -0.04101,-0.00507 -0.08229,-0.00955 -0.123507,-0.013953 -0.02304,-0.00246 -0.04615,-0.00498 -0.06925,-0.00723 -0.0535,-0.00522 -0.106889,-0.00986 -0.160713,-0.013953 -0.05347,-0.00406 -0.106931,-0.0074 -0.160714,-0.010335 -0.0289,-0.00158 -0.05783,-0.00288 -0.08682,-0.00413 -0.02992,-0.00129 -0.0599,-0.00267 -0.08992,-0.00362 -0.02426,-7.614e-4 -0.04854,-0.00154 -0.07286,-0.00207 -0.05582,-0.00122 -0.111831,-0.00207 -0.167949,-0.00207 z m 0,4.0540165 a 3.4558569,3.4558569 0 0 1 2.212785,0.806152 v -0.0036 a 3.4558569,3.4558569 0 0 1 1.2433352,2.653584 3.4558569,3.4558569 0 0 1 -1.2433352,2.653585 v -0.0047 a 3.4558569,3.4558569 0 0 1 -2.212785,0.806669 3.4558569,3.4558569 0 0 1 -2.212784,-0.806152 v 0.0031 a 3.4558569,3.4558569 0 0 1 -1.243335,-2.652552 3.4558569,3.4558569 0 0 1 1.243335,-2.653584 v 0.0041 a 3.4558569,3.4558569 0 0 1 2.212784,-0.806669 z" /><path
         id="path234"
         style="fill:#aa0000;fill-opacity:1;stroke:none;stroke-width:0.0966443"
         d="m -13.355257,4.3154989 c -0.436753,0.02579 -0.872039,0.075538 -1.30328,0.1493448 0.259729,0.2206332 0.455874,0.6377169 0.531751,1.0795207 2.8e-5,1.666e-4 -2.9e-5,3.502e-4 0,5.168e-4 1.45e-4,8.688e-4 3.73e-4,0.00171 5.16e-4,0.00258 0.0014,0.00822 0.0018,0.016564 0.0031,0.024805 0.06748,0.4349012 0.01909,0.8903049 -0.197921,1.2045776 -0.01386,0.020073 -0.02943,0.038369 -0.04651,0.05426 -0.01708,0.015892 -0.03545,0.029669 -0.05529,0.041858 -0.01855,0.011395 -0.03883,0.020892 -0.05943,0.029456 -0.0048,0.00193 -0.0096,0.00389 -0.01447,0.00568 -0.01305,0.00495 -0.02661,0.00891 -0.04031,0.012919 -0.01047,0.003 -0.02073,0.00627 -0.03152,0.00878 -0.173301,0.040323 -0.385972,0.020725 -0.559139,0.024805 -1.37237,0.03233 -1.282672,-1.6668246 -4.057633,-0.7027995 -0.365793,0.2406997 -0.718257,0.5017249 -1.055233,0.7813476 0.670755,0.1222219 1.513629,1.052368 1.452625,1.8283122 -0.02172,0.2763577 -0.375678,0.4179367 -0.612366,0.5622396 -1.173036,0.7151743 -1.945924,-0.8030716 -3.868498,1.4226513 -0.195363,0.390482 -0.369201,0.79135 -0.520382,1.200961 0.642154,-0.229402 1.837318,0.155589 2.171961,0.858345 0.119049,0.250001 -0.11696,0.549418 -0.250114,0.7922 -0.657042,1.197994 -2.076934,0.276533 -2.633431,3.14141 0.0254,0.442517 0.07569,0.882913 0.150378,1.319816 0.443664,-0.520038 1.670501,-0.774062 2.31097,-0.331762 0.225544,0.155756 0.173265,0.528499 0.179318,0.802535 0.0302,1.367706 -1.670686,1.269234 -0.715719,4.041097 0.243189,0.370269 0.507103,0.726849 0.790133,1.067635 0.124197,-0.67215 1.059761,-1.506065 1.835547,-1.443323 0.273145,0.02209 0.414311,0.371416 0.556555,0.605648 0.710054,1.169248 -0.812421,1.934051 1.400431,3.857129 0.395753,0.199077 0.802498,0.376062 1.218014,0.529683 -0.228431,-0.644264 0.164914,-1.833827 0.868164,-2.167309 0.247699,-0.117459 0.544588,0.114177 0.784965,0.245979 1.199388,0.657636 0.26388,2.081164 3.14141,2.640149 0.0055,-3.18e-4 0.01102,-7.08e-4 0.01654,-0.001 0.002,3.75e-4 0.0037,6.59e-4 0.0057,0.001 0.436752,-0.02579 0.871522,-0.07554 1.302763,-0.149345 -0.256453,-0.21785 -0.450235,-0.626885 -0.528133,-1.062467 -0.0011,-0.0062 -0.0026,-0.01236 -0.0036,-0.0186 -0.0019,-0.01165 -0.0029,-0.02346 -0.0047,-0.03514 -0.0067,-0.04428 -0.01334,-0.08881 -0.01757,-0.133325 -0.03704,-0.390028 0.02305,-0.782277 0.216525,-1.062467 0.04067,-0.0589 0.09658,-0.09869 0.16123,-0.125574 0.0048,-0.0019 0.0096,-0.0039 0.01447,-0.0057 0.01306,-0.0049 0.02661,-0.0089 0.04031,-0.01292 0.01047,-0.003 0.02073,-0.0063 0.03152,-0.0088 0.03466,-0.0081 0.07084,-0.01364 0.108003,-0.01757 0.148649,-0.01571 0.312602,-0.0035 0.451136,-0.0067 1.37237,-0.03233 1.2826719,1.666307 4.0576331,0.702282 0.3657927,-0.240699 0.7182571,-0.501208 1.0552328,-0.780831 -0.6707554,-0.122221 -1.5136295,-1.052368 -1.4526245,-1.828312 0.02172,-0.276357 0.3761947,-0.417936 0.6128825,-0.562239 1.1730358,-0.715176 1.9454068,0.802555 3.8679809,-1.423169 0.1953628,-0.390482 0.3692008,-0.79135 0.5203817,-1.200961 -0.6421534,0.229402 -1.8373178,-0.155589 -2.1719605,-0.858345 -0.1190488,-0.250001 0.1169601,-0.549418 0.250114,-0.7922 0.6570423,-1.197994 2.0769335,-0.276016 2.63343096,-3.140893 -0.0254,-0.442517 -0.0756875,-0.88343 -0.15037842,-1.320333 C -1.407442,14.682975 -2.6342792,14.936999 -3.2747485,14.494699 -3.5002923,14.338943 -3.4480127,13.9662 -3.4540657,13.692164 -3.4842657,12.324458 -1.7833801,12.42293 -2.7383471,9.651068 -2.9815229,9.2808209 -3.2454371,8.9242411 -3.5284668,8.5834554 -3.6526637,9.2556047 -4.5882284,10.08952 -5.3640137,10.026778 -5.6371594,10.004688 -5.7778082,9.6553621 -5.9200521,9.4211304 -6.6301064,8.2518825 -5.1081484,7.4870795 -7.3210002,5.5640015 -7.7167528,5.3649237 -8.1234981,5.1879389 -8.5390137,5.034318 c 0.2284308,0.6442644 -0.1649147,1.8343437 -0.868164,2.1678264 -0.2476995,0.1174589 -0.5440715,-0.1146947 -0.7844483,-0.2464966 -1.199389,-0.6576354 -0.264397,-2.0811635 -3.141927,-2.6401489 -0.0053,3.079e-4 -0.01067,7.184e-4 -0.01602,0.00103 -0.002,-3.76e-4 -0.0037,-6.584e-4 -0.0057,-0.00103 z m 0.698148,3.6054646 c 0.0837,0 0.167015,0.00164 0.250114,0.00413 0.03208,9.597e-4 0.06414,0.00229 0.09612,0.00362 0.06633,0.00276 0.132515,0.00601 0.198437,0.010335 0.01172,7.668e-4 0.02344,0.00177 0.03514,0.00258 0.08773,0.00613 0.175045,0.012834 0.262,0.021704 0.0031,3.157e-4 0.0062,7.144e-4 0.0093,0.00103 0.0023,2.324e-4 0.0045,7.994e-4 0.0067,0.00103 0.08165,0.00849 0.162986,0.018074 0.243913,0.028939 0.02188,0.00293 0.04381,0.0062 0.06563,0.0093 0.0763,0.010871 0.152278,0.022707 0.227893,0.035657 0.0045,7.632e-4 0.009,0.0013 0.01344,0.00207 0.09013,0.015589 0.180127,0.032666 0.269234,0.05116 0.08041,0.016688 0.160241,0.034732 0.239779,0.053743 0.01887,0.00451 0.03751,0.00931 0.05633,0.013953 0.08005,0.019735 0.159626,0.040478 0.238745,0.062529 v -5.168e-4 c 3.4737798,0.9683853 6.0270226,4.1589753 6.0270226,7.9390503 0,3.780083 -2.5532428,6.970327 -6.0270226,7.938534 -0.0053,0.0015 -0.01071,0.0027 -0.01602,0.0041 -0.07749,0.02143 -0.155196,0.04177 -0.233578,0.06098 -0.0093,0.0023 -0.01858,0.0045 -0.02791,0.0067 -0.08531,0.02059 -0.171034,0.03996 -0.257349,0.05788 -0.08911,0.01849 -0.179105,0.03557 -0.269234,0.05116 -0.0045,7.71e-4 -0.009,0.0013 -0.01344,0.0021 -0.07562,0.01295 -0.151594,0.02479 -0.227893,0.03566 -0.02182,0.0031 -0.04375,0.0064 -0.06563,0.0093 -0.08093,0.01086 -0.162263,0.02045 -0.243913,0.02894 -0.0023,2.34e-4 -0.0045,8.01e-4 -0.0067,0.001 -0.0031,3.19e-4 -0.0062,7.18e-4 -0.0093,10e-4 -0.08165,0.0083 -0.163649,0.01527 -0.24598,0.02119 -0.02337,0.0017 -0.04686,0.0027 -0.07028,0.0041 -0.0646,0.0041 -0.129311,0.0078 -0.194304,0.01034 -0.02546,0.001 -0.05096,0.0018 -0.07648,0.0026 -0.08463,0.0026 -0.169511,0.0041 -0.254765,0.0041 -0.08525,0 -0.170132,-0.0015 -0.254764,-0.0041 -0.02552,-7.77e-4 -0.05102,-0.0016 -0.07648,-0.0026 -0.06499,-0.0026 -0.129705,-0.0062 -0.194304,-0.01034 -0.02342,-0.0015 -0.04691,-0.0025 -0.07028,-0.0041 -0.08233,-0.0059 -0.164332,-0.01286 -0.24598,-0.02119 -0.0031,-3.17e-4 -0.0062,-7.13e-4 -0.0093,-10e-4 -0.0023,-2.33e-4 -0.0045,-7.98e-4 -0.0067,-0.001 -0.08131,-0.0085 -0.162287,-0.01813 -0.24288,-0.02894 -0.02314,-0.0031 -0.04617,-0.0065 -0.06925,-0.0098 -0.07247,-0.01035 -0.14467,-0.02136 -0.216524,-0.03359 -0.0086,-0.0015 -0.01722,-0.0032 -0.02584,-0.0047 -0.08888,-0.01542 -0.177216,-0.03189 -0.265101,-0.05013 -0.08718,-0.01809 -0.173781,-0.03757 -0.259932,-0.0584 -0.0072,-0.0017 -0.01448,-0.0034 -0.0217,-0.0052 -0.07996,-0.01956 -0.159714,-0.04015 -0.238745,-0.06201 -0.005,-0.0014 -0.01001,-0.0027 -0.01499,-0.0041 -3.47378,-0.968385 -6.027023,-4.158975 -6.027023,-7.93905 0,-3.780083 2.553243,-6.9703269 6.027023,-7.9385343 v 5.168e-4 c 0.08002,-0.022305 0.160871,-0.043628 0.241845,-0.063562 0.0172,-0.00423 0.03444,-0.00828 0.05168,-0.012402 0.08022,-0.019198 0.16074,-0.037427 0.241845,-0.05426 0.08788,-0.018241 0.176222,-0.034712 0.265101,-0.050126 0.0086,-0.00149 0.01721,-0.00318 0.02584,-0.00465 0.07185,-0.012225 0.144053,-0.023241 0.216524,-0.03359 0.02308,-0.00329 0.04611,-0.00672 0.06925,-0.00982 0.08059,-0.010809 0.161571,-0.020485 0.24288,-0.028939 0.0023,-2.348e-4 0.0045,-8.006e-4 0.0067,-0.00103 0.0031,-3.201e-4 0.0062,-7.168e-4 0.0093,-0.00103 0.08695,-0.00887 0.174271,-0.015571 0.262,-0.021704 0.0117,-8.179e-4 0.02343,-0.00181 0.03514,-0.00258 0.06592,-0.00433 0.132103,-0.00758 0.198437,-0.010335 0.03198,-0.00133 0.06404,-0.00266 0.09612,-0.00362 0.0831,-0.00249 0.166416,-0.00413 0.250113,-0.00413 z" /></g></g></svg>
