<?xml version="1.0" encoding="UTF-8" standalone="no"?>
<!-- Created with Inkscape (http://www.inkscape.org/) -->

<svg
   width="45mm"
   height="33.072918mm"
   viewBox="0 0 44.999999 33.072917"
   version="1.1"
   id="svg5"
   sodipodi:docname="save_cut_list_csv.svg"
   inkscape:export-filename="save_cut_list_csv.png"
   inkscape:export-xdpi="96"
   inkscape:export-ydpi="96"
   inkscape:version="1.2.2 (b0a8486541, 2022-12-01)"
   xml:space="preserve"
   xmlns:inkscape="http://www.inkscape.org/namespaces/inkscape"
   xmlns:sodipodi="http://sodipodi.sourceforge.net/DTD/sodipodi-0.dtd"
   xmlns:xlink="http://www.w3.org/1999/xlink"
   xmlns="http://www.w3.org/2000/svg"
   xmlns:svg="http://www.w3.org/2000/svg"><sodipodi:namedview
     id="namedview7"
     pagecolor="#ffffff"
     bordercolor="#000000"
     borderopacity="0.25"
     inkscape:showpageshadow="2"
     inkscape:pageopacity="0.0"
     inkscape:pagecheckerboard="0"
     inkscape:deskcolor="#d1d1d1"
     inkscape:document-units="mm"
     showgrid="false"
     showguides="true"
     inkscape:zoom="3.4863138"
     inkscape:cx="91.644074"
     inkscape:cy="92.361164"
     inkscape:window-width="1920"
     inkscape:window-height="1029"
     inkscape:window-x="0"
     inkscape:window-y="27"
     inkscape:window-maximized="1"
     inkscape:current-layer="layer1" /><defs
     id="defs2"><linearGradient
       inkscape:collect="always"
       id="linearGradient13774"><stop
         style="stop-color:#b7b7c8;stop-opacity:1;"
         offset="0"
         id="stop13770" /><stop
         style="stop-color:#ffdd55;stop-opacity:1;"
         offset="1"
         id="stop13772" /></linearGradient><filter
       inkscape:collect="always"
       style="color-interpolation-filters:sRGB"
       id="filter13127"
       x="-0.036082763"
       y="-0.071671213"
       width="1.0721655"
       height="1.1433424"><feGaussianBlur
         inkscape:collect="always"
         stdDeviation="0.91919119"
         id="feGaussianBlur13129" /></filter><linearGradient
       inkscape:collect="always"
       xlink:href="#linearGradient13774"
       id="linearGradient13776"
       x1="52.154449"
       y1="0.95052207"
       x2="9.015748"
       y2="31.371679"
       gradientUnits="userSpaceOnUse"
       gradientTransform="matrix(0.68672414,0,0,1,-0.25650622,0)" /><filter
       inkscape:collect="always"
       style="color-interpolation-filters:sRGB"
       id="filter4138"
       x="-0.095076387"
       y="-0.063802162"
       width="1.1901528"
       height="1.1276043"><feGaussianBlur
         inkscape:collect="always"
         stdDeviation="0.368306"
         id="feGaussianBlur4140" /></filter><filter
       inkscape:collect="always"
       style="color-interpolation-filters:sRGB"
       id="filter13192"
       x="-0.085168236"
       y="-0.081325344"
       width="1.1703365"
       height="1.162214"><feGaussianBlur
         inkscape:collect="always"
         stdDeviation="0.42889889"
         id="feGaussianBlur13194" /></filter><filter
       inkscape:collect="always"
       style="color-interpolation-filters:sRGB"
       id="filter13334"
       x="-0.054420653"
       y="-0.042934504"
       width="1.1088413"
       height="1.085869"><feGaussianBlur
         inkscape:collect="always"
         stdDeviation="0.4238202"
         id="feGaussianBlur13336" /></filter></defs><g
     inkscape:label="Capa 1"
     inkscape:groupmode="layer"
     id="layer1"><rect
       style="display:inline;opacity:0.5;fill:#000000;fill-opacity:1;stroke-width:0.555994;stroke-linecap:round;stroke-linejoin:round;filter:url(#filter13127)"
       id="rect13119"
       width="61.138855"
       height="30.780264"
       x="2.5795803"
       y="1.6667871"
       ry="2.3674064"
       transform="matrix(0.68672414,0,0,1,-0.25650622,0)" /><rect
       style="display:inline;fill:url(#linearGradient13776);fill-opacity:1;stroke-width:0.455842;stroke-linecap:round;stroke-linejoin:round"
       id="rect1946"
       width="41.581688"
       height="30.421158"
       x="1.1515597"
       y="0.95052207"
       ry="2.3397861" /><path
       id="path3981"
       style="display:none;opacity:0.8;fill:#000000;stroke:none;stroke-width:0.0892854;filter:url(#filter4138)"
       d="m 40.691363,9.7645922 c -0.572433,0.0059 -1.153302,0.083115 -1.732194,0.2382278 -0.19138,0.05128 -0.378663,0.110327 -0.561723,0.176217 l 0.107487,0.116272 c 0.110902,0.11893 0.163814,0.270634 0.163814,0.421681 l 5.17e-4,2.903698 h 1.259355 a 3.1927114,3.1927114 0 0 1 3.909838,2.257227 3.1927114,3.1927114 0 0 1 -2.257226,3.910355 3.1927114,3.1927114 0 0 1 -0.24598,0.05271 v 3.777548 c 0.403648,-0.03448 0.809721,-0.103823 1.214913,-0.212391 3.704909,-0.992727 5.898371,-4.791727 4.905644,-8.496639 -0.837613,-3.126013 -3.673309,-5.1767745 -6.764445,-5.1449058 z" /><g
       id="g13266"
       transform="translate(-10.64129)"><path
         id="path234-2"
         style="opacity:0.8;fill:#000000;fill-opacity:1;stroke:none;stroke-width:0.0966443;filter:url(#filter13334)"
         d="m 39.326276,4.9029657 c -0.436752,0.02579 -0.872039,0.07554 -1.30328,0.149345 0.259729,0.220632 0.455874,0.637718 0.531751,1.07952 v 5.17e-4 c 1.45e-4,8.69e-4 3.74e-4,0.0017 5.17e-4,0.0026 0.0014,0.0082 0.0018,0.01656 0.0031,0.02481 0.06748,0.434901 0.01909,0.890305 -0.19792,1.204578 -0.01386,0.02007 -0.02943,0.03837 -0.04651,0.05426 -0.01708,0.01589 -0.03545,0.02967 -0.05529,0.04186 -0.01855,0.0114 -0.03883,0.02088 -0.05943,0.02946 -0.0048,0.0019 -0.0096,0.0039 -0.01447,0.0057 -0.01305,0.005 -0.02661,0.0089 -0.04031,0.01292 -0.01047,0.003 -0.02073,0.0063 -0.03152,0.0088 -0.1733,0.04032 -0.385972,0.02072 -0.559139,0.02481 -1.372368,0.03233 -1.282675,-1.666824 -4.057633,-0.7028 -0.107624,0.07082 -0.213583,0.144298 -0.318844,0.218592 0.507547,0.463921 1.143221,1.061192 2.031401,1.843815 0.258171,0.250521 0.495354,0.482423 0.715202,0.700732 0.587794,-0.338415 1.220433,-0.606726 1.88774,-0.792716 v 5.16e-4 c 0.08002,-0.0223 0.160872,-0.04363 0.241846,-0.06356 0.0172,-0.0042 0.03444,-0.0083 0.05168,-0.0124 0.08022,-0.0192 0.160741,-0.03743 0.241846,-0.05426 0.08788,-0.01824 0.176221,-0.03471 0.2651,-0.05013 0.0086,-0.0015 0.01721,-0.0032 0.02584,-0.0046 0.07185,-0.01223 0.144053,-0.02324 0.216524,-0.03359 0.02308,-0.0033 0.04611,-0.0067 0.06925,-0.0098 0.08059,-0.01081 0.16157,-0.02048 0.242879,-0.02894 0.0023,-2.35e-4 0.0045,-8.34e-4 0.0067,-0.001 0.0031,-3.21e-4 0.0062,-7.5e-4 0.0093,-10e-4 0.08695,-0.0089 0.17427,-0.01557 0.261999,-0.0217 0.0117,-8.18e-4 0.02343,-0.0018 0.03514,-0.0026 0.06592,-0.0043 0.132104,-0.0076 0.198438,-0.01034 0.03198,-0.0013 0.06404,-0.0027 0.09612,-0.0036 0.0831,-0.0025 0.166417,-0.0041 0.250114,-0.0041 0.0837,0 0.167015,0.0016 0.250114,0.0041 0.03208,9.6e-4 0.06414,0.0023 0.09612,0.0036 0.06633,0.0028 0.132515,0.006 0.198437,0.01034 0.01172,7.67e-4 0.02344,0.0018 0.03514,0.0026 0.08773,0.0061 0.175045,0.01283 0.262,0.0217 0.0031,3.15e-4 0.0062,7.48e-4 0.0093,10e-4 0.0023,2.32e-4 0.0045,8.33e-4 0.0067,0.001 0.08165,0.0085 0.162986,0.01807 0.243913,0.02894 0.02188,0.0029 0.04381,0.0062 0.06563,0.0093 0.0763,0.01087 0.152278,0.02271 0.227893,0.03566 0.0045,7.64e-4 0.009,0.0013 0.01344,0.0021 0.09013,0.01559 0.180128,0.03267 0.269234,0.05116 0.08041,0.01669 0.160241,0.03473 0.239779,0.05374 0.01887,0.0045 0.03751,0.0093 0.05633,0.01395 0.08005,0.01974 0.159627,0.04048 0.238746,0.06253 v -5.16e-4 c 3.473776,0.968384 6.027022,4.1589803 6.027022,7.9390513 0,3.780079 -2.553246,6.970327 -6.027022,7.938533 -0.0053,0.0015 -0.01071,0.0027 -0.01602,0.0041 -0.07749,0.02143 -0.155196,0.04177 -0.233578,0.06098 -0.0093,0.0023 -0.01857,0.0045 -0.0279,0.0067 -0.08531,0.02059 -0.171034,0.03996 -0.257349,0.05788 -0.08911,0.01849 -0.179105,0.03557 -0.269234,0.05116 -0.0045,7.71e-4 -0.009,0.0013 -0.01344,0.0021 -0.07562,0.01295 -0.151594,0.02479 -0.227893,0.03566 -0.02182,0.0031 -0.04375,0.0064 -0.06563,0.0093 -0.08093,0.01086 -0.162263,0.02045 -0.243913,0.02894 -0.0023,2.34e-4 -0.0045,8.35e-4 -0.0067,0.001 -0.0031,3.2e-4 -0.0062,7.51e-4 -0.0093,0.001 -0.08165,0.0083 -0.163649,0.01527 -0.24598,0.02119 -0.02337,0.0017 -0.04686,0.0027 -0.07028,0.0041 -0.0646,0.0041 -0.12931,0.0078 -0.194303,0.01033 -0.02546,0.001 -0.05096,0.0018 -0.07648,0.0026 -0.08463,0.0026 -0.16951,0.0041 -0.254764,0.0041 -0.08525,0 -0.170133,-0.0015 -0.254765,-0.0041 -0.02552,-7.77e-4 -0.05102,-0.0016 -0.07648,-0.0026 -0.06499,-0.0026 -0.129705,-0.0062 -0.194304,-0.01033 -0.02342,-0.0015 -0.04691,-0.0025 -0.07028,-0.0041 -0.08233,-0.0059 -0.164331,-0.01286 -0.245979,-0.02119 -0.0031,-3.18e-4 -0.0062,-7.46e-4 -0.0093,-0.001 -0.0023,-2.33e-4 -0.0045,-8.31e-4 -0.0067,-0.001 -0.08131,-0.0085 -0.162286,-0.01813 -0.242879,-0.02894 -0.02314,-0.0031 -0.04617,-0.0065 -0.06925,-0.0098 -0.07247,-0.01035 -0.14467,-0.02136 -0.216524,-0.03359 -0.0086,-0.0015 -0.01722,-0.0032 -0.02584,-0.0047 -0.0043,-7.52e-4 -0.0086,-0.0018 -0.01292,-0.0026 v 0.489376 c 0,0.478158 -0.154431,0.918686 -0.415996,1.275376 0.347687,0.694127 0.423628,1.55795 2.517676,1.964737 0.0055,-3.18e-4 0.01102,-7.41e-4 0.01654,-9.99e-4 0.002,3.74e-4 0.0037,6.92e-4 0.0057,9.99e-4 0.436752,-0.02579 0.871522,-0.07554 1.302763,-0.149344 -0.256453,-0.21785 -0.450235,-0.626886 -0.528133,-1.062469 -0.0011,-0.0062 -0.0026,-0.01236 -0.0036,-0.0186 -0.0019,-0.01165 -0.0029,-0.02346 -0.0047,-0.03514 -0.0067,-0.04428 -0.01334,-0.08881 -0.01757,-0.133325 -0.03704,-0.390028 0.02305,-0.782278 0.216524,-1.062468 0.04067,-0.0589 0.09658,-0.09869 0.16123,-0.125574 0.0048,-0.0019 0.0096,-0.0039 0.01447,-0.0057 0.01306,-0.0049 0.02661,-0.0089 0.04031,-0.01292 0.01047,-0.003 0.02073,-0.0063 0.03152,-0.0088 0.03466,-0.0081 0.07084,-0.01364 0.108004,-0.01757 0.148648,-0.01571 0.312601,-0.0035 0.451135,-0.0067 1.372369,-0.03233 1.282675,1.666307 4.057633,0.702283 0.365793,-0.240699 0.718257,-0.501208 1.055233,-0.780831 -0.670754,-0.122221 -1.513629,-1.052369 -1.452624,-1.828312 0.02172,-0.276357 0.376194,-0.417937 0.612882,-0.56224 1.173035,-0.715175 1.945409,0.802553 3.867981,-1.423169 0.195363,-0.390482 0.369201,-0.79135 0.520382,-1.20096 -0.642154,0.229402 -1.837318,-0.15559 -2.171961,-0.858346 -0.119049,-0.25 0.11696,-0.549418 0.250114,-0.792199 0.657042,-1.197993 2.076935,-0.27602 2.633431,-3.140894 -0.0254,-0.442517 -0.07569,-0.88343 -0.150378,-1.320333 -0.443664,0.520038 -1.670502,0.774062 -2.31097,0.331763 -0.225544,-0.155756 -0.173265,-0.528499 -0.179318,-0.802535 -0.0302,-1.367705 1.670685,-1.269238 0.715719,-4.041098 C 49.700023,9.8684767 49.436096,9.5118737 49.153066,9.1710877 49.02887,9.8432377 48.093305,10.677153 47.31752,10.614411 47.044375,10.592321 46.903725,10.242995 46.761481,10.008763 46.051428,8.8395167 47.573383,8.0747097 45.360533,6.1516337 44.96478,5.9525567 44.558035,5.7755717 44.14252,5.6219507 c 0.22843,0.644263 -0.164915,1.834345 -0.868165,2.167826 -0.247698,0.117459 -0.544071,-0.114694 -0.784448,-0.246496 -1.199388,-0.657636 -0.2644,-2.081165 -3.141927,-2.640149 -0.0053,3.08e-4 -0.01067,7.51e-4 -0.01602,10e-4 -0.002,-3.76e-4 -0.0037,-6.92e-4 -0.0057,-10e-4 z M 35.027314,27.508821 c 0.288135,0.133727 0.581041,0.256222 0.879016,0.366386 -0.03849,-0.108559 -0.05734,-0.233565 -0.06201,-0.366386 z" /><path
         id="path8691"
         style="fill:#333333;fill-opacity:1;stroke:none;stroke-width:0.0966443"
         d="m 39.495264,8.7090291 v 5.168e-4 c -0.05615,0 -0.112099,8.091e-4 -0.167949,0.00207 -0.024,5.25e-4 -0.04789,0.00127 -0.07183,0.00207 -0.03036,9.54e-4 -0.06068,0.00232 -0.09095,0.00362 -0.02845,0.0012 -0.0569,0.00263 -0.08527,0.00413 -0.0523,0.0029 -0.104576,0.00592 -0.156579,0.00982 -0.0019,1.43e-4 -0.0038,3.738e-4 -0.0057,5.168e-4 -0.05382,0.0041 -0.107215,0.0087 -0.160713,0.013953 -0.0228,0.0022 -0.04548,0.00483 -0.06821,0.00723 -0.03396,0.0036 -0.06798,0.0073 -0.101803,0.011369 -0.02708,0.0033 -0.05414,0.00681 -0.08113,0.010335 -0.04784,0.0063 -0.09508,0.012974 -0.142627,0.020154 -0.03461,0.0052 -0.0689,0.010836 -0.103353,0.016536 -0.01515,0.0025 -0.03037,0.00525 -0.04548,0.00775 -0.03228,0.0055 -0.0645,0.011113 -0.09663,0.017053 -0.0228,0.0042 -0.04549,0.0085 -0.06821,0.012919 -0.03277,0.0064 -0.06556,0.012827 -0.09819,0.019637 -0.04305,0.009 -0.0859,0.018185 -0.128674,0.027905 -0.0024,5.45e-4 -0.0048,9.503e-4 -0.0072,0.00155 h -5.17e-4 c -0.03012,0.0069 -0.05994,0.014474 -0.08992,0.021704 -0.01862,0.0045 -0.03725,0.0088 -0.05581,0.013436 -0.03923,0.0098 -0.07832,0.020089 -0.117306,0.030489 -0.0045,0.0012 -0.0089,0.00242 -0.01344,0.00362 -0.04125,0.01108 -0.08254,0.022336 -0.123506,0.034106 -0.04405,0.01266 -0.08806,0.025844 -0.131775,0.039274 -0.474246,0.1457208 -0.9281,0.3370902 -1.357023,0.5689575 1.375455,1.4201528 1.850305,2.2094858 2.017964,3.5289838 a 3.4558569,3.4558569 0 0 1 1.551844,-0.375171 3.4558569,3.4558569 0 0 1 2.212785,0.806152 v -0.0036 a 3.4558569,3.4558569 0 0 1 1.243334,2.653585 3.4558569,3.4558569 0 0 1 -1.243334,2.653585 v -0.0047 a 3.4558569,3.4558569 0 0 1 -2.212785,0.806669 3.4558569,3.4558569 0 0 1 -1.425236,-0.314193 v 4.232817 c 0.01979,0.0038 0.03955,0.0077 0.05943,0.01137 0.0198,0.0036 0.03958,0.0074 0.05943,0.01085 0.03604,0.0063 0.07231,0.01229 0.108521,0.01809 0.02172,0.0035 0.04333,0.007 0.06511,0.01034 0.007,0.0011 0.01415,0.0021 0.02119,0.0031 0.04887,0.0072 0.09758,0.01386 0.146761,0.02015 0.0086,0.0011 0.01723,0.002 0.02584,0.0031 0.04375,0.0054 0.08779,0.01029 0.131775,0.01499 0.02274,0.0024 0.04542,0.005 0.06821,0.0072 0.0535,0.0052 0.106889,0.0099 0.160713,0.01395 0.04913,0.0037 0.09841,0.007 0.147795,0.0098 0.0048,2.72e-4 0.0096,2.53e-4 0.01447,5.16e-4 0.02836,0.0015 0.05682,0.0029 0.08527,0.0041 0.03027,0.0013 0.06059,0.0027 0.09095,0.0036 0.02394,7.5e-4 0.04783,0.0015 0.07183,0.0021 0.05585,0.0012 0.111803,0.0021 0.167949,0.0021 0.05612,0 0.112127,-8.1e-4 0.167948,-0.0021 0.02432,-5.32e-4 0.0486,-0.0013 0.07286,-0.0021 0.03001,-9.44e-4 0.05999,-0.0023 0.08992,-0.0036 0.03072,-0.0013 0.06136,-0.0024 0.09198,-0.0041 0.01418,-7.84e-4 0.02822,-0.0017 0.04237,-0.0026 0.06749,-0.0041 0.134543,-0.0091 0.201538,-0.01499 0.01568,-0.0014 0.03137,-0.0027 0.04702,-0.0041 0.0064,-6.03e-4 0.01273,-0.0014 0.01912,-0.0021 0.02517,-0.0024 0.05035,-0.0051 0.07545,-0.0078 0.04122,-0.0044 0.08249,-0.0089 0.123507,-0.01395 0.01238,-0.0015 0.02485,-0.0036 0.03721,-0.0052 0.05283,-0.0068 0.105648,-0.01382 0.15813,-0.0217 0.0059,-8.81e-4 0.01172,-0.0017 0.01757,-0.0026 0.01675,-0.0026 0.03341,-0.0056 0.05013,-0.0083 0.03593,-0.0057 0.07173,-0.01184 0.107487,-0.01809 0.02176,-0.0038 0.04342,-0.0079 0.06511,-0.01189 0.02861,-0.0053 0.05729,-0.01044 0.08578,-0.01602 0.03073,-0.006 0.06139,-0.01222 0.09198,-0.0186 0.04532,-0.0095 0.09038,-0.01919 0.135392,-0.02946 0.03995,-0.0091 0.07967,-0.01868 0.119373,-0.02842 0.0064,-0.0016 0.01276,-0.0031 0.01912,-0.0047 0.04345,-0.01078 0.08656,-0.02205 0.129708,-0.03359 0.04429,-0.01184 0.08832,-0.02406 0.132292,-0.03669 0.02606,-0.0075 0.05208,-0.01498 0.07803,-0.02274 0.01787,-0.0053 0.03593,-0.01055 0.05374,-0.01602 3.06951,-0.942902 5.296834,-3.797482 5.296834,-7.17889 0,-3.381401 -2.227324,-6.2363167 -5.296834,-7.1794068 -0.04371,-0.01343 -0.08773,-0.026107 -0.131775,-0.038757 -0.03282,-0.0094 -0.0657,-0.018398 -0.0987,-0.027389 -0.02069,-0.0056 -0.04125,-0.011067 -0.06201,-0.016536 -0.02483,-0.0065 -0.04949,-0.013347 -0.07441,-0.019637 -0.0287,-0.0072 -0.05747,-0.014277 -0.0863,-0.021187 -0.02631,-0.0063 -0.05264,-0.012583 -0.07906,-0.018604 -0.04488,-0.01023 -0.09021,-0.020026 -0.135392,-0.029456 -0.0306,-0.0064 -0.06125,-0.012593 -0.09198,-0.018603 -0.0285,-0.0056 -0.05717,-0.01077 -0.08578,-0.01602 -0.01998,-0.0037 -0.03991,-0.0073 -0.05994,-0.010852 -0.04212,-0.0074 -0.08425,-0.014507 -0.126607,-0.021187 -0.01208,-0.0019 -0.02407,-0.00378 -0.03617,-0.00568 -0.0038,-5.76e-4 -0.0076,-0.00103 -0.01137,-0.00155 -0.0041,-6.24e-4 -0.0083,-0.00147 -0.0124,-0.00207 -0.05093,-0.0076 -0.102214,-0.014607 -0.153479,-0.021187 -0.0033,-4.2e-4 -0.0065,-0.00105 -0.0098,-0.00155 -0.0086,-0.0011 -0.01726,-0.002 -0.02584,-0.0031 -0.04101,-0.0051 -0.08229,-0.0095 -0.123507,-0.013953 -0.02304,-0.0025 -0.04615,-0.00503 -0.06925,-0.00723 -0.0535,-0.0052 -0.10689,-0.0099 -0.160714,-0.013953 -0.05347,-0.0041 -0.106931,-0.0074 -0.160714,-0.010335 -0.0289,-0.0016 -0.05783,-0.00293 -0.08682,-0.00413 -0.02992,-0.0013 -0.0599,-0.00272 -0.08992,-0.00362 -0.02426,-7.61e-4 -0.04854,-0.00147 -0.07286,-0.00207 -0.05582,-0.0012 -0.11183,-0.00207 -0.167948,-0.00207 z" /><path
         id="path234"
         style="fill:#aa0000;fill-opacity:1;stroke:none;stroke-width:0.0966443"
         d="m 38.797115,4.3738932 c -0.436752,0.02579 -0.872039,0.07554 -1.30328,0.1493449 0.259729,0.2206328 0.455874,0.6377181 0.531751,1.0795207 v 5.168e-4 c 1.45e-4,8.69e-4 3.74e-4,0.00168 5.17e-4,0.00258 0.0014,0.0082 0.0018,0.016565 0.0031,0.024805 0.06748,0.4349005 0.01909,0.8903049 -0.19792,1.2045776 -0.01386,0.02007 -0.02943,0.03837 -0.04651,0.05426 -0.01708,0.01589 -0.03545,0.029668 -0.05529,0.041858 -0.01855,0.0114 -0.03883,0.020885 -0.05943,0.029456 -0.0048,0.0019 -0.0096,0.00388 -0.01447,0.00568 -0.01305,0.005 -0.02661,0.0089 -0.04031,0.012919 -0.01047,0.003 -0.02073,0.00629 -0.03152,0.00879 -0.1733,0.04032 -0.385972,0.020715 -0.559139,0.024805 -1.372368,0.03233 -1.282675,-1.6668235 -4.057633,-0.7027995 -0.107624,0.070819 -0.213583,0.1442977 -0.318844,0.2185914 0.507547,0.4639217 1.143221,1.0611921 2.031401,1.8438151 0.258171,0.2505208 0.495354,0.482423 0.715202,0.7007324 0.587794,-0.3384146 1.220433,-0.6067257 1.88774,-0.7927165 v 5.168e-4 c 0.08002,-0.0223 0.160872,-0.043632 0.241846,-0.063562 0.0172,-0.0042 0.03444,-0.0083 0.05168,-0.012402 0.08022,-0.0192 0.160741,-0.03743 0.241846,-0.05426 0.08788,-0.01824 0.176221,-0.034706 0.2651,-0.050126 0.0086,-0.0015 0.01721,-0.00325 0.02584,-0.00465 0.07185,-0.01223 0.144053,-0.02324 0.216524,-0.03359 0.02308,-0.0033 0.04611,-0.00672 0.06925,-0.00982 0.08059,-0.01081 0.16157,-0.020479 0.242879,-0.028939 0.0023,-2.35e-4 0.0045,-8.345e-4 0.0067,-0.00103 0.0031,-3.21e-4 0.0062,-7.505e-4 0.0093,-0.00103 0.08695,-0.0089 0.17427,-0.015574 0.261999,-0.021704 0.0117,-8.18e-4 0.02343,-0.00178 0.03514,-0.00258 0.06592,-0.0043 0.132104,-0.0076 0.198438,-0.010335 0.03198,-0.0013 0.06404,-0.00272 0.09612,-0.00362 0.0831,-0.0025 0.166417,-0.00413 0.250114,-0.00413 0.0837,0 0.167015,0.00163 0.250114,0.00413 0.03208,9.6e-4 0.06414,0.00232 0.09612,0.00362 0.06633,0.0028 0.132515,0.00601 0.198437,0.010335 0.01172,7.67e-4 0.02344,0.00178 0.03514,0.00258 0.08773,0.0061 0.175045,0.012834 0.262,0.021704 0.0031,3.15e-4 0.0062,7.475e-4 0.0093,0.00103 0.0023,2.32e-4 0.0045,8.325e-4 0.0067,0.00103 0.08165,0.0085 0.162986,0.018069 0.243913,0.028939 0.02188,0.0029 0.04381,0.0062 0.06563,0.0093 0.0763,0.01087 0.152278,0.022707 0.227893,0.035657 0.0045,7.64e-4 0.009,0.00127 0.01344,0.00207 0.09013,0.01559 0.180128,0.03267 0.269234,0.05116 0.08041,0.01669 0.160241,0.034733 0.239779,0.053743 0.01887,0.0045 0.03751,0.0093 0.05633,0.013953 0.08005,0.01974 0.159627,0.040478 0.238746,0.062528 v -5.168e-4 c 3.473776,0.968384 6.027022,4.1589799 6.027022,7.9390509 0,3.780079 -2.553246,6.970327 -6.027022,7.938533 -0.0053,0.0015 -0.01071,0.0027 -0.01602,0.0041 -0.07749,0.02143 -0.155196,0.04177 -0.233578,0.06098 -0.0093,0.0023 -0.01857,0.0045 -0.0279,0.0067 -0.08531,0.02059 -0.171034,0.03996 -0.257349,0.05788 -0.08911,0.01849 -0.179105,0.03557 -0.269234,0.05116 -0.0045,7.71e-4 -0.009,0.0013 -0.01344,0.0021 -0.07562,0.01295 -0.151594,0.02479 -0.227893,0.03566 -0.02182,0.0031 -0.04375,0.0064 -0.06563,0.0093 -0.08093,0.01086 -0.162263,0.02045 -0.243913,0.02894 -0.0023,2.34e-4 -0.0045,8.35e-4 -0.0067,0.001 -0.0031,3.19e-4 -0.0062,7.51e-4 -0.0093,0.001 -0.08165,0.0083 -0.163649,0.01527 -0.24598,0.02119 -0.02337,0.0017 -0.04686,0.0027 -0.07028,0.0041 -0.0646,0.0041 -0.12931,0.0078 -0.194303,0.01033 -0.02546,0.001 -0.05096,0.0018 -0.07648,0.0026 -0.08463,0.0026 -0.16951,0.0041 -0.254764,0.0041 -0.08525,0 -0.170133,-0.0015 -0.254765,-0.0041 -0.02552,-7.77e-4 -0.05102,-0.0016 -0.07648,-0.0026 -0.06499,-0.0026 -0.129705,-0.0062 -0.194304,-0.01033 -0.02342,-0.0015 -0.04691,-0.0025 -0.07028,-0.0041 -0.08233,-0.0059 -0.164331,-0.01286 -0.245979,-0.02119 -0.0031,-3.17e-4 -0.0062,-7.46e-4 -0.0093,-0.001 -0.0023,-2.33e-4 -0.0045,-8.32e-4 -0.0067,-0.001 -0.08131,-0.0085 -0.162286,-0.01813 -0.242879,-0.02894 -0.02314,-0.0031 -0.04617,-0.0065 -0.06925,-0.0098 -0.07247,-0.01035 -0.14467,-0.02136 -0.216524,-0.03359 -0.0086,-0.0015 -0.01722,-0.0032 -0.02584,-0.0047 -0.0043,-7.53e-4 -0.0086,-0.0018 -0.01292,-0.0026 v 0.489376 c 0,0.478158 -0.154431,0.918686 -0.415996,1.275375 0.347687,0.694127 0.423628,1.557951 2.517676,1.964738 0.0055,-3.18e-4 0.01102,-7.42e-4 0.01654,-0.001 0.002,3.75e-4 0.0037,6.93e-4 0.0057,0.001 0.436752,-0.02579 0.871522,-0.07554 1.302763,-0.149345 -0.256453,-0.21785 -0.450235,-0.626886 -0.528133,-1.062468 -0.0011,-0.0062 -0.0026,-0.01236 -0.0036,-0.0186 -0.0019,-0.01165 -0.0029,-0.02346 -0.0047,-0.03514 -0.0067,-0.04428 -0.01334,-0.08881 -0.01757,-0.133325 -0.03704,-0.390028 0.02305,-0.782278 0.216524,-1.062468 0.04067,-0.0589 0.09658,-0.09869 0.16123,-0.125574 0.0048,-0.0019 0.0096,-0.0039 0.01447,-0.0057 0.01306,-0.0049 0.02661,-0.0089 0.04031,-0.01292 0.01047,-0.003 0.02073,-0.0063 0.03152,-0.0088 0.03466,-0.0081 0.07084,-0.01364 0.108004,-0.01757 0.148648,-0.01571 0.312601,-0.0035 0.451135,-0.0067 1.372369,-0.03233 1.282675,1.666307 4.057633,0.702283 0.365793,-0.240699 0.718257,-0.501208 1.055233,-0.780831 -0.670754,-0.122221 -1.513629,-1.052369 -1.452624,-1.828312 0.02172,-0.276357 0.376194,-0.417937 0.612882,-0.56224 1.173035,-0.715175 1.945409,0.802553 3.867981,-1.423169 0.195363,-0.390482 0.369201,-0.79135 0.520382,-1.20096 -0.642154,0.229402 -1.837318,-0.15559 -2.171961,-0.858346 -0.119049,-0.25 0.11696,-0.549418 0.250114,-0.792199 0.657042,-1.197993 2.076935,-0.27602 2.633431,-3.140894 -0.0254,-0.442517 -0.07569,-0.88343 -0.150378,-1.320333 -0.443664,0.520038 -1.670502,0.774062 -2.31097,0.331763 -0.225544,-0.155756 -0.173265,-0.528499 -0.179318,-0.802535 -0.0302,-1.367705 1.670685,-1.269238 0.715719,-4.0410975 C 49.170862,9.3392382 48.906935,8.9826354 48.623905,8.6418498 48.499709,9.3139991 47.564144,10.147914 46.788359,10.085173 46.515214,10.063083 46.374564,9.7137565 46.23232,9.4795247 45.522267,8.3102789 47.044222,7.5454719 44.831372,5.6223958 44.435619,5.423318 44.028874,5.2463332 43.613359,5.0927124 43.841789,5.7369758 43.448444,6.9270571 42.745194,7.2605387 42.497496,7.3779976 42.201123,7.145844 41.960746,7.0140422 c -1.199388,-0.6576354 -0.2644,-2.0811645 -3.141927,-2.640149 -0.0053,3.08e-4 -0.01067,7.516e-4 -0.01602,0.00103 -0.002,-3.76e-4 -0.0037,-6.916e-4 -0.0057,-0.00103 z M 34.498153,26.979749 c 0.288135,0.133726 0.581041,0.256221 0.879016,0.366385 -0.03849,-0.108559 -0.05734,-0.233565 -0.06201,-0.366385 z" /></g><g
       id="g13190"
       transform="translate(-9.4550751,0.7029676)"
       style="opacity:0.8;mix-blend-mode:normal;fill:#000000;stroke-width:1.5;stroke-dasharray:none;filter:url(#filter13192)"><path
         style="fill:#000000;fill-opacity:0;stroke:#000000;stroke-width:1.5;stroke-linecap:square;stroke-linejoin:round;stroke-miterlimit:5;stroke-dasharray:none"
         d="m 19.820215,26.549027 v -10.73258 h 14.293747 v 10.73258"
         id="path7053-2" /><path
         style="fill:#000000;fill-opacity:0;stroke:#000000;stroke-width:1.5;stroke-linecap:square;stroke-linejoin:round;stroke-miterlimit:5;stroke-dasharray:none"
         d="m 28.257517,4.8307102 v 4.179971 h -8.661661 v -4.179971"
         id="path7053-3-9" /><path
         style="fill:#000000;fill-opacity:0;stroke:#000000;stroke-width:1.5;stroke-linecap:square;stroke-linejoin:bevel;stroke-miterlimit:5;stroke-dasharray:none"
         d="m 25.332439,4.8144342 v 3.77779"
         id="path9318-1" /><path
         fill="#ff0000"
         d="m 21.545856,18.620902 h 10.842218 c 0.376859,0 0.684843,0.308473 0.684843,0.684844 v 4.604865 c 0,0.376127 -0.308472,0.684843 -0.684843,0.684843 H 21.545856 c -0.376127,0 -0.684844,-0.308228 -0.684844,-0.684843 v -4.604865 c 0,-0.37686 0.308228,-0.684844 0.684844,-0.684844 z"
         id="path2029-2"
         style="clip-rule:evenodd;fill:#000000;fill-opacity:1;fill-rule:evenodd;stroke-width:1.5;stroke-dasharray:none;image-rendering:optimizeQuality;shape-rendering:geometricPrecision;text-rendering:geometricPrecision" /><path
         fill="#ffffff"
         fill-rule="nonzero"
         d="m 25.008175,22.239044 0.07083,0.793774 c -0.198322,0.08206 -0.4472,0.123097 -0.746636,0.123097 -0.299192,0 -0.539522,-0.0315 -0.720747,-0.09452 -0.18098,-0.06301 -0.323616,-0.162418 -0.427661,-0.297726 -0.103801,-0.135552 -0.17634,-0.294551 -0.217372,-0.477485 -0.04079,-0.18269 -0.0613,-0.407878 -0.0613,-0.675806 0,-0.267685 0.02051,-0.493606 0.0613,-0.678005 0.04104,-0.1844 0.113571,-0.344131 0.217372,-0.479684 0.20174,-0.261579 0.572005,-0.392246 1.110551,-0.392246 0.119921,0 0.260846,0.01173 0.42302,0.03541 0.162175,0.0237 0.282828,0.05276 0.361473,0.08744 l -0.141658,0.722945 c -0.204916,-0.04396 -0.392247,-0.06594 -0.562481,-0.06594 -0.16999,0 -0.288201,0.01564 -0.35439,0.04714 -0.06619,0.0315 -0.09916,0.09452 -0.09916,0.18904 v 1.238286 a 1.8548419,1.8548419 0 0 0 0.373196,0.03761 c 0.267929,0 0.505816,-0.03761 0.713664,-0.113326 z m 0.425219,0.793774 0.132377,-0.779607 c 0.28991,0.07254 0.550512,0.108686 0.78205,0.108686 0.231782,0 0.41838,-0.0095 0.560038,-0.02834 v -0.236422 l -0.425219,-0.03761 c -0.38443,-0.03469 -0.648207,-0.127004 -0.791575,-0.276478 -0.143368,-0.149718 -0.214929,-0.370997 -0.214929,-0.664083 0,-0.403237 0.08744,-0.680448 0.262067,-0.831631 0.174874,-0.151184 0.471868,-0.226898 0.890981,-0.226898 0.418868,0 0.796948,0.03933 1.134241,0.118213 l -0.118211,0.75616 c -0.293086,-0.04739 -0.527799,-0.07107 -0.704138,-0.07107 -0.176585,0 -0.326058,0.008 -0.44891,0.0237 v 0.231538 l 0.340224,0.03322 c 0.412762,0.04079 0.697788,0.139216 0.855321,0.295284 0.157534,0.155824 0.236178,0.372463 0.236178,0.649672 0,0.198566 -0.02662,0.366358 -0.08035,0.503375 -0.05349,0.137018 -0.117234,0.241063 -0.191238,0.311892 -0.074,0.07083 -0.178783,0.125294 -0.314335,0.163151 -0.135552,0.03761 -0.254496,0.06057 -0.356832,0.06838 -0.102336,0.008 -0.23862,0.01197 -0.40861,0.01197 -0.409588,0 -0.789378,-0.04104 -1.139127,-0.123095 z m 4.59827,-2.901547 h 0.997224 l -0.732714,2.95357 h -1.3797 l -0.732471,-2.95357 h 0.99698 l 0.401772,1.876237 h 0.0425 z"
         id="path2031-7"
         style="clip-rule:evenodd;fill:#000000;stroke-width:1.5;stroke-dasharray:none;image-rendering:optimizeQuality;shape-rendering:geometricPrecision;text-rendering:geometricPrecision" /><path
         id="rect10984-0"
         style="fill:#000000;fill-opacity:0;stroke:#000000;stroke-width:1.5;stroke-linecap:round;stroke-linejoin:round;stroke-miterlimit:5;stroke-dasharray:none;stroke-dashoffset:0"
         d="m 18.675864,4.8083882 c -1.193813,0 -2.154908,0.961095 -2.154908,2.154907 V 24.651105 c 0,1.193812 0.961095,2.154907 2.154908,2.154907 h 16.58245 c 1.193812,0 2.154907,-0.961095 2.154907,-2.154907 v -6.530868 c -0.153314,-6.378614 0.547905,-6.099419 -3.390749,-9.9213578 -4.509477,-3.973542 -2.637194,-3.309159 -9.368679,-3.390491 z"
         sodipodi:nodetypes="sssssscccs" /></g><g
       id="g13202"
       transform="translate(43.749103,7.1686209)"
       style="stroke-width:1.5;stroke-dasharray:none"><path
         style="fill:#000000;fill-opacity:0;stroke:#000000;stroke-width:1.5;stroke-linecap:square;stroke-linejoin:round;stroke-miterlimit:5;stroke-dasharray:none"
         d="M -33.913136,19.554207 V 8.821627 h 14.293747 v 10.73258"
         id="path7053" /><path
         style="fill:#000000;fill-opacity:0;stroke:#000000;stroke-width:1.5;stroke-linecap:square;stroke-linejoin:round;stroke-miterlimit:5;stroke-dasharray:none"
         d="m -25.475834,-2.1641103 v 4.179971 h -8.661661 v -4.179971"
         id="path7053-3" /><path
         style="fill:#000000;fill-opacity:0;stroke:#000000;stroke-width:1.5;stroke-linecap:square;stroke-linejoin:bevel;stroke-miterlimit:5;stroke-dasharray:none"
         d="m -28.400912,-2.1803863 v 3.77779"
         id="path9318" /><path
         fill="#ff0000"
         d="m -32.187495,11.626082 h 10.842218 c 0.376859,0 0.684843,0.308473 0.684843,0.684844 v 4.604864 c 0,0.376127 -0.308472,0.684844 -0.684843,0.684844 h -10.842218 c -0.376127,0 -0.684844,-0.308228 -0.684844,-0.684844 v -4.604864 c 0,-0.37686 0.308228,-0.684844 0.684844,-0.684844 z"
         id="path2029"
         style="clip-rule:evenodd;fill:#4f7eff;fill-opacity:1;fill-rule:evenodd;stroke-width:1.5;stroke-dasharray:none;image-rendering:optimizeQuality;shape-rendering:geometricPrecision;text-rendering:geometricPrecision" /><path
         fill="#ffffff"
         fill-rule="nonzero"
         d="m -28.725176,15.244224 0.07083,0.793774 c -0.198322,0.08206 -0.4472,0.123097 -0.746636,0.123097 -0.299192,0 -0.539522,-0.0315 -0.720747,-0.09452 -0.18098,-0.06301 -0.323616,-0.162418 -0.427661,-0.297726 -0.103801,-0.135552 -0.17634,-0.294551 -0.217372,-0.477485 -0.04079,-0.18269 -0.0613,-0.407878 -0.0613,-0.675807 0,-0.267684 0.02051,-0.493605 0.0613,-0.678004 0.04104,-0.1844 0.113571,-0.344131 0.217372,-0.479684 0.20174,-0.261579 0.572005,-0.392246 1.110551,-0.392246 0.119921,0 0.260846,0.01173 0.42302,0.03541 0.162175,0.0237 0.282828,0.05276 0.361473,0.08744 l -0.141658,0.722945 c -0.204916,-0.04396 -0.392247,-0.06594 -0.562481,-0.06594 -0.16999,0 -0.288201,0.01564 -0.35439,0.04714 -0.06619,0.0315 -0.09916,0.09452 -0.09916,0.18904 v 1.238286 a 1.8548419,1.8548419 0 0 0 0.373196,0.03761 c 0.267929,0 0.505816,-0.03761 0.713664,-0.113326 z m 0.425219,0.793774 0.132377,-0.779607 c 0.28991,0.07254 0.550512,0.108686 0.78205,0.108686 0.231782,0 0.41838,-0.0095 0.560038,-0.02834 v -0.236422 l -0.425219,-0.03761 c -0.38443,-0.03469 -0.648207,-0.127004 -0.791575,-0.276478 -0.143368,-0.149718 -0.214929,-0.370996 -0.214929,-0.664082 0,-0.403237 0.08744,-0.680448 0.262067,-0.831631 0.174874,-0.151184 0.471868,-0.226898 0.890981,-0.226898 0.418868,0 0.796948,0.03933 1.134241,0.118213 l -0.118211,0.75616 c -0.293086,-0.04739 -0.527799,-0.07107 -0.704138,-0.07107 -0.176585,0 -0.326058,0.008 -0.44891,0.0237 v 0.231538 l 0.340224,0.03322 c 0.412762,0.04079 0.697788,0.139216 0.855321,0.295284 0.157534,0.155823 0.236178,0.372462 0.236178,0.649672 0,0.198566 -0.02662,0.366358 -0.08035,0.503375 -0.05349,0.137018 -0.117234,0.241063 -0.191238,0.311892 -0.074,0.07083 -0.178783,0.125294 -0.314335,0.163151 -0.135552,0.03761 -0.254496,0.06057 -0.356832,0.06838 -0.102336,0.008 -0.23862,0.01197 -0.40861,0.01197 -0.409588,0 -0.789378,-0.04104 -1.139127,-0.123095 z m 4.59827,-2.901547 h 0.997224 l -0.732714,2.95357 h -1.3797 l -0.732471,-2.95357 h 0.99698 l 0.401772,1.876236 h 0.0425 z"
         id="path2031"
         style="clip-rule:evenodd;stroke-width:1.5;stroke-dasharray:none;image-rendering:optimizeQuality;shape-rendering:geometricPrecision;text-rendering:geometricPrecision" /><path
         id="rect10984"
         style="opacity:1;fill:#000000;fill-opacity:0;stroke:#000000;stroke-width:1.5;stroke-linecap:round;stroke-linejoin:round;stroke-miterlimit:5;stroke-dasharray:none;stroke-dashoffset:0"
         d="m -35.057487,-2.1864323 c -1.193813,0 -2.154908,0.961095 -2.154908,2.15490698 V 17.656284 c 0,1.193813 0.961095,2.154908 2.154908,2.154908 h 16.58245 c 1.193812,0 2.154907,-0.961095 2.154907,-2.154908 v -6.530867 c -0.153314,-6.378614 0.547905,-6.099419 -3.390749,-9.9213583 -4.509477,-3.973542 -2.637194,-3.309159 -9.368679,-3.390491 z"
         sodipodi:nodetypes="sssssscccs" /></g></g></svg>
