<?xml version="1.0" encoding="UTF-8" standalone="no"?>
<!-- Created with Inkscape (http://www.inkscape.org/) -->

<svg
   width="200"
   height="200"
   viewBox="0 0 52.916665 52.916666"
   version="1.1"
   id="svg5"
   inkscape:export-filename="step_slide_mode_icon.png"
   inkscape:export-xdpi="139.02603"
   inkscape:export-ydpi="139.02603"
   inkscape:version="1.2.2 (b0a8486541, 2022-12-01)"
   sodipodi:docname="step_slide_mode_icon.svg"
   xmlns:inkscape="http://www.inkscape.org/namespaces/inkscape"
   xmlns:sodipodi="http://sodipodi.sourceforge.net/DTD/sodipodi-0.dtd"
   xmlns:xlink="http://www.w3.org/1999/xlink"
   xmlns="http://www.w3.org/2000/svg"
   xmlns:svg="http://www.w3.org/2000/svg">
  <sodipodi:namedview
     id="namedview7"
     pagecolor="#ffffff"
     bordercolor="#000000"
     borderopacity="0.25"
     inkscape:showpageshadow="2"
     inkscape:pageopacity="0.0"
     inkscape:pagecheckerboard="0"
     inkscape:deskcolor="#d1d1d1"
     inkscape:document-units="px"
     showgrid="false"
     inkscape:zoom="3.4218438"
     inkscape:cx="67.945825"
     inkscape:cy="112.80468"
     inkscape:window-width="1920"
     inkscape:window-height="1029"
     inkscape:window-x="0"
     inkscape:window-y="27"
     inkscape:window-maximized="1"
     inkscape:current-layer="layer1" />
  <defs
     id="defs2">
    <inkscape:path-effect
       effect="powerstroke"
       id="path-effect1635"
       is_visible="true"
       lpeversion="1"
       offset_points="0.15977046,3.3718645 | 0.50258753,2.7774405 | 0.74652443,2.4499133"
       not_jump="false"
       sort_points="true"
       interpolator_type="CentripetalCatmullRom"
       interpolator_beta="0.98067633"
       start_linecap_type="round"
       linejoin_type="round"
       miter_limit="4"
       scale_width="1"
       end_linecap_type="round" />
    <linearGradient
       inkscape:collect="always"
       id="linearGradient3705">
      <stop
         style="stop-color:#b7b7c8;stop-opacity:1"
         offset="0"
         id="stop3701" />
      <stop
         style="stop-color:#ffdd55;stop-opacity:1"
         offset="1"
         id="stop3703" />
    </linearGradient>
    <filter
       inkscape:collect="always"
       style="color-interpolation-filters:sRGB"
       id="filter3455"
       x="-0.082631955"
       y="-0.082629195"
       width="1.1652639"
       height="1.1652584">
      <feGaussianBlur
         inkscape:collect="always"
         stdDeviation="1.4808634"
         id="feGaussianBlur3457" />
    </filter>
    <linearGradient
       inkscape:collect="always"
       xlink:href="#linearGradient3705"
       id="linearGradient3707"
       x1="31.823977"
       y1="12.357202"
       x2="5.2342577"
       y2="43.581467"
       gradientUnits="userSpaceOnUse"
       gradientTransform="translate(0.52096457,0.52599166)" />
    <inkscape:path-effect
       effect="fill_between_many"
       method="bsplinespiro"
       linkedpaths="#path353,0,1"
       id="path-effect1637" />
    <marker
       markerWidth="16"
       markerHeight="13.4"
       refX="40.01347"
       refY="33.916077"
       orient="auto"
       id="marker1924"
       viewBox="0 0 80.026943 67.832154"
       preserveAspectRatio="xMidYMid">
      <path
         id="path1919"
         style="opacity:0.850699;fill:#241c1c;fill-rule:nonzero;stroke:none;stroke-width:0.264583;stroke-linejoin:round;stroke-dasharray:none"
         class="UnoptimicedTransforms"
         d="m 21.583775,5.1145989 c 0.05598,-0.00369 0.112244,-0.00553 0.168579,-0.00624 1.31549,-0.016616 2.713504,0.7881878 3.511896,2.8333857 0.251801,0.6450223 0.273099,0.8174925 0.316609,1.7201441 -0.0145,1.9186263 -0.530829,3.7494963 -1.000212,5.6215813 L 19.408033,14.790498 C 19.407171,13.127265 19.166151,11.567911 18.896732,10.264314 18.796662,9.7104197 18.685021,9.4126935 18.56632,8.7264729 18.310265,6.7596657 19.848462,5.2290366 21.583775,5.1145989 Z M 11.352876,11.499221 c 1.728112,-0.195026 3.513306,1.038651 3.609999,3.019698 0.0048,0.696394 -0.05225,1.009197 -0.05254,1.572058 -0.03404,1.330711 0.0052,2.908094 0.299239,4.545132 l -5.003276,1.402206 C 9.4124565,20.279102 8.5797148,18.568773 8.225293,16.683112 8.1080838,15.787045 8.0984676,15.613531 8.2319244,14.934085 8.6550789,12.77974 9.8882639,11.739833 11.185862,11.522964 c 0.05557,-0.0093 0.111269,-0.01745 0.167014,-0.02374 z m 7.982969,4.835 4.887449,0.466048 c -0.14943,0.70397 -0.272665,1.417816 -0.340784,2.149323 -0.678886,3.193484 -5.47069,2.17205 -4.791805,-1.021434 0.114759,-0.533967 0.19433,-1.06665 0.24514,-1.593937 z m -3.781536,5.808358 c 0.143487,0.509927 0.315721,1.02011 0.523328,1.525274 1.234299,3.022536 -3.300509,4.877322 -4.534808,1.854786 C 11.3461,24.814796 11.098776,24.13406 10.826906,23.467734 Z"
         transform="matrix(-0.3363684,-3.7645299,-3.7645299,0.3363684,106.53785,93.1174)" />
    </marker>
  </defs>
  <g
     inkscape:label="Capa 1"
     inkscape:groupmode="layer"
     id="layer1">
    <rect
       style="display:inline;opacity:0.5;mix-blend-mode:normal;fill:#453748;stroke:#453748;stroke-width:1.02509;stroke-linejoin:round;stroke-dasharray:none;stroke-opacity:1;filter:url(#filter3455)"
       id="rect3452"
       width="49.213615"
       height="49.21526"
       x="3.1983473"
       y="3.1917942"
       ry="5.8074503"
       transform="matrix(0.95576091,0,0,0.95576091,0.02315618,0.03186728)" />
    <rect
       style="display:inline;fill:url(#linearGradient3707);fill-opacity:1;stroke:none;stroke-width:0.979741;stroke-linejoin:round;stroke-dasharray:none"
       id="rect1475"
       width="47.036449"
       height="47.038021"
       x="1.042043"
       y="1.0518672"
       ry="5.5505342" />
    <path
       style="fill:#333333;stroke:none;stroke-width:0.0585439"
       d="m 13.594411,14.999106 c -2.514983,0 -4.54936,2.033917 -4.54936,4.548902 0,0.466711 0.07026,0.916782 0.200443,1.340441 h 2.743886 a 2.0934422,2.0934422 0 0 1 -0.488587,-1.340441 2.0934422,2.0934422 0 0 1 2.09339,-2.093504 2.0934422,2.0934422 0 0 1 2.093502,2.093504 2.0934422,2.0934422 0 0 1 -0.488471,1.340441 h 2.74377 c 0.130157,-0.423651 0.20033,-0.873741 0.20033,-1.340441 0,-2.514985 -2.033916,-4.548902 -4.548903,-4.548902 z"
       id="path8691" />
    <path
       style="fill:#aa0000;stroke:none;stroke-width:0.0585439"
       d="m 13.183462,12.37345 c -0.268061,0.01539 -0.535051,0.04577 -0.799713,0.09102 0.315022,0.268757 0.469059,1.012152 0.201129,1.400129 -0.09435,0.136627 -0.320184,0.10473 -0.486186,0.108397 -0.828511,0.01829 -0.768977,-1.011849 -2.44808,-0.433361 -0.224297,0.147317 -0.440173,0.307076 -0.64661,0.478526 0.407166,0.07524 0.912159,0.642039 0.874152,1.111984 -0.01338,0.165463 -0.224809,0.250802 -0.366698,0.336968 -0.708292,0.430128 -1.171773,-0.491934 -2.3367109,0.848539 -0.120595,0.239734 -0.2276728,0.486034 -0.3207317,0.73774 0.3902741,-0.138376 1.1109861,0.09997 1.3129996,0.525977 0.07115,0.150048 -0.06937,0.329711 -0.149218,0.475324 -0.3983739,0.72655 -1.2606986,0.159895 -1.5993132,1.903007 0.01543,0.26795 0.045855,0.534826 0.091131,0.799371 0.2687576,-0.314978 1.0120603,-0.468899 1.4000143,-0.201015 0.097277,0.06717 0.1088599,0.200971 0.1089689,0.332395 h 0.766668 c -0.11893,-0.42666 -0.18272,-0.876173 -0.18272,-1.340443 0,-2.754148 2.237721,-4.991408 4.991867,-4.991408 2.75415,0 4.991409,2.23726 4.991409,4.991408 0,0.46427 -0.06382,0.913783 -0.18272,1.340441 h 0.87072 c 0.430337,-0.500118 1.186979,-0.14991 1.496064,-1.76351 -0.01562,-0.264569 -0.04585,-0.528077 -0.09056,-0.789308 -0.267405,0.314788 -1.010475,0.474666 -1.398869,0.207532 -0.138324,-0.09514 -0.105244,-0.323836 -0.109197,-0.491675 -0.01958,-0.831337 1.009557,-0.777163 0.425582,-2.458142 -0.145808,-0.221585 -0.303764,-0.434933 -0.47315,-0.639062 -0.07404,0.406321 -0.637484,0.916822 -1.107525,0.879868 -0.167409,-0.01316 -0.253214,-0.22778 -0.340627,-0.371158 -0.433231,-0.710586 0.486353,-1.178595 -0.861917,-2.343228 -0.236541,-0.118344 -0.479435,-0.223548 -0.727563,-0.315129 0.138964,0.388996 -0.09421,1.112799 -0.519918,1.315516 -0.151442,0.07212 -0.332828,-0.07073 -0.479897,-0.15139 -0.725706,-0.398015 -0.167332,-1.258204 -1.902781,-1.595313 z"
       id="path234" />
    <text
       xml:space="preserve"
       style="font-style:normal;font-variant:normal;font-weight:normal;font-stretch:normal;font-size:7.07104px;font-family:NordiquePro-Bold;-inkscape-font-specification:'NordiquePro-Bold, Normal';font-variant-ligatures:normal;font-variant-caps:normal;font-variant-numeric:normal;font-variant-east-asian:normal;display:inline;opacity:1;fill:#808080;stroke:none;stroke-width:1.58105;stroke-dasharray:none"
       x="5.1262307"
       y="31.131792"
       id="text11083"><tspan
         sodipodi:role="line"
         id="tspan11085"
         x="5.1262307"
         y="31.131792"
         style="fill:#808080;stroke-width:1.58105">slide</tspan></text>
    <text
       xml:space="preserve"
       style="font-style:normal;font-variant:normal;font-weight:normal;font-stretch:normal;font-size:7.07104px;font-family:NordiquePro-Bold;-inkscape-font-specification:'NordiquePro-Bold, Normal';font-variant-ligatures:normal;font-variant-caps:normal;font-variant-numeric:normal;font-variant-east-asian:normal;display:inline;fill:#808080;stroke:none;stroke-width:1.58105;stroke-dasharray:none"
       x="17.955366"
       y="42.085655"
       id="text11083-3"><tspan
         sodipodi:role="line"
         id="tspan11085-6"
         x="17.955366"
         y="42.085655"
         style="fill:#808080;stroke-width:1.58105">mode</tspan></text>
    <path
       inkscape:original-d="M 0,0"
       inkscape:path-effect="#path-effect1637"
       d="M 0,0"
       id="path1639"
       style="fill:#618da3"
       class="UnoptimicedTransforms"
       transform="translate(0.52096457,0.52599166)" />
    <g
       id="path1987"
       style="opacity:0.850699"
       transform="translate(0.52096457,0.52599166)">
      <path
         style="color:#000000;display:none;fill:#050505;stroke-linejoin:round;-inkscape-stroke:none"
         d="m 6.9249842,29.40803 c -1.772663,0.04831 -3.3739367,0.451808 -4.7402345,1.240234 -1.130337,0.652266 -2.0503955,1.420851 -3.1503906,2.685547 -0.7682438,0.883271 -1.376849,2.115354 -1.738281,3.537109 -0.287693,1.13169 -0.424418,2.4714 -0.376953,4.080078 l 0.263672,-0.0078 c -0.04689,-1.589324 0.08878,-2.903039 0.36914,-4.005871 0.352898,-1.388184 0.9499743,-2.586225 1.6835938,-3.429688 1.0870232,-1.249781 1.9756237,-1.990449 3.0820313,-2.628906 1.3227083,-0.763273 2.878335,-1.157742 4.615234,-1.205078 1.705635,-0.04648 3.5037048,0.29894 4.9140628,0.935547 0.954899,0.431021 2.626007,1.572211 3.36914,2.511718 1.019135,1.288442 1.404696,1.932022 1.91211,4.009766 0.273952,1.121769 0.253986,2.400797 0.287109,3.839844 0.03804,1.652587 -0.02704,3.008275 0.226563,4.263672 0.278814,1.380203 1.029441,3.21036 1.78125,4.08789 1.067752,1.246306 2.198406,2.19596 3.429687,2.814453 1.887395,0.948072 3.176525,1.356011 5.148438,1.306641 1.401682,-0.03509 2.927484,-0.377181 4.320312,-1.003906 1.294258,-0.582373 2.474939,-1.411601 3.328125,-2.476563 1.018954,-1.271875 1.637184,-2.297943 2.00586,-3.390625 0.466703,-1.383216 0.53125,-2.858752 0.53125,-5.060547 h -0.265625 c 0,2.196497 -0.06675,3.638444 -0.517579,4.97461 -0.356135,1.055514 -0.952771,2.05409 -1.960937,3.3125 -0.820576,1.024256 -1.967101,1.831917 -3.230469,2.40039 -1.359585,0.611768 -2.853329,0.944384 -4.216797,0.978516 -1.933273,0.0484 -3.153631,-0.337127 -5.02539,-1.277344 -1.192098,-0.598811 -2.294701,-1.525197 -3.345703,-2.751953 -0.687936,-0.802976 -1.453441,-2.63411 -1.722657,-3.966797 -0.24448,-1.210238 -0.184391,-2.554244 -0.222656,-4.216797 -0.03298,-1.432794 -0.0094,-2.727343 -0.294922,-3.896484 -0.511891,-2.096075 -0.932781,-2.813951 -1.958984,-4.111328 -0.796451,-1.006913 -2.461871,-2.13536 -3.46875,-2.589844 C 10.501983,29.710595 8.6712212,29.36044 6.9249842,29.40803 Z"
         id="path8601"
         sodipodi:insensitive="true" />
      <g
         id="g8539">
        <path
           id="path8597"
           style="opacity:0.850699;fill:#241c1c;stroke-width:0.264583;stroke-linejoin:round"
           class="UnoptimicedTransforms"
           d="m 21.583775,5.1145989 c 0.05598,-0.00369 0.112244,-0.00553 0.168579,-0.00624 1.31549,-0.016616 2.713504,0.7881878 3.511896,2.8333857 0.251801,0.6450223 0.273099,0.8174925 0.316609,1.7201441 -0.0145,1.9186263 -0.530829,3.7494963 -1.000212,5.6215813 L 19.408033,14.790498 C 19.407171,13.127265 19.166151,11.567911 18.896732,10.264314 18.796662,9.7104197 18.685021,9.4126935 18.56632,8.7264729 18.310265,6.7596657 19.848462,5.2290366 21.583775,5.1145989 Z M 11.352876,11.499221 c 1.728112,-0.195026 3.513306,1.038651 3.609999,3.019698 0.0048,0.696394 -0.05225,1.009197 -0.05254,1.572058 -0.03404,1.330711 0.0052,2.908094 0.299239,4.545132 l -5.003276,1.402206 C 9.4124565,20.279102 8.5797148,18.568773 8.225293,16.683112 8.1080838,15.787045 8.0984676,15.613531 8.2319244,14.934085 8.6550789,12.77974 9.8882639,11.739833 11.185862,11.522964 c 0.05557,-0.0093 0.111269,-0.01745 0.167014,-0.02374 z m 7.982969,4.835 4.887449,0.466048 c -0.14943,0.70397 -0.272665,1.417816 -0.340784,2.149323 -0.678886,3.193484 -5.47069,2.17205 -4.791805,-1.021434 0.114759,-0.533967 0.19433,-1.06665 0.24514,-1.593937 z m -3.781536,5.808358 c 0.143487,0.509927 0.315721,1.02011 0.523328,1.525274 1.234299,3.022536 -3.300509,4.877322 -4.534808,1.854786 C 11.3461,24.814796 11.098776,24.13406 10.826906,23.467734 Z"
           transform="matrix(-0.19205677,-0.04624594,-0.04624594,0.19205677,47.63029,23.499517)" />
        <path
           id="path8593"
           style="opacity:0.850699;fill:#241c1c;stroke-width:0.264583;stroke-linejoin:round"
           class="UnoptimicedTransforms"
           d="m 21.583775,5.1145989 c 0.05598,-0.00369 0.112244,-0.00553 0.168579,-0.00624 1.31549,-0.016616 2.713504,0.7881878 3.511896,2.8333857 0.251801,0.6450223 0.273099,0.8174925 0.316609,1.7201441 -0.0145,1.9186263 -0.530829,3.7494963 -1.000212,5.6215813 L 19.408033,14.790498 C 19.407171,13.127265 19.166151,11.567911 18.896732,10.264314 18.796662,9.7104197 18.685021,9.4126935 18.56632,8.7264729 18.310265,6.7596657 19.848462,5.2290366 21.583775,5.1145989 Z M 11.352876,11.499221 c 1.728112,-0.195026 3.513306,1.038651 3.609999,3.019698 0.0048,0.696394 -0.05225,1.009197 -0.05254,1.572058 -0.03404,1.330711 0.0052,2.908094 0.299239,4.545132 l -5.003276,1.402206 C 9.4124565,20.279102 8.5797148,18.568773 8.225293,16.683112 8.1080838,15.787045 8.0984676,15.613531 8.2319244,14.934085 8.6550789,12.77974 9.8882639,11.739833 11.185862,11.522964 c 0.05557,-0.0093 0.111269,-0.01745 0.167014,-0.02374 z m 7.982969,4.835 4.887449,0.466048 c -0.14943,0.70397 -0.272665,1.417816 -0.340784,2.149323 -0.678886,3.193484 -5.47069,2.17205 -4.791805,-1.021434 0.114759,-0.533967 0.19433,-1.06665 0.24514,-1.593937 z m -3.781536,5.808358 c 0.143487,0.509927 0.315721,1.02011 0.523328,1.525274 1.234299,3.022536 -3.300509,4.877322 -4.534808,1.854786 C 11.3461,24.814796 11.098776,24.13406 10.826906,23.467734 Z"
           transform="matrix(-0.16455227,-0.10930252,-0.10930252,0.16455227,46.192223,28.377036)" />
        <path
           id="path8589"
           style="opacity:0.850699;fill:#241c1c;stroke-width:0.264583;stroke-linejoin:round"
           class="UnoptimicedTransforms"
           d="m 21.583775,5.1145989 c 0.05598,-0.00369 0.112244,-0.00553 0.168579,-0.00624 1.31549,-0.016616 2.713504,0.7881878 3.511896,2.8333857 0.251801,0.6450223 0.273099,0.8174925 0.316609,1.7201441 -0.0145,1.9186263 -0.530829,3.7494963 -1.000212,5.6215813 L 19.408033,14.790498 C 19.407171,13.127265 19.166151,11.567911 18.896732,10.264314 18.796662,9.7104197 18.685021,9.4126935 18.56632,8.7264729 18.310265,6.7596657 19.848462,5.2290366 21.583775,5.1145989 Z M 11.352876,11.499221 c 1.728112,-0.195026 3.513306,1.038651 3.609999,3.019698 0.0048,0.696394 -0.05225,1.009197 -0.05254,1.572058 -0.03404,1.330711 0.0052,2.908094 0.299239,4.545132 l -5.003276,1.402206 C 9.4124565,20.279102 8.5797148,18.568773 8.225293,16.683112 8.1080838,15.787045 8.0984676,15.613531 8.2319244,14.934085 8.6550789,12.77974 9.8882639,11.739833 11.185862,11.522964 c 0.05557,-0.0093 0.111269,-0.01745 0.167014,-0.02374 z m 7.982969,4.835 4.887449,0.466048 c -0.14943,0.70397 -0.272665,1.417816 -0.340784,2.149323 -0.678886,3.193484 -5.47069,2.17205 -4.791805,-1.021434 0.114759,-0.533967 0.19433,-1.06665 0.24514,-1.593937 z m -3.781536,5.808358 c 0.143487,0.509927 0.315721,1.02011 0.523328,1.525274 1.234299,3.022536 -3.300509,4.877322 -4.534808,1.854786 C 11.3461,24.814796 11.098776,24.13406 10.826906,23.467734 Z"
           transform="matrix(-0.09677209,-0.17221978,-0.17221978,0.09677209,42.765243,32.989623)" />
        <path
           id="path8585"
           style="opacity:0.850699;fill:#241c1c;stroke-width:0.264583;stroke-linejoin:round"
           class="UnoptimicedTransforms"
           d="m 21.583775,5.1145989 c 0.05598,-0.00369 0.112244,-0.00553 0.168579,-0.00624 1.31549,-0.016616 2.713504,0.7881878 3.511896,2.8333857 0.251801,0.6450223 0.273099,0.8174925 0.316609,1.7201441 -0.0145,1.9186263 -0.530829,3.7494963 -1.000212,5.6215813 L 19.408033,14.790498 C 19.407171,13.127265 19.166151,11.567911 18.896732,10.264314 18.796662,9.7104197 18.685021,9.4126935 18.56632,8.7264729 18.310265,6.7596657 19.848462,5.2290366 21.583775,5.1145989 Z M 11.352876,11.499221 c 1.728112,-0.195026 3.513306,1.038651 3.609999,3.019698 0.0048,0.696394 -0.05225,1.009197 -0.05254,1.572058 -0.03404,1.330711 0.0052,2.908094 0.299239,4.545132 l -5.003276,1.402206 C 9.4124565,20.279102 8.5797148,18.568773 8.225293,16.683112 8.1080838,15.787045 8.0984676,15.613531 8.2319244,14.934085 8.6550789,12.77974 9.8882639,11.739833 11.185862,11.522964 c 0.05557,-0.0093 0.111269,-0.01745 0.167014,-0.02374 z m 7.982969,4.835 4.887449,0.466048 c -0.14943,0.70397 -0.272665,1.417816 -0.340784,2.149323 -0.678886,3.193484 -5.47069,2.17205 -4.791805,-1.021434 0.114759,-0.533967 0.19433,-1.06665 0.24514,-1.593937 z m -3.781536,5.808358 c 0.143487,0.509927 0.315721,1.02011 0.523328,1.525274 1.234299,3.022536 -3.300509,4.877322 -4.534808,1.854786 C 11.3461,24.814796 11.098776,24.13406 10.826906,23.467734 Z"
           transform="matrix(-0.02249995,-0.19626065,-0.19626065,0.02249995,37.608924,35.5924)" />
        <path
           id="path8581"
           style="opacity:0.850699;fill:#241c1c;stroke-width:0.264583;stroke-linejoin:round"
           class="UnoptimicedTransforms"
           d="m 21.583775,5.1145989 c 0.05598,-0.00369 0.112244,-0.00553 0.168579,-0.00624 1.31549,-0.016616 2.713504,0.7881878 3.511896,2.8333857 0.251801,0.6450223 0.273099,0.8174925 0.316609,1.7201441 -0.0145,1.9186263 -0.530829,3.7494963 -1.000212,5.6215813 L 19.408033,14.790498 C 19.407171,13.127265 19.166151,11.567911 18.896732,10.264314 18.796662,9.7104197 18.685021,9.4126935 18.56632,8.7264729 18.310265,6.7596657 19.848462,5.2290366 21.583775,5.1145989 Z M 11.352876,11.499221 c 1.728112,-0.195026 3.513306,1.038651 3.609999,3.019698 0.0048,0.696394 -0.05225,1.009197 -0.05254,1.572058 -0.03404,1.330711 0.0052,2.908094 0.299239,4.545132 l -5.003276,1.402206 C 9.4124565,20.279102 8.5797148,18.568773 8.225293,16.683112 8.1080838,15.787045 8.0984676,15.613531 8.2319244,14.934085 8.6550789,12.77974 9.8882639,11.739833 11.185862,11.522964 c 0.05557,-0.0093 0.111269,-0.01745 0.167014,-0.02374 z m 7.982969,4.835 4.887449,0.466048 c -0.14943,0.70397 -0.272665,1.417816 -0.340784,2.149323 -0.678886,3.193484 -5.47069,2.17205 -4.791805,-1.021434 0.114759,-0.533967 0.19433,-1.06665 0.24514,-1.593937 z m -3.781536,5.808358 c 0.143487,0.509927 0.315721,1.02011 0.523328,1.525274 1.234299,3.022536 -3.300509,4.877322 -4.534808,1.854786 C 11.3461,24.814796 11.098776,24.13406 10.826906,23.467734 Z"
           transform="matrix(0.07261011,-0.18371789,-0.18371789,-0.07261011,30.686864,35.619914)" />
        <path
           id="path8577"
           style="opacity:0.850699;fill:#241c1c;stroke-width:0.264583;stroke-linejoin:round"
           class="UnoptimicedTransforms"
           d="m 21.583775,5.1145989 c 0.05598,-0.00369 0.112244,-0.00553 0.168579,-0.00624 1.31549,-0.016616 2.713504,0.7881878 3.511896,2.8333857 0.251801,0.6450223 0.273099,0.8174925 0.316609,1.7201441 -0.0145,1.9186263 -0.530829,3.7494963 -1.000212,5.6215813 L 19.408033,14.790498 C 19.407171,13.127265 19.166151,11.567911 18.896732,10.264314 18.796662,9.7104197 18.685021,9.4126935 18.56632,8.7264729 18.310265,6.7596657 19.848462,5.2290366 21.583775,5.1145989 Z M 11.352876,11.499221 c 1.728112,-0.195026 3.513306,1.038651 3.609999,3.019698 0.0048,0.696394 -0.05225,1.009197 -0.05254,1.572058 -0.03404,1.330711 0.0052,2.908094 0.299239,4.545132 l -5.003276,1.402206 C 9.4124565,20.279102 8.5797148,18.568773 8.225293,16.683112 8.1080838,15.787045 8.0984676,15.613531 8.2319244,14.934085 8.6550789,12.77974 9.8882639,11.739833 11.185862,11.522964 c 0.05557,-0.0093 0.111269,-0.01745 0.167014,-0.02374 z m 7.982969,4.835 4.887449,0.466048 c -0.14943,0.70397 -0.272665,1.417816 -0.340784,2.149323 -0.678886,3.193484 -5.47069,2.17205 -4.791805,-1.021434 0.114759,-0.533967 0.19433,-1.06665 0.24514,-1.593937 z m -3.781536,5.808358 c 0.143487,0.509927 0.315721,1.02011 0.523328,1.525274 1.234299,3.022536 -3.300509,4.877322 -4.534808,1.854786 C 11.3461,24.814796 11.098776,24.13406 10.826906,23.467734 Z"
           transform="matrix(0.13798485,-0.14136716,-0.14136716,-0.13798485,25.493312,33.164463)" />
        <path
           id="path8573"
           style="opacity:0.850699;fill:#241c1c;stroke-width:0.264583;stroke-linejoin:round"
           class="UnoptimicedTransforms"
           d="m 21.583775,5.1145989 c 0.05598,-0.00369 0.112244,-0.00553 0.168579,-0.00624 1.31549,-0.016616 2.713504,0.7881878 3.511896,2.8333857 0.251801,0.6450223 0.273099,0.8174925 0.316609,1.7201441 -0.0145,1.9186263 -0.530829,3.7494963 -1.000212,5.6215813 L 19.408033,14.790498 C 19.407171,13.127265 19.166151,11.567911 18.896732,10.264314 18.796662,9.7104197 18.685021,9.4126935 18.56632,8.7264729 18.310265,6.7596657 19.848462,5.2290366 21.583775,5.1145989 Z M 11.352876,11.499221 c 1.728112,-0.195026 3.513306,1.038651 3.609999,3.019698 0.0048,0.696394 -0.05225,1.009197 -0.05254,1.572058 -0.03404,1.330711 0.0052,2.908094 0.299239,4.545132 l -5.003276,1.402206 C 9.4124565,20.279102 8.5797148,18.568773 8.225293,16.683112 8.1080838,15.787045 8.0984676,15.613531 8.2319244,14.934085 8.6550789,12.77974 9.8882639,11.739833 11.185862,11.522964 c 0.05557,-0.0093 0.111269,-0.01745 0.167014,-0.02374 z m 7.982969,4.835 4.887449,0.466048 c -0.14943,0.70397 -0.272665,1.417816 -0.340784,2.149323 -0.678886,3.193484 -5.47069,2.17205 -4.791805,-1.021434 0.114759,-0.533967 0.19433,-1.06665 0.24514,-1.593937 z m -3.781536,5.808358 c 0.143487,0.509927 0.315721,1.02011 0.523328,1.525274 1.234299,3.022536 -3.300509,4.877322 -4.534808,1.854786 C 11.3461,24.814796 11.098776,24.13406 10.826906,23.467734 Z"
           transform="matrix(0.18938515,-0.05619391,-0.05619391,-0.18938515,21.484589,28.503762)" />
        <path
           id="path8569"
           style="opacity:0.850699;fill:#241c1c;stroke-width:0.264583;stroke-linejoin:round"
           class="UnoptimicedTransforms"
           d="m 21.583775,5.1145989 c 0.05598,-0.00369 0.112244,-0.00553 0.168579,-0.00624 1.31549,-0.016616 2.713504,0.7881878 3.511896,2.8333857 0.251801,0.6450223 0.273099,0.8174925 0.316609,1.7201441 -0.0145,1.9186263 -0.530829,3.7494963 -1.000212,5.6215813 L 19.408033,14.790498 C 19.407171,13.127265 19.166151,11.567911 18.896732,10.264314 18.796662,9.7104197 18.685021,9.4126935 18.56632,8.7264729 18.310265,6.7596657 19.848462,5.2290366 21.583775,5.1145989 Z M 11.352876,11.499221 c 1.728112,-0.195026 3.513306,1.038651 3.609999,3.019698 0.0048,0.696394 -0.05225,1.009197 -0.05254,1.572058 -0.03404,1.330711 0.0052,2.908094 0.299239,4.545132 l -5.003276,1.402206 C 9.4124565,20.279102 8.5797148,18.568773 8.225293,16.683112 8.1080838,15.787045 8.0984676,15.613531 8.2319244,14.934085 8.6550789,12.77974 9.8882639,11.739833 11.185862,11.522964 c 0.05557,-0.0093 0.111269,-0.01745 0.167014,-0.02374 z m 7.982969,4.835 4.887449,0.466048 c -0.14943,0.70397 -0.272665,1.417816 -0.340784,2.149323 -0.678886,3.193484 -5.47069,2.17205 -4.791805,-1.021434 0.114759,-0.533967 0.19433,-1.06665 0.24514,-1.593937 z m -3.781536,5.808358 c 0.143487,0.509927 0.315721,1.02011 0.523328,1.525274 1.234299,3.022536 -3.300509,4.877322 -4.534808,1.854786 C 11.3461,24.814796 11.098776,24.13406 10.826906,23.467734 Z"
           transform="matrix(0.19630564,-0.02210402,-0.02210402,-0.19630564,20.591145,23.791049)" />
        <path
           id="path8565"
           style="opacity:0.850699;fill:#241c1c;stroke-width:0.264583;stroke-linejoin:round"
           class="UnoptimicedTransforms"
           d="m 21.583775,5.1145989 c 0.05598,-0.00369 0.112244,-0.00553 0.168579,-0.00624 1.31549,-0.016616 2.713504,0.7881878 3.511896,2.8333857 0.251801,0.6450223 0.273099,0.8174925 0.316609,1.7201441 -0.0145,1.9186263 -0.530829,3.7494963 -1.000212,5.6215813 L 19.408033,14.790498 C 19.407171,13.127265 19.166151,11.567911 18.896732,10.264314 18.796662,9.7104197 18.685021,9.4126935 18.56632,8.7264729 18.310265,6.7596657 19.848462,5.2290366 21.583775,5.1145989 Z M 11.352876,11.499221 c 1.728112,-0.195026 3.513306,1.038651 3.609999,3.019698 0.0048,0.696394 -0.05225,1.009197 -0.05254,1.572058 -0.03404,1.330711 0.0052,2.908094 0.299239,4.545132 l -5.003276,1.402206 C 9.4124565,20.279102 8.5797148,18.568773 8.225293,16.683112 8.1080838,15.787045 8.0984676,15.613531 8.2319244,14.934085 8.6550789,12.77974 9.8882639,11.739833 11.185862,11.522964 c 0.05557,-0.0093 0.111269,-0.01745 0.167014,-0.02374 z m 7.982969,4.835 4.887449,0.466048 c -0.14943,0.70397 -0.272665,1.417816 -0.340784,2.149323 -0.678886,3.193484 -5.47069,2.17205 -4.791805,-1.021434 0.114759,-0.533967 0.19433,-1.06665 0.24514,-1.593937 z m -3.781536,5.808358 c 0.143487,0.509927 0.315721,1.02011 0.523328,1.525274 1.234299,3.022536 -3.300509,4.877322 -4.534808,1.854786 C 11.3461,24.814796 11.098776,24.13406 10.826906,23.467734 Z"
           transform="matrix(0.18697385,-0.06375947,-0.06375947,-0.18697385,21.13209,20.487461)" />
        <path
           id="path8561"
           style="opacity:0.850699;fill:#241c1c;stroke-width:0.264583;stroke-linejoin:round"
           class="UnoptimicedTransforms"
           d="m 21.583775,5.1145989 c 0.05598,-0.00369 0.112244,-0.00553 0.168579,-0.00624 1.31549,-0.016616 2.713504,0.7881878 3.511896,2.8333857 0.251801,0.6450223 0.273099,0.8174925 0.316609,1.7201441 -0.0145,1.9186263 -0.530829,3.7494963 -1.000212,5.6215813 L 19.408033,14.790498 C 19.407171,13.127265 19.166151,11.567911 18.896732,10.264314 18.796662,9.7104197 18.685021,9.4126935 18.56632,8.7264729 18.310265,6.7596657 19.848462,5.2290366 21.583775,5.1145989 Z M 11.352876,11.499221 c 1.728112,-0.195026 3.513306,1.038651 3.609999,3.019698 0.0048,0.696394 -0.05225,1.009197 -0.05254,1.572058 -0.03404,1.330711 0.0052,2.908094 0.299239,4.545132 l -5.003276,1.402206 C 9.4124565,20.279102 8.5797148,18.568773 8.225293,16.683112 8.1080838,15.787045 8.0984676,15.613531 8.2319244,14.934085 8.6550789,12.77974 9.8882639,11.739833 11.185862,11.522964 c 0.05557,-0.0093 0.111269,-0.01745 0.167014,-0.02374 z m 7.982969,4.835 4.887449,0.466048 c -0.14943,0.70397 -0.272665,1.417816 -0.340784,2.149323 -0.678886,3.193484 -5.47069,2.17205 -4.791805,-1.021434 0.114759,-0.533967 0.19433,-1.06665 0.24514,-1.593937 z m -3.781536,5.808358 c 0.143487,0.509927 0.315721,1.02011 0.523328,1.525274 1.234299,3.022536 -3.300509,4.877322 -4.534808,1.854786 C 11.3461,24.814796 11.098776,24.13406 10.826906,23.467734 Z"
           transform="matrix(0.14341516,-0.13585501,-0.13585501,-0.14341516,21.108144,16.961488)" />
        <path
           id="path8557"
           style="opacity:0.850699;fill:#241c1c;stroke-width:0.264583;stroke-linejoin:round"
           class="UnoptimicedTransforms"
           d="m 21.583775,5.1145989 c 0.05598,-0.00369 0.112244,-0.00553 0.168579,-0.00624 1.31549,-0.016616 2.713504,0.7881878 3.511896,2.8333857 0.251801,0.6450223 0.273099,0.8174925 0.316609,1.7201441 -0.0145,1.9186263 -0.530829,3.7494963 -1.000212,5.6215813 L 19.408033,14.790498 C 19.407171,13.127265 19.166151,11.567911 18.896732,10.264314 18.796662,9.7104197 18.685021,9.4126935 18.56632,8.7264729 18.310265,6.7596657 19.848462,5.2290366 21.583775,5.1145989 Z M 11.352876,11.499221 c 1.728112,-0.195026 3.513306,1.038651 3.609999,3.019698 0.0048,0.696394 -0.05225,1.009197 -0.05254,1.572058 -0.03404,1.330711 0.0052,2.908094 0.299239,4.545132 l -5.003276,1.402206 C 9.4124565,20.279102 8.5797148,18.568773 8.225293,16.683112 8.1080838,15.787045 8.0984676,15.613531 8.2319244,14.934085 8.6550789,12.77974 9.8882639,11.739833 11.185862,11.522964 c 0.05557,-0.0093 0.111269,-0.01745 0.167014,-0.02374 z m 7.982969,4.835 4.887449,0.466048 c -0.14943,0.70397 -0.272665,1.417816 -0.340784,2.149323 -0.678886,3.193484 -5.47069,2.17205 -4.791805,-1.021434 0.114759,-0.533967 0.19433,-1.06665 0.24514,-1.593937 z m -3.781536,5.808358 c 0.143487,0.509927 0.315721,1.02011 0.523328,1.525274 1.234299,3.022536 -3.300509,4.877322 -4.534808,1.854786 C 11.3461,24.814796 11.098776,24.13406 10.826906,23.467734 Z"
           transform="matrix(0.06492565,-0.18657211,-0.18657211,-0.06492565,19.854865,14.01472)" />
        <path
           id="path8553"
           style="opacity:0.850699;fill:#241c1c;stroke-width:0.264583;stroke-linejoin:round"
           class="UnoptimicedTransforms"
           d="m 21.583775,5.1145989 c 0.05598,-0.00369 0.112244,-0.00553 0.168579,-0.00624 1.31549,-0.016616 2.713504,0.7881878 3.511896,2.8333857 0.251801,0.6450223 0.273099,0.8174925 0.316609,1.7201441 -0.0145,1.9186263 -0.530829,3.7494963 -1.000212,5.6215813 L 19.408033,14.790498 C 19.407171,13.127265 19.166151,11.567911 18.896732,10.264314 18.796662,9.7104197 18.685021,9.4126935 18.56632,8.7264729 18.310265,6.7596657 19.848462,5.2290366 21.583775,5.1145989 Z M 11.352876,11.499221 c 1.728112,-0.195026 3.513306,1.038651 3.609999,3.019698 0.0048,0.696394 -0.05225,1.009197 -0.05254,1.572058 -0.03404,1.330711 0.0052,2.908094 0.299239,4.545132 l -5.003276,1.402206 C 9.4124565,20.279102 8.5797148,18.568773 8.225293,16.683112 8.1080838,15.787045 8.0984676,15.613531 8.2319244,14.934085 8.6550789,12.77974 9.8882639,11.739833 11.185862,11.522964 c 0.05557,-0.0093 0.111269,-0.01745 0.167014,-0.02374 z m 7.982969,4.835 4.887449,0.466048 c -0.14943,0.70397 -0.272665,1.417816 -0.340784,2.149323 -0.678886,3.193484 -5.47069,2.17205 -4.791805,-1.021434 0.114759,-0.533967 0.19433,-1.06665 0.24514,-1.593937 z m -3.781536,5.808358 c 0.143487,0.509927 0.315721,1.02011 0.523328,1.525274 1.234299,3.022536 -3.300509,4.877322 -4.534808,1.854786 C 11.3461,24.814796 11.098776,24.13406 10.826906,23.467734 Z"
           transform="matrix(-0.02293497,-0.19621029,-0.19621029,0.02293497,16.546087,11.814587)" />
        <path
           id="path8549"
           style="opacity:0.850699;fill:#241c1c;stroke-width:0.264583;stroke-linejoin:round"
           class="UnoptimicedTransforms"
           d="m 21.583775,5.1145989 c 0.05598,-0.00369 0.112244,-0.00553 0.168579,-0.00624 1.31549,-0.016616 2.713504,0.7881878 3.511896,2.8333857 0.251801,0.6450223 0.273099,0.8174925 0.316609,1.7201441 -0.0145,1.9186263 -0.530829,3.7494963 -1.000212,5.6215813 L 19.408033,14.790498 C 19.407171,13.127265 19.166151,11.567911 18.896732,10.264314 18.796662,9.7104197 18.685021,9.4126935 18.56632,8.7264729 18.310265,6.7596657 19.848462,5.2290366 21.583775,5.1145989 Z M 11.352876,11.499221 c 1.728112,-0.195026 3.513306,1.038651 3.609999,3.019698 0.0048,0.696394 -0.05225,1.009197 -0.05254,1.572058 -0.03404,1.330711 0.0052,2.908094 0.299239,4.545132 l -5.003276,1.402206 C 9.4124565,20.279102 8.5797148,18.568773 8.225293,16.683112 8.1080838,15.787045 8.0984676,15.613531 8.2319244,14.934085 8.6550789,12.77974 9.8882639,11.739833 11.185862,11.522964 c 0.05557,-0.0093 0.111269,-0.01745 0.167014,-0.02374 z m 7.982969,4.835 4.887449,0.466048 c -0.14943,0.70397 -0.272665,1.417816 -0.340784,2.149323 -0.678886,3.193484 -5.47069,2.17205 -4.791805,-1.021434 0.114759,-0.533967 0.19433,-1.06665 0.24514,-1.593937 z m -3.781536,5.808358 c 0.143487,0.509927 0.315721,1.02011 0.523328,1.525274 1.234299,3.022536 -3.300509,4.877322 -4.534808,1.854786 C 11.3461,24.814796 11.098776,24.13406 10.826906,23.467734 Z"
           transform="matrix(-0.11357088,-0.16163585,-0.16163585,0.11357088,12.866996,10.981248)" />
        <path
           id="path8545"
           style="opacity:0.850699;fill:#241c1c;stroke-width:0.264583;stroke-linejoin:round"
           class="UnoptimicedTransforms"
           d="m 21.583775,5.1145989 c 0.05598,-0.00369 0.112244,-0.00553 0.168579,-0.00624 1.31549,-0.016616 2.713504,0.7881878 3.511896,2.8333857 0.251801,0.6450223 0.273099,0.8174925 0.316609,1.7201441 -0.0145,1.9186263 -0.530829,3.7494963 -1.000212,5.6215813 L 19.408033,14.790498 C 19.407171,13.127265 19.166151,11.567911 18.896732,10.264314 18.796662,9.7104197 18.685021,9.4126935 18.56632,8.7264729 18.310265,6.7596657 19.848462,5.2290366 21.583775,5.1145989 Z M 11.352876,11.499221 c 1.728112,-0.195026 3.513306,1.038651 3.609999,3.019698 0.0048,0.696394 -0.05225,1.009197 -0.05254,1.572058 -0.03404,1.330711 0.0052,2.908094 0.299239,4.545132 l -5.003276,1.402206 C 9.4124565,20.279102 8.5797148,18.568773 8.225293,16.683112 8.1080838,15.787045 8.0984676,15.613531 8.2319244,14.934085 8.6550789,12.77974 9.8882639,11.739833 11.185862,11.522964 c 0.05557,-0.0093 0.111269,-0.01745 0.167014,-0.02374 z m 7.982969,4.835 4.887449,0.466048 c -0.14943,0.70397 -0.272665,1.417816 -0.340784,2.149323 -0.678886,3.193484 -5.47069,2.17205 -4.791805,-1.021434 0.114759,-0.533967 0.19433,-1.06665 0.24514,-1.593937 z m -3.781536,5.808358 c 0.143487,0.509927 0.315721,1.02011 0.523328,1.525274 1.234299,3.022536 -3.300509,4.877322 -4.534808,1.854786 C 11.3461,24.814796 11.098776,24.13406 10.826906,23.467734 Z"
           transform="matrix(-0.1600007,-0.11586314,-0.11586314,0.1600007,9.808998,12.104257)" />
        <path
           id="path8541"
           style="opacity:0.850699;fill:#241c1c;stroke-width:0.264583;stroke-linejoin:round"
           class="UnoptimicedTransforms"
           d="m 21.583775,5.1145989 c 0.05598,-0.00369 0.112244,-0.00553 0.168579,-0.00624 1.31549,-0.016616 2.713504,0.7881878 3.511896,2.8333857 0.251801,0.6450223 0.273099,0.8174925 0.316609,1.7201441 -0.0145,1.9186263 -0.530829,3.7494963 -1.000212,5.6215813 L 19.408033,14.790498 C 19.407171,13.127265 19.166151,11.567911 18.896732,10.264314 18.796662,9.7104197 18.685021,9.4126935 18.56632,8.7264729 18.310265,6.7596657 19.848462,5.2290366 21.583775,5.1145989 Z M 11.352876,11.499221 c 1.728112,-0.195026 3.513306,1.038651 3.609999,3.019698 0.0048,0.696394 -0.05225,1.009197 -0.05254,1.572058 -0.03404,1.330711 0.0052,2.908094 0.299239,4.545132 l -5.003276,1.402206 C 9.4124565,20.279102 8.5797148,18.568773 8.225293,16.683112 8.1080838,15.787045 8.0984676,15.613531 8.2319244,14.934085 8.6550789,12.77974 9.8882639,11.739833 11.185862,11.522964 c 0.05557,-0.0093 0.111269,-0.01745 0.167014,-0.02374 z m 7.982969,4.835 4.887449,0.466048 c -0.14943,0.70397 -0.272665,1.417816 -0.340784,2.149323 -0.678886,3.193484 -5.47069,2.17205 -4.791805,-1.021434 0.114759,-0.533967 0.19433,-1.06665 0.24514,-1.593937 z m -3.781536,5.808358 c 0.143487,0.509927 0.315721,1.02011 0.523328,1.525274 1.234299,3.022536 -3.300509,4.877322 -4.534808,1.854786 C 11.3461,24.814796 11.098776,24.13406 10.826906,23.467734 Z"
           transform="matrix(-0.19502842,-0.03143891,-0.03143891,0.19502842,7.3374927,13.572035)" />
      </g>
    </g>
    <path
       style="fill:#333333;stroke:none;stroke-width:0.0585439"
       d="m 34.595248,27.367313 c 2.514834,-0.02732 4.526997,-2.083217 4.499676,-4.598053 -0.0051,-0.466684 -0.08021,-0.915965 -0.214993,-1.338185 l -2.743723,0.02981 a 2.0934422,2.0934422 0 0 1 0.503119,1.335054 2.0934422,2.0934422 0 0 1 -2.070524,2.116122 2.0934422,2.0934422 0 0 1 -2.116121,-2.070639 2.0934422,2.0934422 0 0 1 0.473881,-1.345668 l -2.743608,0.02981 c -0.125547,0.425039 -0.190827,0.875865 -0.185757,1.342538 0.02732,2.514836 2.083211,4.526539 4.59805,4.499218 z"
       id="path2013" />
    <path
       style="fill:#aa0000;stroke:none;stroke-width:0.0585439"
       d="m 35.034695,29.98835 c 0.267878,-0.0183 0.534523,-0.05158 0.798677,-0.0997 -0.317923,-0.265319 -0.480026,-1.006997 -0.216326,-1.397861 0.09286,-0.137644 0.319027,-0.108202 0.484979,-0.113672 0.828264,-0.02729 0.779924,1.003435 2.452644,0.406741 0.222683,-0.149745 0.43681,-0.311839 0.641373,-0.485522 -0.40796,-0.07081 -0.919081,-0.632092 -0.886181,-1.102422 0.01158,-0.165599 0.222071,-0.253229 0.363017,-0.340932 0.703577,-0.437797 1.177048,0.479176 2.327354,-0.873872 0.117984,-0.24103 0.22238,-0.488479 0.312699,-0.741181 -0.388748,0.142607 -1.112006,-0.0879 -1.318635,-0.511683 -0.07278,-0.149266 0.06578,-0.330445 0.144045,-0.476917 0.390458,-0.730834 1.258887,-0.17358 1.578546,-1.920268 -0.01834,-0.267766 -0.05166,-0.534296 -0.09981,-0.798334 -0.26532,0.317879 -1.006907,0.479866 -1.397748,0.216212 -0.098,-0.06611 -0.111036,-0.199777 -0.112574,-0.331192 l -0.766622,0.0083 c 0.123558,0.425342 0.192227,0.874136 0.19727,1.338379 0.02992,2.753985 -2.183366,5.015422 -4.937349,5.04534 -2.753988,0.02992 -5.015418,-2.182906 -5.045337,-4.936891 -0.005,-0.464243 0.05389,-0.914423 0.168148,-1.342347 l -0.870668,0.0095 c -0.424879,0.504763 -1.185281,0.162795 -1.476819,1.779657 0.01849,0.264384 0.05158,0.527548 0.09913,0.788278 0.26397,-0.317674 1.005259,-0.485615 1.396532,-0.222716 0.139349,0.09363 0.108756,0.322674 0.114532,0.49046 0.02861,0.831075 -1.001055,0.788084 -0.398854,2.46262 0.148206,0.219988 0.308471,0.431608 0.480064,0.633885 0.06962,-0.407102 0.627487,-0.923693 1.097902,-0.891848 0.167542,0.01134 0.255673,0.225016 0.344638,0.367436 0.440925,0.705838 -0.473521,1.183809 0.887321,2.333727 0.237813,0.115767 0.481835,0.218326 0.730944,0.307207 -0.143182,-0.387464 0.08212,-1.113757 0.505596,-1.321087 0.15065,-0.07376 0.333577,0.06711 0.481514,0.146168 0.729986,0.390108 0.18099,1.256312 1.919998,1.574549 z"
       id="path2015" />
    <text
       xml:space="preserve"
       style="font-style:normal;font-variant:normal;font-weight:normal;font-stretch:normal;font-size:7.54682px;font-family:NordiquePro-Bold;-inkscape-font-specification:'NordiquePro-Bold, Normal';font-variant-ligatures:normal;font-variant-caps:normal;font-variant-numeric:normal;font-variant-east-asian:normal;display:inline;opacity:1;fill:#808080;stroke:none;stroke-width:1.68743;stroke-dasharray:none"
       x="28.586267"
       y="14.342273"
       id="text8605"><tspan
         sodipodi:role="line"
         id="tspan8603"
         x="28.586267"
         y="14.342273"
         style="fill:#808080;stroke-width:1.68743">step</tspan></text>
  </g>
</svg>
