<?xml version="1.0" encoding="UTF-8" standalone="no"?>
<!-- Created with Inkscape (http://www.inkscape.org/) -->

<svg
   width="1920"
   height="1080"
   viewBox="0 0 507.99999 285.75"
   version="1.1"
   id="svg5"
   xml:space="preserve"
   inkscape:version="1.2.2 (b0a8486541, 2022-12-01)"
   sodipodi:docname="torneiro_logo.svg"
   inkscape:export-filename="torneiro_logo.png"
   inkscape:export-xdpi="96"
   inkscape:export-ydpi="96"
   xmlns:inkscape="http://www.inkscape.org/namespaces/inkscape"
   xmlns:sodipodi="http://sodipodi.sourceforge.net/DTD/sodipodi-0.dtd"
   xmlns="http://www.w3.org/2000/svg"
   xmlns:svg="http://www.w3.org/2000/svg"><sodipodi:namedview
     id="namedview7"
     pagecolor="#ffffff"
     bordercolor="#000000"
     borderopacity="0.25"
     inkscape:showpageshadow="2"
     inkscape:pageopacity="0.0"
     inkscape:pagecheckerboard="0"
     inkscape:deskcolor="#d1d1d1"
     inkscape:document-units="px"
     showgrid="false"
     showguides="true"
     inkscape:zoom="0.5"
     inkscape:cx="856"
     inkscape:cy="486"
     inkscape:window-width="1920"
     inkscape:window-height="1029"
     inkscape:window-x="0"
     inkscape:window-y="27"
     inkscape:window-maximized="1"
     inkscape:current-layer="svg5" /><defs
     id="defs2" /><g
     inkscape:label="torneiro_logo"
     inkscape:groupmode="layer"
     id="layer1"
     style="display:inline"><path
       id="path7936"
       style="display:inline;opacity:1;fill:#ff0000;stroke:#ff0000;stroke-width:0.897546;stroke-linecap:butt;stroke-linejoin:miter;stroke-dasharray:none"
       d="M 119.80117,77.439812 A 63.495487,63.495487 0 0 0 71.489494,99.799859 h 22.90593 a 48.389741,48.389741 0 0 1 25.405746,-7.254327 48.389741,48.389741 0 0 1 48.38987,48.389518 48.389741,48.389741 0 0 1 -10.9069,30.59607 l 10.73756,10.70497 a 63.495487,63.495487 0 0 0 15.27508,-41.30104 63.495487,63.495487 0 0 0 -63.49561,-63.495238 z"
       inkscape:label="red_circle" /><path
       id="path8830"
       style="display:inline;opacity:1;fill:#808080;stroke:#808080;stroke-width:0.897546;stroke-linecap:butt;stroke-linejoin:miter;stroke-dasharray:none"
       d="m 64.716179,109.37027 a 63.495487,63.495487 0 0 0 -8.410262,31.56478 63.495487,63.495487 0 0 0 63.495253,63.4956 63.495487,63.495487 0 0 0 41.1643,-15.15761 L 150.2293,178.55475 a 48.389741,48.389741 0 0 1 -30.42813,10.77018 48.389741,48.389741 0 0 1 -48.389536,-48.38988 48.389741,48.389741 0 0 1 11.7431,-31.56478 z"
       inkscape:label="grey_circle" /><path
       id="rect8911"
       style="opacity:1;fill:#808080;stroke:#808080;stroke-width:0.897544;stroke-linecap:butt;stroke-linejoin:miter;stroke-dasharray:none"
       d="m 107.56863,119.09635 v 4.07154 h 6.50053 v 38.98039 h 11.13586 v -38.98039 h 6.41639 v -4.07154 z"
       inkscape:label="t_logo" /><text
       xml:space="preserve"
       style="font-style:normal;font-variant:normal;font-weight:normal;font-stretch:normal;font-size:73.479px;font-family:NordiquePro-Bold;-inkscape-font-specification:'NordiquePro-Bold, Normal';font-variant-ligatures:normal;font-variant-caps:normal;font-variant-numeric:normal;font-variant-east-asian:normal;fill:#808080;stroke:#808080;stroke-width:0.179508;stroke-dasharray:none"
       x="205.66359"
       y="157.69446"
       id="text291"
       inkscape:label="torneiro_text"><tspan
         sodipodi:role="line"
         id="tspan289"
         style="font-style:normal;font-variant:normal;font-weight:normal;font-stretch:normal;font-size:73.479px;font-family:NordiquePro-Bold;-inkscape-font-specification:'NordiquePro-Bold, Normal';font-variant-ligatures:normal;font-variant-caps:normal;font-variant-numeric:normal;font-variant-east-asian:normal;stroke:#808080;stroke-width:0.179508;stroke-dasharray:none"
         x="205.66359"
         y="157.69446">torneiro</tspan></text><text
       xml:space="preserve"
       style="font-style:normal;font-variant:normal;font-weight:normal;font-stretch:normal;font-size:29.9181px;font-family:NordiquePro-Bold;-inkscape-font-specification:'NordiquePro-Bold, Normal';font-variant-ligatures:normal;font-variant-caps:normal;font-variant-numeric:normal;font-variant-east-asian:normal;fill:#808080;stroke:#808080;stroke-width:0.179508"
       x="380.40524"
       y="181.50412"
       id="text397"
       inkscape:label="sau_text"><tspan
         sodipodi:role="line"
         id="tspan395"
         style="font-style:normal;font-variant:normal;font-weight:normal;font-stretch:normal;font-size:29.9181px;font-family:NordiquePro-Bold;-inkscape-font-specification:'NordiquePro-Bold, Normal';font-variant-ligatures:normal;font-variant-caps:normal;font-variant-numeric:normal;font-variant-east-asian:normal;stroke:#808080;stroke-width:0.179508"
         x="380.40524"
         y="181.50412">s.a.u.</tspan></text><path
       id="path298"
       style="fill:#1a1a1a;stroke:#808080;stroke-width:0.0737697"
       d="m 145.72007,65.424846 c -9.95912,-2.628113 -13.64419,4.788925 -14.41362,6.695985 a 70.432335,70.432335 0 0 0 -5.89427,-0.715885 c -7.10299,-5.045281 1.21141,-10.045722 1.21141,-10.045722 -0.51709,-0.03454 -1.01422,-0.04987 -1.49313,-0.04806 -10.28484,0.03899 -11.93458,8.131694 -12.18795,10.187737 a 70.432335,70.432335 0 0 0 -5.9474,0.81815 c -8.059142,-3.048666 -1.36272,-9.990749 -1.36272,-9.990749 -0.50841,0.100466 -0.99267,0.21422 -1.45479,0.339924 -9.939226,2.703635 -9.421654,10.970226 -9.13454,13.006236 a 70.432335,70.432335 0 0 0 -5.463107,2.327132 C 80.906206,77.181657 85.606915,68.69398 85.606915,68.69398 75.130369,73.844072 77.989471,82.344284 78.828608,84.315326 a 70.432335,70.432335 0 0 0 -4.741819,3.68241 c -8.503932,1.389465 -6.175354,-7.970823 -6.175354,-7.970823 -0.390065,0.341211 -0.752843,0.681904 -1.090198,1.021828 -7.255957,7.311183 -2.674556,14.211458 -1.408014,15.830894 a 70.432335,70.432335 0 0 0 -3.567004,4.746725 c -7.920827,3.62872 -8.093701,-6.072554 -8.093701,-6.072554 -6.497602,9.697924 0.227173,15.630054 1.939763,16.917864 a 70.432335,70.432335 0 0 0 -2.264362,5.55959 c -6.670127,5.45592 -9.333676,-3.81489 -9.333676,-3.81489 -3.778468,11.08519 4.308908,15.06081 6.263163,15.84324 a 70.432335,70.432335 0 0 0 -0.715749,5.89377 c -5.045495,7.10472 -10.04599,-1.21042 -10.04599,-1.21042 -0.778257,11.64941 8.014336,13.42307 10.139546,13.68159 a 70.432335,70.432335 0 0 0 0.818053,5.94576 c -3.048453,8.06068 -9.990516,1.36386 -9.990516,1.36386 2.269977,11.48745 11.260084,10.8888 13.345659,10.5892 a 70.432335,70.432335 0 0 0 2.327265,5.4626 c -0.817334,8.67524 -9.30575,3.97354 -9.30575,3.97354 5.150092,10.47654 13.650603,7.61795 15.621713,6.77894 a 70.432335,70.432335 0 0 0 3.681808,4.74005 c 1.390979,8.50585 -7.970088,6.17662 -7.970088,6.17662 7.710273,8.81422 15.196443,3.79915 16.85186,2.49744 a 70.432335,70.432335 0 0 0 4.746723,3.56701 c 3.630453,7.92218 -6.07182,8.09497 -6.07182,8.09497 9.697923,6.49759 15.630163,-0.22758 16.917987,-1.94026 a 70.432335,70.432335 0 0 0 5.559601,2.26436 c 5.455922,6.67012 -3.814894,9.33368 -3.814894,9.33368 10.977166,3.74164 14.992346,-4.17496 15.829346,-6.22731 a 70.432335,70.432335 0 0 0 5.97724,0.7317 c 6.97532,5.02784 -1.27999,9.99418 -1.27999,9.99418 11.56632,0.77271 13.39856,-7.90474 13.67704,-10.10866 a 70.432335,70.432335 0 0 0 5.96052,-0.84513 c 8.04446,3.05049 1.35364,9.98671 1.35364,9.98671 11.37425,-2.24761 10.89653,-11.10713 10.59518,-13.30607 a 70.432335,70.432335 0 0 0 5.53657,-2.35774 c 8.56238,0.86352 3.89409,9.29676 3.89409,9.29676 0.46506,-0.22866 0.90329,-0.46374 1.31714,-0.70475 l 1.4e-4,-5e-4 c 8.85479,-5.1572 6.28972,-12.94799 5.47102,-14.89148 a 70.432335,70.432335 0 0 0 4.73912,-3.70827 c 8.49507,-1.38279 6.1677,7.97144 6.1677,7.97144 8.73105,-7.63754 3.87798,-15.07509 2.52041,-16.82377 a 70.432335,70.432335 0 0 0 3.62093,-4.80824 c 7.84446,-3.5301 8.01807,6.10525 8.01807,6.10525 0.28846,-0.43054 0.5505,-0.85343 0.78838,-1.26909 5.0906,-8.89487 -1.02851,-14.35992 -2.70835,-15.63276 a 70.432335,70.432335 0 0 0 2.2578,-5.58704 c 6.65963,-5.43092 9.31995,3.82619 9.31995,3.82619 0.16716,-0.49054 0.31074,-0.96706 0.43296,-1.43012 2.61434,-9.9071 -4.70658,-13.60242 -6.66053,-14.39823 a 70.432335,70.432335 0 0 0 0.73224,-5.97923 c 5.02765,-6.97356 9.99427,1.28163 9.99427,1.28163 0.0345,-0.51709 0.0495,-1.01486 0.0477,-1.49377 -0.0307,-8.0997 -5.05794,-10.84417 -8.19707,-11.76851 -0.91057,-0.26813 -1.53466,-0.36242 -1.95935,-0.41051 a 70.432335,70.432335 0 0 0 -0.84529,-5.96592 c 3.05073,-8.04286 9.98657,-1.35314 9.98657,-1.35314 -0.10047,-0.50841 -0.21422,-0.99266 -0.33992,-1.45477 -1.5462,-5.68421 -4.91229,-7.94815 -7.89166,-8.79129 -2.20204,-0.62317 -4.18548,-0.46979 -5.07439,-0.34747 a 70.432335,70.432335 0 0 0 -2.35784,-5.53821 c 0.8635,-8.56234 9.29663,-3.89359 9.29663,-3.89359 -0.22862,-0.46509 -0.46409,-0.90394 -0.70512,-1.31778 -2.22351,-3.81774 -4.93784,-5.5123 -7.46218,-6.139265 -3.45176,-0.857308 -6.42584,0.235505 -7.4266,0.672175 a 70.432335,70.432335 0 0 0 -3.71133,-4.743682 c -1.38175,-8.493722 7.97181,-6.167066 7.97181,-6.167066 -0.34121,-0.390063 -0.68192,-0.752844 -1.02184,-1.090199 -2.09056,-2.074779 -4.14782,-3.181562 -6.05746,-3.674795 -4.77602,-1.233577 -8.58971,1.347339 -9.73952,2.248049 a 70.432335,70.432335 0 0 0 -4.8132,-3.624406 c -3.53012,-7.844425 6.10512,-8.017567 6.10512,-8.017567 -0.43054,-0.288461 -0.85343,-0.550494 -1.26909,-0.788376 -1.27816,-0.731501 -2.48566,-1.231354 -3.62009,-1.546188 -6.79536,-1.88589 -10.94496,2.844794 -12.00832,4.256244 A 70.432335,70.432335 0 0 0 143.324,75.177747 c -5.43091,-6.659627 3.82619,-9.319948 3.82619,-9.319948 -0.49053,-0.167201 -0.96707,-0.310761 -1.43011,-0.432953 z m -8.60109,11.51049 a 66.909805,66.909805 0 0 1 47.31224,81.947204 66.909805,66.909805 0 0 1 -81.94734,47.31274 66.909805,66.909805 0 0 1 -47.312599,-81.94784 66.909805,66.909805 0 0 1 81.947699,-47.312104 z"
       inkscape:label="teeth_saw" /></g></svg>
