<?xml version="1.0" encoding="UTF-8" standalone="no"?>
<!-- Created with Inkscape (http://www.inkscape.org/) -->

<svg
   width="250"
   height="125"
   viewBox="0 0 66.145831 33.072916"
   version="1.1"
   id="svg5"
   sodipodi:docname="disk_off_icon_pressed.svg"
   inkscape:export-filename="disk_on_icon_pressed.png"
   inkscape:export-xdpi="96"
   inkscape:export-ydpi="96"
   inkscape:version="1.2.2 (b0a8486541, 2022-12-01)"
   xml:space="preserve"
   xmlns:inkscape="http://www.inkscape.org/namespaces/inkscape"
   xmlns:sodipodi="http://sodipodi.sourceforge.net/DTD/sodipodi-0.dtd"
   xmlns:xlink="http://www.w3.org/1999/xlink"
   xmlns="http://www.w3.org/2000/svg"
   xmlns:svg="http://www.w3.org/2000/svg"><sodipodi:namedview
     id="namedview7"
     pagecolor="#ffffff"
     bordercolor="#000000"
     borderopacity="0.25"
     inkscape:showpageshadow="2"
     inkscape:pageopacity="0.0"
     inkscape:pagecheckerboard="0"
     inkscape:deskcolor="#d1d1d1"
     inkscape:document-units="mm"
     showgrid="false"
     showguides="true"
     inkscape:zoom="2.4651961"
     inkscape:cx="132.03818"
     inkscape:cy="48.677669"
     inkscape:window-width="1920"
     inkscape:window-height="1029"
     inkscape:window-x="0"
     inkscape:window-y="27"
     inkscape:window-maximized="1"
     inkscape:current-layer="layer1" /><defs
     id="defs2"><linearGradient
       inkscape:collect="always"
       id="linearGradient13774"><stop
         style="stop-color:#b7b7c8;stop-opacity:1;"
         offset="0"
         id="stop13770" /><stop
         style="stop-color:#ffdd55;stop-opacity:1;"
         offset="1"
         id="stop13772" /></linearGradient><filter
       inkscape:collect="always"
       style="color-interpolation-filters:sRGB"
       id="filter13127"
       x="-0.036082763"
       y="-0.071671213"
       width="1.0721655"
       height="1.1433424"><feGaussianBlur
         inkscape:collect="always"
         stdDeviation="0.91919119"
         id="feGaussianBlur13129" /></filter><linearGradient
       inkscape:collect="always"
       xlink:href="#linearGradient13774"
       id="linearGradient13776"
       x1="52.154449"
       y1="0.95052207"
       x2="9.015748"
       y2="31.371679"
       gradientUnits="userSpaceOnUse" /></defs><g
     inkscape:label="Capa 1"
     inkscape:groupmode="layer"
     id="layer1"><rect
       style="display:inline;opacity:0.5;fill:#000000;fill-opacity:1;stroke-width:0.555994;stroke-linecap:round;stroke-linejoin:round;filter:url(#filter13127)"
       id="rect13119"
       width="61.138855"
       height="30.780264"
       x="2.5795803"
       y="1.6667871"
       ry="2.3674064" /><rect
       style="display:inline;fill:url(#linearGradient13776);fill-opacity:1;stroke-width:0.550077;stroke-linecap:round;stroke-linejoin:round"
       id="rect1946"
       width="60.550789"
       height="30.421158"
       x="2.0504038"
       y="0.95052207"
       ry="2.3397861"
       transform="translate(0.52916667,0.52916667)" /><path
       style="fill:#333333;stroke:none;stroke-width:0.15872;fill-opacity:1"
       d="m 32.855583,11.984691 c -6.818444,0 -12.333902,5.514211 -12.333902,12.332664 0,1.265312 0.190477,2.485514 0.543427,3.634109 h 7.439028 a 5.6755921,5.6755921 0 0 1 -1.324623,-3.634109 5.6755921,5.6755921 0 0 1 5.675452,-5.675761 5.6755921,5.6755921 0 0 1 5.675754,5.675761 5.6755921,5.6755921 0 0 1 -1.324308,3.634109 h 7.438714 c 0.352871,-1.148574 0.543122,-2.368824 0.543122,-3.634109 0,-6.818453 -5.51421,-12.332664 -12.332664,-12.332664 z"
       id="path8691" /><path
       style="fill:#aa0000;stroke:none;stroke-width:0.15872;fill-opacity:1"
       d="m 31.741449,4.8662031 c -0.726751,0.04171 -1.450594,0.124087 -2.168127,0.246759 0.854066,0.7286348 1.271681,2.7440765 0.545288,3.7959279 -0.255802,0.3704137 -0.868061,0.2839377 -1.318114,0.2938787 -2.246201,0.0496 -2.084797,-2.7432495 -6.637062,-1.1748944 -0.608098,0.3993921 -1.193365,0.8325197 -1.753042,1.2973434 1.10388,0.2039701 2.472981,1.7406503 2.369939,3.0147323 -0.03628,0.448591 -0.609485,0.679957 -0.994166,0.913565 -1.920271,1.166131 -3.176828,-1.333698 -6.335124,2.300497 -0.326948,0.64995 -0.617252,1.317702 -0.869545,2.000108 1.058082,-0.375154 3.012027,0.271037 3.55971,1.425993 0.192905,0.406801 -0.188089,0.893888 -0.404548,1.288663 -1.080043,1.969771 -3.417916,0.433497 -4.335945,5.159302 0.04184,0.726448 0.124326,1.449982 0.247068,2.167199 0.728637,-0.853949 2.743826,-1.271249 3.795619,-0.544977 0.263732,0.182107 0.295132,0.544858 0.295429,0.901164 h 2.078536 c -0.322433,-1.156725 -0.495376,-2.375413 -0.495376,-3.634109 0,-7.466853 6.06675,-13.532356 13.533594,-13.532356 7.466857,0 13.532354,6.065503 13.532354,13.532356 0,1.258696 -0.173001,2.477384 -0.495378,3.634109 h 2.360636 c 1.166696,-1.355885 3.218051,-0.406425 4.056021,-4.781105 -0.04235,-0.717284 -0.124302,-1.431685 -0.24552,-2.139918 -0.724971,0.853432 -2.739529,1.286881 -3.792516,0.562647 -0.375016,-0.257933 -0.285328,-0.877963 -0.296048,-1.332994 -0.05309,-2.253862 2.737039,-2.106988 1.153809,-6.664342 -0.395304,-0.600746 -0.823543,-1.17916 -1.282772,-1.73258 -0.200727,1.101591 -1.7283,2.485625 -3.002643,2.385437 -0.453867,-0.03568 -0.686495,-0.61754 -0.923485,-1.006255 C 42.745499,11.315863 45.238608,10.047028 41.583274,6.8895613 40.94198,6.5687142 40.283464,6.2834925 39.610756,6.0352065 39.987506,7.0898229 39.355337,9.0521448 38.201192,9.6017344 37.790613,9.7972494 37.298853,9.4099787 36.900129,9.1912977 34.932649,8.1122303 36.446473,5.7801469 31.741449,4.8662031 Z"
       id="path234" /></g></svg>
