<?xml version="1.0" encoding="UTF-8" standalone="no"?>
<!-- Created with Inkscape (http://www.inkscape.org/) -->

<svg
   width="250"
   height="125"
   viewBox="0 0 66.145831 33.072916"
   version="1.1"
   id="svg5"
   sodipodi:docname="left_head_angle_90_icon_pressed.svg"
   inkscape:export-filename="left_head_angle_90_icon_pressed.png"
   inkscape:export-xdpi="96"
   inkscape:export-ydpi="96"
   inkscape:version="1.2.2 (b0a8486541, 2022-12-01)"
   xmlns:inkscape="http://www.inkscape.org/namespaces/inkscape"
   xmlns:sodipodi="http://sodipodi.sourceforge.net/DTD/sodipodi-0.dtd"
   xmlns:xlink="http://www.w3.org/1999/xlink"
   xmlns="http://www.w3.org/2000/svg"
   xmlns:svg="http://www.w3.org/2000/svg">
  <sodipodi:namedview
     id="namedview7"
     pagecolor="#ffffff"
     bordercolor="#000000"
     borderopacity="0.25"
     inkscape:showpageshadow="2"
     inkscape:pageopacity="0.0"
     inkscape:pagecheckerboard="0"
     inkscape:deskcolor="#d1d1d1"
     inkscape:document-units="mm"
     showgrid="false"
     showguides="true"
     inkscape:zoom="2.8284271"
     inkscape:cx="91.393552"
     inkscape:cy="60.45763"
     inkscape:window-width="1920"
     inkscape:window-height="1029"
     inkscape:window-x="0"
     inkscape:window-y="27"
     inkscape:window-maximized="1"
     inkscape:current-layer="layer1" />
  <defs
     id="defs2">
    <linearGradient
       inkscape:collect="always"
       id="linearGradient13774">
      <stop
         style="stop-color:#b7b7c8;stop-opacity:1;"
         offset="0"
         id="stop13770" />
      <stop
         style="stop-color:#ffdd55;stop-opacity:1;"
         offset="1"
         id="stop13772" />
    </linearGradient>
    <filter
       inkscape:collect="always"
       style="color-interpolation-filters:sRGB"
       id="filter13127"
       x="-0.036082763"
       y="-0.071671213"
       width="1.0721655"
       height="1.1433424">
      <feGaussianBlur
         inkscape:collect="always"
         stdDeviation="0.91919119"
         id="feGaussianBlur13129" />
    </filter>
    <linearGradient
       inkscape:collect="always"
       xlink:href="#linearGradient13774"
       id="linearGradient13776"
       x1="52.154449"
       y1="0.95052207"
       x2="9.015748"
       y2="31.371679"
       gradientUnits="userSpaceOnUse" />
    <filter
       inkscape:collect="always"
       style="color-interpolation-filters:sRGB"
       id="filter13799"
       x="-0.19200001"
       y="-0.19200001"
       width="1.384"
       height="1.384">
      <feGaussianBlur
         inkscape:collect="always"
         stdDeviation="1.8481197"
         id="feGaussianBlur13801" />
    </filter>
    <filter
       inkscape:collect="always"
       style="color-interpolation-filters:sRGB"
       id="filter5850"
       x="-0.25728255"
       y="-0.19757697"
       width="1.5145651"
       height="1.3951539">
      <feGaussianBlur
         inkscape:collect="always"
         stdDeviation="0.21575447"
         id="feGaussianBlur5852" />
    </filter>
    <filter
       inkscape:collect="always"
       style="color-interpolation-filters:sRGB"
       id="filter5854"
       x="-0.24869936"
       y="-0.19732189"
       width="1.4973987"
       height="1.3946438">
      <feGaussianBlur
         inkscape:collect="always"
         stdDeviation="0.21575447"
         id="feGaussianBlur5856" />
    </filter>
    <filter
       inkscape:collect="always"
       style="color-interpolation-filters:sRGB"
       id="filter5858"
       x="-0.45893732"
       y="-0.4589361"
       width="1.9178746"
       height="1.9178722">
      <feGaussianBlur
         inkscape:collect="always"
         stdDeviation="0.21575447"
         id="feGaussianBlur5860" />
    </filter>
    <filter
       inkscape:collect="always"
       style="color-interpolation-filters:sRGB"
       id="filter5862"
       x="-0.085214904"
       y="-0.085214904"
       width="1.1704298"
       height="1.1704298">
      <feGaussianBlur
         inkscape:collect="always"
         stdDeviation="0.21575447"
         id="feGaussianBlur5864" />
    </filter>
    <filter
       inkscape:collect="always"
       style="color-interpolation-filters:sRGB"
       id="filter5866"
       x="-0.10930494"
       y="-0.11848948"
       width="1.2186099"
       height="1.236979">
      <feGaussianBlur
         inkscape:collect="always"
         stdDeviation="0.21575447"
         id="feGaussianBlur5868" />
    </filter>
  </defs>
  <g
     inkscape:label="Capa 1"
     inkscape:groupmode="layer"
     id="layer1">
    <rect
       style="display:inline;opacity:0.5;fill:#000000;fill-opacity:1;stroke-width:0.555994;stroke-linecap:round;stroke-linejoin:round;filter:url(#filter13127)"
       id="rect13119"
       width="61.138855"
       height="30.780264"
       x="2.5795803"
       y="1.6667871"
       ry="2.3674064" />
    <g
       id="g5932"
       transform="translate(0.52916667,0.52916667)">
      <rect
         style="display:inline;fill:url(#linearGradient13776);fill-opacity:1;stroke-width:0.550077;stroke-linecap:round;stroke-linejoin:round"
         id="rect1946"
         width="60.550789"
         height="30.421158"
         x="2.0504038"
         y="0.95052207"
         ry="2.3397861" />
      <circle
         style="display:inline;opacity:0.8;fill:#4a5c5e;fill-opacity:1;stroke:none;stroke-width:0.498757;stroke-linecap:round;stroke-linejoin:round;filter:url(#filter13799)"
         id="circle13797"
         cx="32.325798"
         cy="16.1611"
         r="11.550748" />
      <circle
         style="display:inline;fill:#4a5c5e;fill-opacity:1;stroke:none;stroke-width:0.498757;stroke-linecap:round;stroke-linejoin:round"
         id="path1207"
         cx="32.325798"
         cy="16.1611"
         r="11.550748" />
      <path
         d="m 26.729938,13.034599 v -0.467578 q 0.155859,0.07285 0.298165,0.110118 0.142306,0.03558 0.281224,0.03558 0.291389,0 0.454024,-0.160942 0.162636,-0.162635 0.191436,-0.48113 -0.1152,0.08471 -0.245647,0.127059 -0.130448,0.04235 -0.282919,0.04235 -0.387953,0 -0.626824,-0.225318 -0.237177,-0.227012 -0.237177,-0.596331 0,-0.408283 0.264282,-0.653931 0.265977,-0.245647 0.711531,-0.245647 0.494684,0 0.765743,0.333742 0.271059,0.333742 0.271059,0.943625 0,0.626825 -0.3168,0.985979 -0.316801,0.357459 -0.869084,0.357459 -0.177883,0 -0.340519,-0.02711 -0.162635,-0.02541 -0.318494,-0.07793 z m 0.804707,-1.218073 q 0.171106,0 0.257506,-0.110118 0.0864,-0.111812 0.0864,-0.333742 0,-0.220236 -0.0864,-0.332048 -0.0864,-0.111812 -0.257506,-0.111812 -0.171106,0 -0.257506,0.111812 -0.0864,0.111812 -0.0864,0.332048 0,0.22193 0.0864,0.333742 0.0864,0.110118 0.257506,0.110118 z"
         style="font-size:3.46956px;font-family:NordiquePro-Bold;-inkscape-font-specification:'sans-serif, Bold';opacity:0.8;fill:#000000;stroke:none;stroke-width:0.775775;stroke-linecap:round;stroke-linejoin:round;filter:url(#filter5850)"
         id="path5812" />
      <path
         d="m 30.392627,11.823302 q 0,-0.474354 -0.08979,-0.667484 -0.08809,-0.194824 -0.298165,-0.194824 -0.210071,0 -0.29986,0.194824 -0.08979,0.19313 -0.08979,0.667484 0,0.479436 0.08979,0.675954 0.08979,0.196518 0.29986,0.196518 0.208377,0 0.298165,-0.196518 0.08979,-0.196518 0.08979,-0.675954 z m 0.652237,0.0051 q 0,0.628519 -0.271059,0.970732 -0.27106,0.340518 -0.769131,0.340518 -0.499766,0 -0.770825,-0.340518 -0.27106,-0.342213 -0.27106,-0.970732 0,-0.630213 0.27106,-0.970731 0.271059,-0.342212 0.770825,-0.342212 0.498071,0 0.769131,0.342212 0.271059,0.340518 0.271059,0.970731 z"
         style="font-size:3.46956px;font-family:NordiquePro-Bold;-inkscape-font-specification:'sans-serif, Bold';opacity:0.8;fill:#000000;stroke:none;stroke-width:0.775775;stroke-linecap:round;stroke-linejoin:round;filter:url(#filter5854)"
         id="path5814" />
      <path
         d="m 32.078278,10.766171 q -0.121977,0 -0.206683,0.08471 -0.08471,0.08471 -0.08471,0.206682 0,0.121977 0.08301,0.204989 0.08471,0.08301 0.208377,0.08301 0.121977,0 0.206683,-0.08301 0.08471,-0.08471 0.08471,-0.204989 0,-0.121976 -0.0864,-0.206682 -0.08471,-0.08471 -0.204989,-0.08471 z m 0,-0.274448 q 0.111812,0 0.215153,0.04405 0.103342,0.04235 0.184659,0.121977 0.07962,0.08132 0.120283,0.182965 0.04235,0.101647 0.04235,0.216847 0,0.113506 -0.04235,0.216848 -0.04066,0.101647 -0.116894,0.177883 -0.08132,0.08132 -0.186354,0.125365 -0.105035,0.04235 -0.220235,0.04235 -0.238871,0 -0.401507,-0.160942 -0.160942,-0.162636 -0.160942,-0.401507 0,-0.238871 0.162636,-0.401506 0.16433,-0.16433 0.403201,-0.16433 z"
         style="font-size:3.46956px;font-family:NordiquePro-Bold;-inkscape-font-specification:'sans-serif, Bold';display:inline;opacity:0.8;fill:#000000;stroke:none;stroke-width:0.775775;stroke-linecap:round;stroke-linejoin:round;filter:url(#filter5858)"
         id="path5816"
         inkscape:label="path5816" />
      <rect
         style="display:inline;opacity:0.8;fill:#000000;stroke:none;stroke-width:2.45638;stroke-linecap:round;stroke-linejoin:round;stroke-dasharray:none;filter:url(#filter5862)"
         id="rect5825"
         width="6.0765276"
         height="6.0765276"
         x="31.7362"
         y="14.740134"
         ry="0.99236679" />
      <path
         style="opacity:0.8;fill:none;stroke:#000000;stroke-width:1.20407;stroke-linecap:round;stroke-linejoin:round;stroke-dasharray:none;filter:url(#filter5866)"
         d="M 27.203221,20.544776 H 37.448373 V 11.093762"
         id="path5827" />
      <rect
         style="display:inline;opacity:0.8;fill:#ffffff;stroke:none;stroke-width:2.45638;stroke-linecap:round;stroke-linejoin:round;stroke-dasharray:none"
         id="rect1348"
         width="6.0765276"
         height="6.0765276"
         x="31.7362"
         y="14.740134"
         ry="0.99236679" />
      <path
         style="display:inline;opacity:1;fill:none;stroke:#000000;stroke-width:1.20407;stroke-linecap:round;stroke-linejoin:round;stroke-dasharray:none"
         d="M 27.203221,20.544776 H 37.448373 V 11.093762"
         id="path582" />
      <path
         d="m 26.729938,13.034599 v -0.467578 q 0.155859,0.07285 0.298165,0.110118 0.142306,0.03558 0.281224,0.03558 0.291389,0 0.454024,-0.160942 0.162636,-0.162635 0.191436,-0.48113 -0.1152,0.08471 -0.245647,0.127059 -0.130448,0.04235 -0.282919,0.04235 -0.387953,0 -0.626824,-0.225318 -0.237177,-0.227012 -0.237177,-0.596331 0,-0.408283 0.264282,-0.653931 0.265977,-0.245647 0.711531,-0.245647 0.494684,0 0.765743,0.333742 0.271059,0.333742 0.271059,0.943625 0,0.626825 -0.3168,0.985979 -0.316801,0.357459 -0.869084,0.357459 -0.177883,0 -0.340519,-0.02711 -0.162635,-0.02541 -0.318494,-0.07793 z m 0.804707,-1.218073 q 0.171106,0 0.257506,-0.110118 0.0864,-0.111812 0.0864,-0.333742 0,-0.220236 -0.0864,-0.332048 -0.0864,-0.111812 -0.257506,-0.111812 -0.171106,0 -0.257506,0.111812 -0.0864,0.111812 -0.0864,0.332048 0,0.22193 0.0864,0.333742 0.0864,0.110118 0.257506,0.110118 z"
         style="font-size:3.46956px;font-family:NordiquePro-Bold;-inkscape-font-specification:'sans-serif, Bold';display:inline;opacity:0.8;fill:#ffffff;stroke-width:0.775775;stroke-linecap:round;stroke-linejoin:round"
         id="path5829" />
      <path
         d="m 30.392627,11.823302 q 0,-0.474354 -0.08979,-0.667484 -0.08809,-0.194824 -0.298165,-0.194824 -0.210071,0 -0.29986,0.194824 -0.08979,0.19313 -0.08979,0.667484 0,0.479436 0.08979,0.675954 0.08979,0.196518 0.29986,0.196518 0.208377,0 0.298165,-0.196518 0.08979,-0.196518 0.08979,-0.675954 z m 0.652237,0.0051 q 0,0.628519 -0.271059,0.970732 -0.27106,0.340518 -0.769131,0.340518 -0.499766,0 -0.770825,-0.340518 -0.27106,-0.342213 -0.27106,-0.970732 0,-0.630213 0.27106,-0.970731 0.271059,-0.342212 0.770825,-0.342212 0.498071,0 0.769131,0.342212 0.271059,0.340518 0.271059,0.970731 z"
         style="font-size:3.46956px;font-family:NordiquePro-Bold;-inkscape-font-specification:'sans-serif, Bold';display:inline;opacity:0.8;fill:#ffffff;stroke-width:0.775775;stroke-linecap:round;stroke-linejoin:round"
         id="path5831" />
      <path
         d="m 32.078278,10.766171 q -0.121977,0 -0.206683,0.08471 -0.08471,0.08471 -0.08471,0.206682 0,0.121977 0.08301,0.204989 0.08471,0.08301 0.208377,0.08301 0.121977,0 0.206683,-0.08301 0.08471,-0.08471 0.08471,-0.204989 0,-0.121976 -0.0864,-0.206682 -0.08471,-0.08471 -0.204989,-0.08471 z m 0,-0.274448 q 0.111812,0 0.215153,0.04405 0.103342,0.04235 0.184659,0.121977 0.07962,0.08132 0.120283,0.182965 0.04235,0.101647 0.04235,0.216847 0,0.113506 -0.04235,0.216848 -0.04066,0.101647 -0.116894,0.177883 -0.08132,0.08132 -0.186354,0.125365 -0.105035,0.04235 -0.220235,0.04235 -0.238871,0 -0.401507,-0.160942 -0.160942,-0.162636 -0.160942,-0.401507 0,-0.238871 0.162636,-0.401506 0.16433,-0.16433 0.403201,-0.16433 z"
         style="font-size:3.46956px;font-family:NordiquePro-Bold;-inkscape-font-specification:'sans-serif, Bold';display:inline;opacity:0.8;fill:#ffffff;stroke-width:0.775775;stroke-linecap:round;stroke-linejoin:round"
         id="path5833" />
    </g>
  </g>
</svg>
