<?xml version="1.0" encoding="UTF-8" standalone="no"?>
<!-- Created with Inkscape (http://www.inkscape.org/) -->

<svg
   width="250"
   height="125"
   viewBox="0 0 66.145831 33.072916"
   version="1.1"
   id="svg5"
   sodipodi:docname="open_cut_list_csv.svg"
   inkscape:export-filename="play_icon.png"
   inkscape:export-xdpi="96"
   inkscape:export-ydpi="96"
   inkscape:version="1.2.2 (b0a8486541, 2022-12-01)"
   xml:space="preserve"
   xmlns:inkscape="http://www.inkscape.org/namespaces/inkscape"
   xmlns:sodipodi="http://sodipodi.sourceforge.net/DTD/sodipodi-0.dtd"
   xmlns:xlink="http://www.w3.org/1999/xlink"
   xmlns="http://www.w3.org/2000/svg"
   xmlns:svg="http://www.w3.org/2000/svg"><sodipodi:namedview
     id="namedview7"
     pagecolor="#ffffff"
     bordercolor="#000000"
     borderopacity="0.25"
     inkscape:showpageshadow="2"
     inkscape:pageopacity="0.0"
     inkscape:pagecheckerboard="0"
     inkscape:deskcolor="#d1d1d1"
     inkscape:document-units="mm"
     showgrid="false"
     showguides="true"
     inkscape:zoom="3.4863138"
     inkscape:cx="98.814973"
     inkscape:cy="64.824917"
     inkscape:window-width="1920"
     inkscape:window-height="1029"
     inkscape:window-x="0"
     inkscape:window-y="27"
     inkscape:window-maximized="1"
     inkscape:current-layer="layer1" /><defs
     id="defs2"><linearGradient
       inkscape:collect="always"
       id="linearGradient13774"><stop
         style="stop-color:#b7b7c8;stop-opacity:1;"
         offset="0"
         id="stop13770" /><stop
         style="stop-color:#ffdd55;stop-opacity:1;"
         offset="1"
         id="stop13772" /></linearGradient><filter
       inkscape:collect="always"
       style="color-interpolation-filters:sRGB"
       id="filter13127"
       x="-0.036082763"
       y="-0.071671213"
       width="1.0721655"
       height="1.1433424"><feGaussianBlur
         inkscape:collect="always"
         stdDeviation="0.91919119"
         id="feGaussianBlur13129" /></filter><linearGradient
       inkscape:collect="always"
       xlink:href="#linearGradient13774"
       id="linearGradient13776"
       x1="52.154449"
       y1="0.95052207"
       x2="9.015748"
       y2="31.371679"
       gradientUnits="userSpaceOnUse" /><filter
       inkscape:collect="always"
       style="color-interpolation-filters:sRGB"
       id="filter2423"
       x="-0.048554878"
       y="-0.047457657"
       width="1.0971098"
       height="1.0949153"><feGaussianBlur
         inkscape:collect="always"
         stdDeviation="10.1156"
         id="feGaussianBlur2425" /></filter><filter
       inkscape:collect="always"
       style="color-interpolation-filters:sRGB"
       id="filter4138"
       x="-0.095076387"
       y="-0.063802162"
       width="1.1901528"
       height="1.1276043"><feGaussianBlur
         inkscape:collect="always"
         stdDeviation="0.368306"
         id="feGaussianBlur4140" /></filter><filter
       inkscape:collect="always"
       style="color-interpolation-filters:sRGB"
       id="filter4142"
       x="-0.057045774"
       y="-0.041430369"
       width="1.1140915"
       height="1.0828607"><feGaussianBlur
         inkscape:collect="always"
         stdDeviation="0.368306"
         id="feGaussianBlur4144" /></filter></defs><g
     inkscape:label="Capa 1"
     inkscape:groupmode="layer"
     id="layer1"><rect
       style="display:inline;opacity:0.5;fill:#000000;fill-opacity:1;stroke-width:0.555994;stroke-linecap:round;stroke-linejoin:round;filter:url(#filter13127)"
       id="rect13119"
       width="61.138855"
       height="30.780264"
       x="2.5795803"
       y="1.6667871"
       ry="2.3674064" /><rect
       style="display:inline;fill:url(#linearGradient13776);fill-opacity:1;stroke-width:0.550077;stroke-linecap:round;stroke-linejoin:round"
       id="rect1946"
       width="60.550789"
       height="30.421158"
       x="2.0504038"
       y="0.95052207"
       ry="2.3397861" /><g
       style="clip-rule:evenodd;display:inline;opacity:0.800028;mix-blend-mode:normal;fill:#000200;fill-opacity:1;fill-rule:evenodd;filter:url(#filter2423);image-rendering:optimizeQuality;shape-rendering:geometricPrecision;text-rendering:geometricPrecision"
       id="g2413"
       transform="matrix(0.05018188,0,0,0.05018188,16.244537,3.8547465)"><path
         fill-rule="nonzero"
         d="m 117.91,0 h 201.68 c 3.93,0 7.44,1.83 9.72,4.67 l 114.28,123.67 c 2.21,2.37 3.27,5.4 3.27,8.41 l 0.06,310 c 0,35.43 -29.4,64.81 -64.8,64.81 H 117.91 C 82.34,511.56 53.1,482.32 53.1,446.75 V 64.8 C 53.1,29.13 82.23,0 117.91,0 Z M 325.5,37.15 v 52.94 c 2.4,31.34 23.57,42.99 52.93,43.5 l 36.16,-0.04 z m 96.5,121.3 -43.77,-0.04 C 335.64,157.73 304.11,136.44 300.69,91.87 L 300.6,24.92 H 117.91 c -21.93,0 -39.89,17.96 -39.89,39.88 v 381.95 c 0,21.82 18.07,39.89 39.89,39.89 h 264.21 c 21.71,0 39.88,-18.15 39.88,-39.89 z"
         id="path2407"
         style="fill:#000200;fill-opacity:1" /><path
         fill="#ff0000"
         d="m 28.04,194.61 h 443.92 c 15.43,0 28.04,12.63 28.04,28.04 v 188.54 c 0,15.4 -12.63,28.04 -28.04,28.04 H 28.04 C 12.64,439.23 0,426.61 0,411.19 V 222.65 c 0,-15.43 12.62,-28.04 28.04,-28.04 z"
         id="path2409"
         style="fill:#000200;fill-opacity:1" /><path
         fill="#ffffff"
         fill-rule="nonzero"
         d="m 169.8,342.75 2.9,32.5 c -8.12,3.36 -18.31,5.04 -30.57,5.04 -12.25,0 -22.09,-1.29 -29.51,-3.87 -7.41,-2.58 -13.25,-6.65 -17.51,-12.19 -4.25,-5.55 -7.22,-12.06 -8.9,-19.55 -1.67,-7.48 -2.51,-16.7 -2.51,-27.67 0,-10.96 0.84,-20.21 2.51,-27.76 1.68,-7.55 4.65,-14.09 8.9,-19.64 8.26,-10.71 23.42,-16.06 45.47,-16.06 4.91,0 10.68,0.48 17.32,1.45 6.64,0.97 11.58,2.16 14.8,3.58 l -5.8,29.6 c -8.39,-1.8 -16.06,-2.7 -23.03,-2.7 -6.96,0 -11.8,0.64 -14.51,1.93 -2.71,1.29 -4.06,3.87 -4.06,7.74 v 50.7 a 75.944,75.944 0 0 0 15.28,1.54 c 10.97,0 20.71,-1.54 29.22,-4.64 z m 17.41,32.5 5.42,-31.92 c 11.87,2.97 22.54,4.45 32.02,4.45 9.49,0 17.13,-0.39 22.93,-1.16 v -9.68 l -17.41,-1.54 c -15.74,-1.42 -26.54,-5.2 -32.41,-11.32 -5.87,-6.13 -8.8,-15.19 -8.8,-27.19 0,-16.51 3.58,-27.86 10.73,-34.05 7.16,-6.19 19.32,-9.29 36.48,-9.29 17.15,0 32.63,1.61 46.44,4.84 l -4.84,30.96 c -12,-1.94 -21.61,-2.91 -28.83,-2.91 -7.23,0 -13.35,0.33 -18.38,0.97 v 9.48 l 13.93,1.36 c 16.9,1.67 28.57,5.7 35.02,12.09 6.45,6.38 9.67,15.25 9.67,26.6 0,8.13 -1.09,15 -3.29,20.61 -2.19,5.61 -4.8,9.87 -7.83,12.77 -3.03,2.9 -7.32,5.13 -12.87,6.68 -5.55,1.54 -10.42,2.48 -14.61,2.8 -4.19,0.33 -9.77,0.49 -16.73,0.49 -16.77,0 -32.32,-1.68 -46.64,-5.04 z m 188.27,-118.8 h 40.83 l -30,120.93 H 329.82 L 299.83,256.45 h 40.82 l 16.45,76.82 h 1.74 z"
         id="path2411"
         style="fill:#000200;fill-opacity:1" /></g><g
       style="clip-rule:evenodd;display:inline;fill-rule:evenodd;image-rendering:optimizeQuality;shape-rendering:geometricPrecision;text-rendering:geometricPrecision"
       id="g2042"
       transform="matrix(0.05018188,0,0,0.05018188,15.71537,3.3255797)"><path
         fill-rule="nonzero"
         d="m 117.91,0 h 201.68 c 3.93,0 7.44,1.83 9.72,4.67 l 114.28,123.67 c 2.21,2.37 3.27,5.4 3.27,8.41 l 0.06,310 c 0,35.43 -29.4,64.81 -64.8,64.81 H 117.91 C 82.34,511.56 53.1,482.32 53.1,446.75 V 64.8 C 53.1,29.13 82.23,0 117.91,0 Z M 325.5,37.15 v 52.94 c 2.4,31.34 23.57,42.99 52.93,43.5 l 36.16,-0.04 z m 96.5,121.3 -43.77,-0.04 C 335.64,157.73 304.11,136.44 300.69,91.87 L 300.6,24.92 H 117.91 c -21.93,0 -39.89,17.96 -39.89,39.88 v 381.95 c 0,21.82 18.07,39.89 39.89,39.89 h 264.21 c 21.71,0 39.88,-18.15 39.88,-39.89 z"
         id="path2027" /><path
         fill="#ff0000"
         d="m 28.04,194.61 h 443.92 c 15.43,0 28.04,12.63 28.04,28.04 v 188.54 c 0,15.4 -12.63,28.04 -28.04,28.04 H 28.04 C 12.64,439.23 0,426.61 0,411.19 V 222.65 c 0,-15.43 12.62,-28.04 28.04,-28.04 z"
         id="path2029"
         style="fill:#4f7eff;fill-opacity:1" /><path
         fill="#ffffff"
         fill-rule="nonzero"
         d="m 169.8,342.75 2.9,32.5 c -8.12,3.36 -18.31,5.04 -30.57,5.04 -12.25,0 -22.09,-1.29 -29.51,-3.87 -7.41,-2.58 -13.25,-6.65 -17.51,-12.19 -4.25,-5.55 -7.22,-12.06 -8.9,-19.55 -1.67,-7.48 -2.51,-16.7 -2.51,-27.67 0,-10.96 0.84,-20.21 2.51,-27.76 1.68,-7.55 4.65,-14.09 8.9,-19.64 8.26,-10.71 23.42,-16.06 45.47,-16.06 4.91,0 10.68,0.48 17.32,1.45 6.64,0.97 11.58,2.16 14.8,3.58 l -5.8,29.6 c -8.39,-1.8 -16.06,-2.7 -23.03,-2.7 -6.96,0 -11.8,0.64 -14.51,1.93 -2.71,1.29 -4.06,3.87 -4.06,7.74 v 50.7 a 75.944,75.944 0 0 0 15.28,1.54 c 10.97,0 20.71,-1.54 29.22,-4.64 z m 17.41,32.5 5.42,-31.92 c 11.87,2.97 22.54,4.45 32.02,4.45 9.49,0 17.13,-0.39 22.93,-1.16 v -9.68 l -17.41,-1.54 c -15.74,-1.42 -26.54,-5.2 -32.41,-11.32 -5.87,-6.13 -8.8,-15.19 -8.8,-27.19 0,-16.51 3.58,-27.86 10.73,-34.05 7.16,-6.19 19.32,-9.29 36.48,-9.29 17.15,0 32.63,1.61 46.44,4.84 l -4.84,30.96 c -12,-1.94 -21.61,-2.91 -28.83,-2.91 -7.23,0 -13.35,0.33 -18.38,0.97 v 9.48 l 13.93,1.36 c 16.9,1.67 28.57,5.7 35.02,12.09 6.45,6.38 9.67,15.25 9.67,26.6 0,8.13 -1.09,15 -3.29,20.61 -2.19,5.61 -4.8,9.87 -7.83,12.77 -3.03,2.9 -7.32,5.13 -12.87,6.68 -5.55,1.54 -10.42,2.48 -14.61,2.8 -4.19,0.33 -9.77,0.49 -16.73,0.49 -16.77,0 -32.32,-1.68 -46.64,-5.04 z m 188.27,-118.8 h 40.83 l -30,120.93 H 329.82 L 299.83,256.45 h 40.82 l 16.45,76.82 h 1.74 z"
         id="path2031" /></g><path
       id="path3981"
       style="display:none;opacity:0.8;fill:#000000;stroke:none;stroke-width:0.0892854;filter:url(#filter4138)"
       d="m 40.691363,9.7645922 c -0.572433,0.0059 -1.153302,0.083115 -1.732194,0.2382278 -0.19138,0.05128 -0.378663,0.110327 -0.561723,0.176217 l 0.107487,0.116272 c 0.110902,0.11893 0.163814,0.270634 0.163814,0.421681 l 5.17e-4,2.903698 h 1.259355 a 3.1927114,3.1927114 0 0 1 3.909838,2.257227 3.1927114,3.1927114 0 0 1 -2.257226,3.910355 3.1927114,3.1927114 0 0 1 -0.24598,0.05271 v 3.777548 c 0.403648,-0.03448 0.809721,-0.103823 1.214913,-0.212391 3.704909,-0.992727 5.898371,-4.791727 4.905644,-8.496639 -0.837613,-3.126013 -3.673309,-5.1767745 -6.764445,-5.1449058 z" /><path
       id="path3983"
       style="opacity:0.8;fill:#000000;stroke:none;stroke-width:0.0892854;filter:url(#filter4142)"
       d="m 41.769333,5.7906745 c 0.357897,0.5203049 0.290993,1.6762416 -0.256832,2.1419882 -0.192956,0.1640462 -0.513104,0.027584 -0.759127,-0.032556 -1.227552,-0.3000703 -0.732919,-1.7937778 -3.434415,-1.6045532 -0.388634,0.128502 -0.770209,0.2784706 -1.142049,0.4495849 0.563119,0.2682648 1.077041,1.2805941 0.856795,1.9580201 l 0.871264,0.9425781 c 0.283653,-0.1142994 0.57675,-0.2134251 0.879533,-0.2945557 4.057228,-1.0871304 8.236333,1.3264291 9.323462,5.3836511 1.087132,4.057231 -1.325907,8.235814 -5.383134,9.322945 -0.463287,0.124138 -0.927904,0.201674 -1.389579,0.237195 v 0.194303 c 0,0.35497 -0.144887,0.671986 -0.364319,0.920358 l 0.05116,0.190686 c 0.906604,0.436533 0.689385,1.689522 3.188436,1.507918 0.38358,-0.127444 0.759883,-0.275952 1.127063,-0.444934 -0.569278,-0.269669 -1.098562,-1.30109 -0.858346,-1.978691 0.08555,-0.241324 0.435925,-0.282942 0.681612,-0.355017 1.216941,-0.356993 1.543119,1.180664 3.788916,-0.343131 0.268871,-0.30226 0.520627,-0.619193 0.754476,-0.949296 -0.627791,0.05132 -1.602128,-0.577655 -1.733227,-1.284676 -0.0467,-0.251809 0.235667,-0.462656 0.412378,-0.648023 0.875782,-0.918691 1.928491,0.251192 3.111954,-2.194698 0.08097,-0.395171 0.139766,-0.794635 0.176734,-1.196309 -0.51819,0.35826 -1.676356,0.30061 -2.143022,-0.246497 -0.166014,-0.194628 -0.02718,-0.518387 0.03359,-0.766878 0.299874,-1.226167 1.787288,-0.743254 1.598869,-3.432866 -0.128476,-0.388818 -0.278461,-0.770027 -0.449585,-1.142049 -0.271569,0.570155 -1.306043,1.090598 -1.983342,0.849044 -0.238513,-0.08506 -0.280472,-0.430248 -0.3514,-0.673344 C 48.023217,11.087585 49.564027,10.768524 48.049053,8.5233243 47.743501,8.251055 47.422959,7.9959795 47.088905,7.7595466 47.138795,8.389053 46.503257,9.3570634 45.795961,9.486573 45.546929,9.5321729 45.337598,9.2543726 45.154656,9.0793627 44.241441,8.2057358 45.417222,7.1590483 42.982696,5.9720588 42.581933,5.8890349 42.176862,5.8284071 41.769333,5.7906745 Z" /><path
       id="path4134"
       style="display:inline;fill:#333333;stroke:none;stroke-width:0.0892854"
       d="m 40.162196,9.2354255 c -0.572433,0.0059 -1.153302,0.083115 -1.732194,0.2382283 -0.19138,0.05128 -0.378663,0.110327 -0.561723,0.176217 l 0.107487,0.116272 c 0.110902,0.11893 0.163814,0.2706332 0.163814,0.4216802 l 5.17e-4,2.903698 h 1.259355 a 3.1927114,3.1927114 0 0 1 3.909838,2.257227 3.1927114,3.1927114 0 0 1 -2.257226,3.910355 3.1927114,3.1927114 0 0 1 -0.24598,0.05271 v 3.777548 c 0.403648,-0.03448 0.809721,-0.103823 1.214913,-0.212391 3.704909,-0.992727 5.898371,-4.791727 4.905644,-8.496639 -0.837613,-3.126013 -3.673309,-5.1767742 -6.764445,-5.1449055 z" /><path
       id="path4136"
       style="display:inline;fill:#aa0000;stroke:none;stroke-width:0.0892854"
       d="M 41.240166,5.2615078 C 41.598063,5.7818127 41.531159,6.9377494 40.983334,7.403496 40.790378,7.5675422 40.47023,7.43108 40.224207,7.37094 38.996655,7.0708697 39.491288,5.5771622 36.789792,5.7663868 c -0.388634,0.128502 -0.770209,0.2784706 -1.142049,0.4495849 0.563119,0.2682648 1.077041,1.2805941 0.856795,1.9580201 l 0.871264,0.9425781 c 0.283653,-0.1142994 0.57675,-0.2134251 0.879533,-0.2945557 4.057228,-1.0871304 8.236333,1.3264288 9.323462,5.3836508 1.087132,4.057231 -1.325907,8.235814 -5.383134,9.322945 -0.463287,0.124138 -0.927904,0.201674 -1.389579,0.237195 v 0.194303 c 0,0.35497 -0.144887,0.671986 -0.364319,0.920358 l 0.05116,0.190686 c 0.906604,0.436533 0.689385,1.689522 3.188436,1.507918 0.38358,-0.127444 0.759883,-0.275952 1.127063,-0.444934 -0.569278,-0.269669 -1.098562,-1.30109 -0.858346,-1.978691 0.08555,-0.241324 0.435925,-0.282942 0.681612,-0.355017 1.216941,-0.356993 1.543119,1.180664 3.788916,-0.343131 0.268871,-0.30226 0.520627,-0.619193 0.754476,-0.949296 -0.627791,0.05132 -1.602128,-0.577655 -1.733227,-1.284676 -0.0467,-0.251809 0.235667,-0.462656 0.412378,-0.648023 0.875782,-0.918691 1.928491,0.251192 3.111954,-2.194698 0.08097,-0.395171 0.139766,-0.794635 0.176734,-1.196309 -0.51819,0.35826 -1.676356,0.30061 -2.143022,-0.246497 -0.166014,-0.194628 -0.02718,-0.518387 0.03359,-0.766878 0.299874,-1.226167 1.787288,-0.743254 1.598869,-3.432866 -0.128476,-0.388818 -0.278461,-0.770027 -0.449585,-1.142049 -0.271569,0.570155 -1.306043,1.090598 -1.983342,0.849044 -0.238513,-0.08506 -0.280472,-0.430248 -0.3514,-0.673344 C 47.49405,10.558418 49.03486,10.239357 47.519886,7.9941576 47.214334,7.7218883 46.893792,7.4668128 46.559738,7.2303799 46.609628,7.8598863 45.97409,8.8278967 45.266794,8.9574063 45.017762,9.0030062 44.808431,8.7252059 44.625489,8.550196 43.712274,7.6765691 44.888055,6.6298816 42.453529,5.4428921 42.052766,5.3598682 41.647695,5.2992404 41.240166,5.2615078 Z" /></g></svg>
