<?xml version="1.0" encoding="UTF-8" standalone="no"?>
<!-- Created with Inkscape (http://www.inkscape.org/) -->

<svg
   width="250"
   height="125"
   viewBox="0 0 66.145831 33.072916"
   version="1.1"
   id="svg5"
   sodipodi:docname="save_cut_list_csv.svg"
   inkscape:export-filename="save_cut_list_csv.png"
   inkscape:export-xdpi="96"
   inkscape:export-ydpi="96"
   inkscape:version="1.2.2 (b0a8486541, 2022-12-01)"
   xml:space="preserve"
   xmlns:inkscape="http://www.inkscape.org/namespaces/inkscape"
   xmlns:sodipodi="http://sodipodi.sourceforge.net/DTD/sodipodi-0.dtd"
   xmlns:xlink="http://www.w3.org/1999/xlink"
   xmlns="http://www.w3.org/2000/svg"
   xmlns:svg="http://www.w3.org/2000/svg"><sodipodi:namedview
     id="namedview7"
     pagecolor="#ffffff"
     bordercolor="#000000"
     borderopacity="0.25"
     inkscape:showpageshadow="2"
     inkscape:pageopacity="0.0"
     inkscape:pagecheckerboard="0"
     inkscape:deskcolor="#d1d1d1"
     inkscape:document-units="mm"
     showgrid="false"
     showguides="true"
     inkscape:zoom="3.4863138"
     inkscape:cx="114.73436"
     inkscape:cy="92.361164"
     inkscape:window-width="1920"
     inkscape:window-height="1029"
     inkscape:window-x="0"
     inkscape:window-y="27"
     inkscape:window-maximized="1"
     inkscape:current-layer="layer1" /><defs
     id="defs2"><linearGradient
       inkscape:collect="always"
       id="linearGradient13774"><stop
         style="stop-color:#b7b7c8;stop-opacity:1;"
         offset="0"
         id="stop13770" /><stop
         style="stop-color:#ffdd55;stop-opacity:1;"
         offset="1"
         id="stop13772" /></linearGradient><filter
       inkscape:collect="always"
       style="color-interpolation-filters:sRGB"
       id="filter13127"
       x="-0.036082763"
       y="-0.071671213"
       width="1.0721655"
       height="1.1433424"><feGaussianBlur
         inkscape:collect="always"
         stdDeviation="0.91919119"
         id="feGaussianBlur13129" /></filter><linearGradient
       inkscape:collect="always"
       xlink:href="#linearGradient13774"
       id="linearGradient13776"
       x1="52.154449"
       y1="0.95052207"
       x2="9.015748"
       y2="31.371679"
       gradientUnits="userSpaceOnUse" /><filter
       inkscape:collect="always"
       style="color-interpolation-filters:sRGB"
       id="filter4138"
       x="-0.095076387"
       y="-0.063802162"
       width="1.1901528"
       height="1.1276043"><feGaussianBlur
         inkscape:collect="always"
         stdDeviation="0.368306"
         id="feGaussianBlur4140" /></filter><filter
       inkscape:collect="always"
       style="color-interpolation-filters:sRGB"
       id="filter13192"
       x="-0.063629165"
       y="-0.060537855"
       width="1.1272583"
       height="1.1209697"><feGaussianBlur
         inkscape:collect="always"
         stdDeviation="0.42889889"
         id="feGaussianBlur13194" /></filter><filter
       inkscape:collect="always"
       style="color-interpolation-filters:sRGB"
       id="filter13334"
       x="-0.054420653"
       y="-0.042934504"
       width="1.1088413"
       height="1.085869"><feGaussianBlur
         inkscape:collect="always"
         stdDeviation="0.4238202"
         id="feGaussianBlur13336" /></filter></defs><g
     inkscape:label="Capa 1"
     inkscape:groupmode="layer"
     id="layer1"><rect
       style="display:inline;opacity:0.5;fill:#000000;fill-opacity:1;stroke-width:0.555994;stroke-linecap:round;stroke-linejoin:round;filter:url(#filter13127)"
       id="rect13119"
       width="61.138855"
       height="30.780264"
       x="2.5795803"
       y="1.6667871"
       ry="2.3674064" /><rect
       style="display:inline;fill:url(#linearGradient13776);fill-opacity:1;stroke-width:0.550077;stroke-linecap:round;stroke-linejoin:round"
       id="rect1946"
       width="60.550789"
       height="30.421158"
       x="2.0504038"
       y="0.95052207"
       ry="2.3397861" /><path
       id="path3981"
       style="display:none;opacity:0.8;fill:#000000;stroke:none;stroke-width:0.0892854;filter:url(#filter4138)"
       d="m 40.691363,9.7645922 c -0.572433,0.0059 -1.153302,0.083115 -1.732194,0.2382278 -0.19138,0.05128 -0.378663,0.110327 -0.561723,0.176217 l 0.107487,0.116272 c 0.110902,0.11893 0.163814,0.270634 0.163814,0.421681 l 5.17e-4,2.903698 h 1.259355 a 3.1927114,3.1927114 0 0 1 3.909838,2.257227 3.1927114,3.1927114 0 0 1 -2.257226,3.910355 3.1927114,3.1927114 0 0 1 -0.24598,0.05271 v 3.777548 c 0.403648,-0.03448 0.809721,-0.103823 1.214913,-0.212391 3.704909,-0.992727 5.898371,-4.791727 4.905644,-8.496639 -0.837613,-3.126013 -3.673309,-5.1767745 -6.764445,-5.1449058 z" /><g
       id="g13266"><path
         id="path234-2"
         style="fill:#000000;fill-opacity:1;stroke:none;stroke-width:0.0966443;opacity:0.8;filter:url(#filter13334)"
         d="m 39.326276,4.9029657 c -0.436752,0.02579 -0.872039,0.07554 -1.30328,0.149345 0.259729,0.220632 0.455874,0.637718 0.531751,1.07952 v 5.17e-4 c 1.45e-4,8.69e-4 3.74e-4,0.0017 5.17e-4,0.0026 0.0014,0.0082 0.0018,0.01656 0.0031,0.02481 0.06748,0.434901 0.01909,0.890305 -0.19792,1.204578 -0.01386,0.02007 -0.02943,0.03837 -0.04651,0.05426 -0.01708,0.01589 -0.03545,0.02967 -0.05529,0.04186 -0.01855,0.0114 -0.03883,0.02088 -0.05943,0.02946 -0.0048,0.0019 -0.0096,0.0039 -0.01447,0.0057 -0.01305,0.005 -0.02661,0.0089 -0.04031,0.01292 -0.01047,0.003 -0.02073,0.0063 -0.03152,0.0088 -0.1733,0.04032 -0.385972,0.02072 -0.559139,0.02481 -1.372368,0.03233 -1.282675,-1.666824 -4.057633,-0.7028 -0.107624,0.07082 -0.213583,0.144298 -0.318844,0.218592 0.507547,0.463921 1.143221,1.061192 2.031401,1.843815 0.258171,0.250521 0.495354,0.482423 0.715202,0.700732 0.587794,-0.338415 1.220433,-0.606726 1.88774,-0.792716 v 5.16e-4 c 0.08002,-0.0223 0.160872,-0.04363 0.241846,-0.06356 0.0172,-0.0042 0.03444,-0.0083 0.05168,-0.0124 0.08022,-0.0192 0.160741,-0.03743 0.241846,-0.05426 0.08788,-0.01824 0.176221,-0.03471 0.2651,-0.05013 0.0086,-0.0015 0.01721,-0.0032 0.02584,-0.0046 0.07185,-0.01223 0.144053,-0.02324 0.216524,-0.03359 0.02308,-0.0033 0.04611,-0.0067 0.06925,-0.0098 0.08059,-0.01081 0.16157,-0.02048 0.242879,-0.02894 0.0023,-2.35e-4 0.0045,-8.34e-4 0.0067,-0.001 0.0031,-3.21e-4 0.0062,-7.5e-4 0.0093,-10e-4 0.08695,-0.0089 0.17427,-0.01557 0.261999,-0.0217 0.0117,-8.18e-4 0.02343,-0.0018 0.03514,-0.0026 0.06592,-0.0043 0.132104,-0.0076 0.198438,-0.01034 0.03198,-0.0013 0.06404,-0.0027 0.09612,-0.0036 0.0831,-0.0025 0.166417,-0.0041 0.250114,-0.0041 0.0837,0 0.167015,0.0016 0.250114,0.0041 0.03208,9.6e-4 0.06414,0.0023 0.09612,0.0036 0.06633,0.0028 0.132515,0.006 0.198437,0.01034 0.01172,7.67e-4 0.02344,0.0018 0.03514,0.0026 0.08773,0.0061 0.175045,0.01283 0.262,0.0217 0.0031,3.15e-4 0.0062,7.48e-4 0.0093,10e-4 0.0023,2.32e-4 0.0045,8.33e-4 0.0067,0.001 0.08165,0.0085 0.162986,0.01807 0.243913,0.02894 0.02188,0.0029 0.04381,0.0062 0.06563,0.0093 0.0763,0.01087 0.152278,0.02271 0.227893,0.03566 0.0045,7.64e-4 0.009,0.0013 0.01344,0.0021 0.09013,0.01559 0.180128,0.03267 0.269234,0.05116 0.08041,0.01669 0.160241,0.03473 0.239779,0.05374 0.01887,0.0045 0.03751,0.0093 0.05633,0.01395 0.08005,0.01974 0.159627,0.04048 0.238746,0.06253 v -5.16e-4 c 3.473776,0.968384 6.027022,4.1589803 6.027022,7.9390513 0,3.780079 -2.553246,6.970327 -6.027022,7.938533 -0.0053,0.0015 -0.01071,0.0027 -0.01602,0.0041 -0.07749,0.02143 -0.155196,0.04177 -0.233578,0.06098 -0.0093,0.0023 -0.01857,0.0045 -0.0279,0.0067 -0.08531,0.02059 -0.171034,0.03996 -0.257349,0.05788 -0.08911,0.01849 -0.179105,0.03557 -0.269234,0.05116 -0.0045,7.71e-4 -0.009,0.0013 -0.01344,0.0021 -0.07562,0.01295 -0.151594,0.02479 -0.227893,0.03566 -0.02182,0.0031 -0.04375,0.0064 -0.06563,0.0093 -0.08093,0.01086 -0.162263,0.02045 -0.243913,0.02894 -0.0023,2.34e-4 -0.0045,8.35e-4 -0.0067,0.001 -0.0031,3.2e-4 -0.0062,7.51e-4 -0.0093,0.001 -0.08165,0.0083 -0.163649,0.01527 -0.24598,0.02119 -0.02337,0.0017 -0.04686,0.0027 -0.07028,0.0041 -0.0646,0.0041 -0.12931,0.0078 -0.194303,0.01033 -0.02546,0.001 -0.05096,0.0018 -0.07648,0.0026 -0.08463,0.0026 -0.16951,0.0041 -0.254764,0.0041 -0.08525,0 -0.170133,-0.0015 -0.254765,-0.0041 -0.02552,-7.77e-4 -0.05102,-0.0016 -0.07648,-0.0026 -0.06499,-0.0026 -0.129705,-0.0062 -0.194304,-0.01033 -0.02342,-0.0015 -0.04691,-0.0025 -0.07028,-0.0041 -0.08233,-0.0059 -0.164331,-0.01286 -0.245979,-0.02119 -0.0031,-3.18e-4 -0.0062,-7.46e-4 -0.0093,-0.001 -0.0023,-2.33e-4 -0.0045,-8.31e-4 -0.0067,-0.001 -0.08131,-0.0085 -0.162286,-0.01813 -0.242879,-0.02894 -0.02314,-0.0031 -0.04617,-0.0065 -0.06925,-0.0098 -0.07247,-0.01035 -0.14467,-0.02136 -0.216524,-0.03359 -0.0086,-0.0015 -0.01722,-0.0032 -0.02584,-0.0047 -0.0043,-7.52e-4 -0.0086,-0.0018 -0.01292,-0.0026 v 0.489376 c 0,0.478158 -0.154431,0.918686 -0.415996,1.275376 0.347687,0.694127 0.423628,1.55795 2.517676,1.964737 0.0055,-3.18e-4 0.01102,-7.41e-4 0.01654,-9.99e-4 0.002,3.74e-4 0.0037,6.92e-4 0.0057,9.99e-4 0.436752,-0.02579 0.871522,-0.07554 1.302763,-0.149344 -0.256453,-0.21785 -0.450235,-0.626886 -0.528133,-1.062469 -0.0011,-0.0062 -0.0026,-0.01236 -0.0036,-0.0186 -0.0019,-0.01165 -0.0029,-0.02346 -0.0047,-0.03514 -0.0067,-0.04428 -0.01334,-0.08881 -0.01757,-0.133325 -0.03704,-0.390028 0.02305,-0.782278 0.216524,-1.062468 0.04067,-0.0589 0.09658,-0.09869 0.16123,-0.125574 0.0048,-0.0019 0.0096,-0.0039 0.01447,-0.0057 0.01306,-0.0049 0.02661,-0.0089 0.04031,-0.01292 0.01047,-0.003 0.02073,-0.0063 0.03152,-0.0088 0.03466,-0.0081 0.07084,-0.01364 0.108004,-0.01757 0.148648,-0.01571 0.312601,-0.0035 0.451135,-0.0067 1.372369,-0.03233 1.282675,1.666307 4.057633,0.702283 0.365793,-0.240699 0.718257,-0.501208 1.055233,-0.780831 -0.670754,-0.122221 -1.513629,-1.052369 -1.452624,-1.828312 0.02172,-0.276357 0.376194,-0.417937 0.612882,-0.56224 1.173035,-0.715175 1.945409,0.802553 3.867981,-1.423169 0.195363,-0.390482 0.369201,-0.79135 0.520382,-1.20096 -0.642154,0.229402 -1.837318,-0.15559 -2.171961,-0.858346 -0.119049,-0.25 0.11696,-0.549418 0.250114,-0.792199 0.657042,-1.197993 2.076935,-0.27602 2.633431,-3.140894 -0.0254,-0.442517 -0.07569,-0.88343 -0.150378,-1.320333 -0.443664,0.520038 -1.670502,0.774062 -2.31097,0.331763 -0.225544,-0.155756 -0.173265,-0.528499 -0.179318,-0.802535 -0.0302,-1.367705 1.670685,-1.269238 0.715719,-4.041098 C 49.700023,9.8684767 49.436096,9.5118737 49.153066,9.1710877 49.02887,9.8432377 48.093305,10.677153 47.31752,10.614411 47.044375,10.592321 46.903725,10.242995 46.761481,10.008763 46.051428,8.8395167 47.573383,8.0747097 45.360533,6.1516337 44.96478,5.9525567 44.558035,5.7755717 44.14252,5.6219507 c 0.22843,0.644263 -0.164915,1.834345 -0.868165,2.167826 -0.247698,0.117459 -0.544071,-0.114694 -0.784448,-0.246496 -1.199388,-0.657636 -0.2644,-2.081165 -3.141927,-2.640149 -0.0053,3.08e-4 -0.01067,7.51e-4 -0.01602,10e-4 -0.002,-3.76e-4 -0.0037,-6.92e-4 -0.0057,-10e-4 z M 35.027314,27.508821 c 0.288135,0.133727 0.581041,0.256222 0.879016,0.366386 -0.03849,-0.108559 -0.05734,-0.233565 -0.06201,-0.366386 z" /><path
         id="path8691"
         style="fill:#333333;fill-opacity:1;stroke:none;stroke-width:0.0966443"
         d="M 39.495264 8.7090291 L 39.495264 8.7095459 C 39.439114 8.7095459 39.383165 8.710355 39.327315 8.711613 C 39.303315 8.712138 39.279425 8.71288 39.255485 8.71368 C 39.225125 8.714634 39.194804 8.7159974 39.164535 8.7172974 C 39.136085 8.7184974 39.107638 8.7199315 39.079268 8.7214315 C 39.026968 8.7243315 38.974692 8.72735 38.922689 8.73125 C 38.920789 8.731393 38.918904 8.7316238 38.917004 8.7317668 C 38.863184 8.7358668 38.809789 8.7404694 38.756291 8.7457194 C 38.733491 8.7479194 38.710808 8.7505541 38.688078 8.7529541 C 38.654118 8.7565541 38.620098 8.7602529 38.586275 8.7643229 C 38.559195 8.7676229 38.532133 8.7711282 38.505143 8.7746582 C 38.457303 8.7809582 38.410063 8.787632 38.362516 8.794812 C 38.327906 8.800012 38.293616 8.8056485 38.259163 8.8113485 C 38.244013 8.8138485 38.228798 8.8165999 38.213688 8.8190999 C 38.181408 8.8245999 38.149193 8.8302132 38.117053 8.8361532 C 38.094253 8.8403532 38.07156 8.8446523 38.04884 8.8490723 C 38.01607 8.8554723 37.983275 8.8618993 37.950655 8.8687093 C 37.907605 8.8777093 37.864755 8.8868946 37.821981 8.8966146 C 37.819581 8.8971596 37.817146 8.8975649 37.814746 8.8981649 L 37.814229 8.8981649 C 37.784109 8.9050649 37.754292 8.912639 37.724312 8.919869 C 37.705692 8.924369 37.687062 8.9286649 37.668502 8.9333049 C 37.629272 8.9431048 37.590182 8.953394 37.551196 8.9637939 C 37.546696 8.9649939 37.5423 8.9662113 37.53776 8.9674113 C 37.49651 8.9784913 37.45522 8.9897478 37.414254 9.0015177 C 37.370204 9.0141777 37.326194 9.0273618 37.282479 9.0407918 C 36.808233 9.1865126 36.354379 9.377882 35.925456 9.6097493 C 37.300911 11.029902 37.775761 11.819235 37.94342 13.138733 A 3.4558569 3.4558569 0 0 1 39.495264 12.763562 A 3.4558569 3.4558569 0 0 1 41.708049 13.569714 L 41.708049 13.566097 A 3.4558569 3.4558569 0 0 1 42.951383 16.219682 A 3.4558569 3.4558569 0 0 1 41.708049 18.873267 L 41.708049 18.868616 A 3.4558569 3.4558569 0 0 1 39.495264 19.675285 A 3.4558569 3.4558569 0 0 1 38.070028 19.361092 L 38.070028 23.593909 C 38.089822 23.597712 38.109577 23.601631 38.129456 23.605278 C 38.149256 23.608878 38.169033 23.61268 38.188883 23.61613 C 38.224923 23.62243 38.261193 23.628416 38.297404 23.634216 C 38.319124 23.637716 38.340736 23.641212 38.362516 23.644552 C 38.369516 23.645652 38.376664 23.646652 38.383704 23.647652 C 38.432574 23.654852 38.481284 23.661516 38.530465 23.667806 C 38.539065 23.668906 38.547693 23.669807 38.556303 23.670907 C 38.600053 23.676307 38.644093 23.681193 38.688078 23.685893 C 38.710818 23.688293 38.733501 23.690927 38.756291 23.693127 C 38.809791 23.698327 38.86318 23.70303 38.917004 23.70708 C 38.966134 23.71078 39.015414 23.714099 39.064799 23.716899 C 39.069599 23.717171 39.074398 23.717152 39.079268 23.717415 C 39.107628 23.718915 39.136085 23.720349 39.164535 23.721549 C 39.194804 23.722849 39.225125 23.724267 39.255485 23.725167 C 39.279425 23.725917 39.303315 23.726634 39.327315 23.727234 C 39.383165 23.728434 39.439118 23.729301 39.495264 23.729301 C 39.551384 23.729301 39.607391 23.728491 39.663212 23.727234 C 39.687532 23.726702 39.711816 23.725967 39.736076 23.725167 C 39.766086 23.724223 39.796063 23.722849 39.825993 23.721549 C 39.856713 23.720249 39.887357 23.719115 39.917977 23.717415 C 39.932157 23.716631 39.946202 23.715732 39.960352 23.714832 C 40.027841 23.710732 40.094895 23.705735 40.16189 23.699845 C 40.17757 23.698445 40.193265 23.697111 40.208915 23.695711 C 40.215315 23.695108 40.221645 23.694344 40.228035 23.693644 C 40.253205 23.691244 40.278383 23.688593 40.303483 23.685893 C 40.344703 23.681493 40.385973 23.67699 40.42699 23.67194 C 40.43937 23.67044 40.451837 23.668372 40.464197 23.666772 C 40.517027 23.659972 40.569845 23.652948 40.622327 23.645068 C 40.628227 23.644187 40.634047 23.643385 40.639897 23.642485 C 40.656647 23.639885 40.673303 23.636916 40.690023 23.634216 C 40.725953 23.628516 40.761753 23.62238 40.79751 23.61613 C 40.81927 23.61233 40.840932 23.608234 40.862622 23.604244 C 40.891232 23.598944 40.919915 23.593804 40.948405 23.588224 C 40.979135 23.582224 41.009799 23.576001 41.040389 23.569621 C 41.085709 23.560121 41.130769 23.550435 41.175781 23.540165 C 41.215731 23.531065 41.255451 23.521483 41.295154 23.511743 C 41.301554 23.510143 41.307914 23.508692 41.314274 23.507092 C 41.357724 23.496312 41.400834 23.485043 41.443982 23.473503 C 41.488272 23.461663 41.532303 23.449442 41.576274 23.436812 C 41.602334 23.429312 41.628355 23.421835 41.654305 23.414075 C 41.672175 23.408775 41.690239 23.403525 41.708049 23.398055 C 44.777559 22.455153 47.004883 19.600573 47.004883 16.219165 C 47.004883 12.837764 44.777559 9.9828484 41.708049 9.0397583 C 41.664339 9.0263283 41.620319 9.013651 41.576274 9.001001 C 41.543454 8.991601 41.510572 8.9826025 41.477572 8.9736125 C 41.456882 8.9680125 41.43632 8.962546 41.41556 8.957076 C 41.39073 8.950576 41.366066 8.943729 41.341146 8.937439 C 41.312446 8.930239 41.283676 8.9231616 41.254846 8.9162516 C 41.228536 8.9099516 41.202201 8.9036681 41.175781 8.8976481 C 41.130901 8.8874181 41.085571 8.8776225 41.040389 8.8681925 C 41.009789 8.8617926 40.979135 8.855599 40.948405 8.849589 C 40.919905 8.843989 40.891232 8.8388193 40.862622 8.8335693 C 40.842642 8.8298693 40.822717 8.8262673 40.802677 8.8227173 C 40.760557 8.8153173 40.718427 8.8082099 40.67607 8.8015299 C 40.66399 8.7996299 40.651997 8.7977455 40.639897 8.7958455 C 40.636097 8.7952695 40.632298 8.7948162 40.628528 8.7942952 C 40.624428 8.7936712 40.620225 8.7928282 40.616125 8.7922282 C 40.565196 8.7846282 40.513911 8.7776208 40.462646 8.7710409 C 40.459346 8.7706209 40.456128 8.7699906 40.452828 8.7694906 C 40.444228 8.7683906 40.43557 8.76749 40.42699 8.76639 C 40.38598 8.76129 40.3447 8.7568873 40.303483 8.7524373 C 40.280443 8.7499373 40.257337 8.7474026 40.234237 8.7452026 C 40.180737 8.7400026 40.127347 8.7353 40.073523 8.73125 C 40.020053 8.72715 39.966592 8.7238547 39.912809 8.7209147 C 39.883909 8.7193147 39.854983 8.7179806 39.825993 8.7167806 C 39.796073 8.7154806 39.766096 8.7140632 39.736076 8.7131632 C 39.711816 8.7124022 39.687532 8.7116962 39.663212 8.7110962 C 39.607392 8.7098962 39.551382 8.7090291 39.495264 8.7090291 z " /><path
         id="path234"
         style="fill:#aa0000;fill-opacity:1;stroke:none;stroke-width:0.0966443"
         d="M 38.797115 4.3738932 C 38.360363 4.3996832 37.925076 4.4494332 37.493835 4.5232381 C 37.753564 4.7438709 37.949709 5.1609562 38.025586 5.6027588 L 38.025586 5.6032756 C 38.025731 5.6041446 38.02596 5.6049594 38.026103 5.6058594 C 38.027503 5.6140594 38.027903 5.6224241 38.029203 5.6306641 C 38.096683 6.0655646 38.048293 6.520969 37.831283 6.8352417 C 37.817423 6.8553117 37.801854 6.873612 37.784774 6.889502 C 37.767694 6.9053919 37.74932 6.9191699 37.72948 6.9313599 C 37.71093 6.9427599 37.690652 6.9522454 37.670052 6.9608154 C 37.665252 6.9627154 37.660453 6.9646998 37.655583 6.9664998 C 37.642533 6.9714998 37.628975 6.9753989 37.615275 6.9794189 C 37.604805 6.9824189 37.594542 6.9857039 37.583752 6.9882039 C 37.410452 7.0285239 37.19778 7.0089186 37.024613 7.0130086 C 35.652245 7.0453386 35.741938 5.3461851 32.96698 6.3102091 C 32.859356 6.3810279 32.753397 6.4545068 32.648136 6.5288005 C 33.155683 6.9927222 33.791357 7.5899926 34.679537 8.3726156 C 34.937708 8.6231364 35.174891 8.8550386 35.394739 9.073348 C 35.982533 8.7349334 36.615172 8.4666223 37.282479 8.2806315 L 37.282479 8.2811483 C 37.362499 8.2588483 37.443351 8.2375162 37.524325 8.2175863 C 37.541525 8.2133863 37.558761 8.2092839 37.576001 8.2051839 C 37.656221 8.1859839 37.736742 8.1677536 37.817847 8.1509237 C 37.905727 8.1326837 37.994068 8.1162175 38.082947 8.1007975 C 38.091547 8.0992975 38.100155 8.0975466 38.108785 8.0961466 C 38.180635 8.0839167 38.252838 8.072907 38.325309 8.062557 C 38.348389 8.059257 38.371416 8.0558384 38.394556 8.0527384 C 38.475146 8.0419285 38.556126 8.0322596 38.637435 8.0237996 C 38.639735 8.0235646 38.641953 8.0229651 38.644153 8.0227661 C 38.647253 8.0224451 38.650355 8.0220156 38.653455 8.0217326 C 38.740405 8.0128326 38.827725 8.0061585 38.915454 8.0000285 C 38.927154 7.9992105 38.938884 7.9982447 38.950594 7.9974447 C 39.016514 7.9931447 39.082698 7.9898494 39.149032 7.9871094 C 39.181012 7.9858094 39.21307 7.984392 39.24515 7.983492 C 39.32825 7.980992 39.411567 7.9793579 39.495264 7.9793579 C 39.578964 7.9793579 39.662279 7.980992 39.745378 7.983492 C 39.777458 7.984452 39.809516 7.9858094 39.841496 7.9871094 C 39.907826 7.9899094 39.974011 7.9931147 40.039933 7.9974447 C 40.051653 7.9982117 40.063373 7.9992285 40.075073 8.0000285 C 40.162803 8.0061285 40.250118 8.0128626 40.337073 8.0217326 C 40.340173 8.0220476 40.343275 8.0224801 40.346375 8.0227661 C 40.348675 8.0229981 40.350892 8.0235986 40.353092 8.0237996 C 40.434742 8.0322996 40.516078 8.0418685 40.597005 8.0527384 C 40.618885 8.0556384 40.640814 8.0589402 40.662634 8.0620402 C 40.738934 8.0729102 40.814912 8.084747 40.890527 8.0976969 C 40.895027 8.0984609 40.899523 8.098964 40.903963 8.099764 C 40.994093 8.115354 41.084091 8.1324337 41.173197 8.1509237 C 41.253607 8.1676136 41.333438 8.1856572 41.412976 8.2046672 C 41.431846 8.2091672 41.450483 8.2139698 41.469303 8.2186198 C 41.549353 8.2383598 41.62893 8.2590983 41.708049 8.2811483 L 41.708049 8.2806315 C 45.181825 9.2490155 47.735071 12.439611 47.735071 16.219682 C 47.735071 19.999761 45.181825 23.190009 41.708049 24.158215 C 41.702749 24.159715 41.697339 24.160949 41.692029 24.162349 C 41.614539 24.183779 41.536833 24.204118 41.458451 24.223328 C 41.449151 24.225628 41.439876 24.227846 41.430546 24.230046 C 41.345236 24.250636 41.259512 24.270003 41.173197 24.287923 C 41.084088 24.306413 40.994092 24.323493 40.903963 24.339083 C 40.899463 24.339854 40.894967 24.34035 40.890527 24.34115 C 40.814907 24.3541 40.738933 24.365937 40.662634 24.376807 C 40.640814 24.379907 40.618885 24.383208 40.597005 24.386108 C 40.516075 24.396968 40.434742 24.406557 40.353092 24.415047 C 40.350792 24.415281 40.348575 24.415882 40.346375 24.416081 C 40.343275 24.4164 40.340173 24.416832 40.337073 24.417114 C 40.255423 24.425414 40.173424 24.432382 40.091093 24.438302 C 40.067723 24.440002 40.044233 24.441036 40.020813 24.442436 C 39.956213 24.446536 39.891503 24.450231 39.82651 24.452771 C 39.80105 24.453771 39.775548 24.454555 39.750028 24.455355 C 39.665399 24.457955 39.580518 24.459489 39.495264 24.459489 C 39.410014 24.459489 39.325131 24.457955 39.240499 24.455355 C 39.214979 24.454578 39.189478 24.453771 39.164018 24.452771 C 39.099028 24.450171 39.034313 24.446576 38.969714 24.442436 C 38.946294 24.440936 38.922804 24.439902 38.899434 24.438302 C 38.817104 24.432402 38.735103 24.425444 38.653455 24.417114 C 38.650355 24.416797 38.647253 24.416368 38.644153 24.416081 C 38.641853 24.415848 38.639635 24.415249 38.637435 24.415047 C 38.556125 24.406547 38.475149 24.396918 38.394556 24.386108 C 38.371416 24.383008 38.348389 24.37959 38.325309 24.37629 C 38.252839 24.36594 38.180639 24.35493 38.108785 24.3427 C 38.100185 24.3412 38.091567 24.339549 38.082947 24.338049 C 38.078607 24.337296 38.074365 24.336224 38.070028 24.335465 L 38.070028 24.824841 C 38.070028 25.302999 37.915597 25.743527 37.654032 26.100216 C 38.001719 26.794343 38.07766 27.658167 40.171708 28.064954 C 40.177208 28.064636 40.182725 28.064212 40.188245 28.06392 C 40.190245 28.064295 40.191929 28.064613 40.193929 28.064954 C 40.630681 28.039164 41.065451 27.989414 41.496692 27.915609 C 41.240239 27.697759 41.046457 27.288723 40.968559 26.853141 C 40.967459 26.846941 40.965941 26.840778 40.964941 26.834538 C 40.963041 26.822888 40.962091 26.811078 40.960291 26.799398 C 40.953591 26.755118 40.946951 26.710588 40.942721 26.666073 C 40.905681 26.276045 40.96577 25.883795 41.159245 25.603605 C 41.199915 25.544705 41.255825 25.504915 41.320475 25.478031 C 41.325275 25.476131 41.330075 25.474147 41.334945 25.472347 C 41.348005 25.467447 41.361552 25.463448 41.375252 25.459428 C 41.385722 25.456428 41.395985 25.453143 41.406775 25.450643 C 41.441435 25.442543 41.477616 25.437003 41.514779 25.433073 C 41.663427 25.417363 41.82738 25.429555 41.965914 25.426355 C 43.338283 25.394025 43.248589 27.092662 46.023547 26.128638 C 46.38934 25.887939 46.741804 25.62743 47.07878 25.347807 C 46.408026 25.225586 45.565151 24.295438 45.626156 23.519495 C 45.647876 23.243138 46.00235 23.101558 46.239038 22.957255 C 47.412073 22.24208 48.184447 23.759808 50.107019 21.534086 C 50.302382 21.143604 50.47622 20.742736 50.627401 20.333126 C 49.985247 20.562528 48.790083 20.177536 48.45544 19.47478 C 48.336391 19.22478 48.5724 18.925362 48.705554 18.682581 C 49.362596 17.484588 50.782489 18.406561 51.338985 15.541687 C 51.313585 15.09917 51.263295 14.658257 51.188607 14.221354 C 50.744943 14.741392 49.518105 14.995416 48.877637 14.553117 C 48.652093 14.397361 48.704372 14.024618 48.698319 13.750582 C 48.66812 12.382877 50.369004 12.481344 49.414038 9.7094849 C 49.170862 9.3392382 48.906935 8.9826354 48.623905 8.6418498 C 48.499709 9.3139991 47.564144 10.147914 46.788359 10.085173 C 46.515214 10.063083 46.374564 9.7137565 46.23232 9.4795247 C 45.522267 8.3102789 47.044222 7.5454719 44.831372 5.6223958 C 44.435619 5.423318 44.028874 5.2463332 43.613359 5.0927124 C 43.841789 5.7369758 43.448444 6.9270571 42.745194 7.2605387 C 42.497496 7.3779976 42.201123 7.145844 41.960746 7.0140422 C 40.761358 6.3564068 41.696346 4.9328777 38.818819 4.3738932 C 38.813519 4.3742012 38.808149 4.3746448 38.802799 4.3749268 C 38.800799 4.3745508 38.799115 4.3742352 38.797115 4.3738932 z M 34.498153 26.979749 C 34.786288 27.113475 35.079194 27.23597 35.377169 27.346134 C 35.338678 27.237575 35.319832 27.112569 35.315157 26.979749 L 34.498153 26.979749 z " /></g><g
       id="g13190"
       transform="translate(1.186215,0.7029676)"
       style="opacity:0.8;mix-blend-mode:normal;fill:#000000;filter:url(#filter13192);stroke-width:1.5;stroke-dasharray:none"><path
         style="fill:#000000;fill-opacity:0;stroke:#000000;stroke-width:1.5;stroke-linecap:square;stroke-linejoin:round;stroke-miterlimit:5;stroke-dasharray:none"
         d="m 19.820215,26.549027 v -10.73258 h 14.293747 v 10.73258"
         id="path7053-2" /><path
         style="fill:#000000;fill-opacity:0;stroke:#000000;stroke-width:1.5;stroke-linecap:square;stroke-linejoin:round;stroke-miterlimit:5;stroke-dasharray:none"
         d="m 28.257517,4.8307102 v 4.179971 h -8.661661 v -4.179971"
         id="path7053-3-9" /><path
         style="fill:#000000;fill-opacity:0;stroke:#000000;stroke-width:1.5;stroke-linecap:square;stroke-linejoin:bevel;stroke-miterlimit:5;stroke-dasharray:none"
         d="m 25.332439,4.8144342 v 3.77779"
         id="path9318-1" /><path
         fill="#ff0000"
         d="m 21.545856,18.620902 h 10.842218 c 0.376859,0 0.684843,0.308473 0.684843,0.684844 v 4.604865 c 0,0.376127 -0.308472,0.684843 -0.684843,0.684843 H 21.545856 c -0.376127,0 -0.684844,-0.308228 -0.684844,-0.684843 v -4.604865 c 0,-0.37686 0.308228,-0.684844 0.684844,-0.684844 z"
         id="path2029-2"
         style="clip-rule:evenodd;fill:#000000;fill-opacity:1;fill-rule:evenodd;stroke-width:1.5;image-rendering:optimizeQuality;shape-rendering:geometricPrecision;text-rendering:geometricPrecision;stroke-dasharray:none" /><path
         fill="#ffffff"
         fill-rule="nonzero"
         d="m 25.008175,22.239044 0.07083,0.793774 c -0.198322,0.08206 -0.4472,0.123097 -0.746636,0.123097 -0.299192,0 -0.539522,-0.0315 -0.720747,-0.09452 -0.18098,-0.06301 -0.323616,-0.162418 -0.427661,-0.297726 -0.103801,-0.135552 -0.17634,-0.294551 -0.217372,-0.477485 -0.04079,-0.18269 -0.0613,-0.407878 -0.0613,-0.675806 0,-0.267685 0.02051,-0.493606 0.0613,-0.678005 0.04104,-0.1844 0.113571,-0.344131 0.217372,-0.479684 0.20174,-0.261579 0.572005,-0.392246 1.110551,-0.392246 0.119921,0 0.260846,0.01173 0.42302,0.03541 0.162175,0.0237 0.282828,0.05276 0.361473,0.08744 l -0.141658,0.722945 c -0.204916,-0.04396 -0.392247,-0.06594 -0.562481,-0.06594 -0.16999,0 -0.288201,0.01564 -0.35439,0.04714 -0.06619,0.0315 -0.09916,0.09452 -0.09916,0.18904 v 1.238286 a 1.8548419,1.8548419 0 0 0 0.373196,0.03761 c 0.267929,0 0.505816,-0.03761 0.713664,-0.113326 z m 0.425219,0.793774 0.132377,-0.779607 c 0.28991,0.07254 0.550512,0.108686 0.78205,0.108686 0.231782,0 0.41838,-0.0095 0.560038,-0.02834 v -0.236422 l -0.425219,-0.03761 c -0.38443,-0.03469 -0.648207,-0.127004 -0.791575,-0.276478 -0.143368,-0.149718 -0.214929,-0.370997 -0.214929,-0.664083 0,-0.403237 0.08744,-0.680448 0.262067,-0.831631 0.174874,-0.151184 0.471868,-0.226898 0.890981,-0.226898 0.418868,0 0.796948,0.03933 1.134241,0.118213 l -0.118211,0.75616 c -0.293086,-0.04739 -0.527799,-0.07107 -0.704138,-0.07107 -0.176585,0 -0.326058,0.008 -0.44891,0.0237 v 0.231538 l 0.340224,0.03322 c 0.412762,0.04079 0.697788,0.139216 0.855321,0.295284 0.157534,0.155824 0.236178,0.372463 0.236178,0.649672 0,0.198566 -0.02662,0.366358 -0.08035,0.503375 -0.05349,0.137018 -0.117234,0.241063 -0.191238,0.311892 -0.074,0.07083 -0.178783,0.125294 -0.314335,0.163151 -0.135552,0.03761 -0.254496,0.06057 -0.356832,0.06838 -0.102336,0.008 -0.23862,0.01197 -0.40861,0.01197 -0.409588,0 -0.789378,-0.04104 -1.139127,-0.123095 z m 4.59827,-2.901547 h 0.997224 l -0.732714,2.95357 h -1.3797 l -0.732471,-2.95357 h 0.99698 l 0.401772,1.876237 h 0.0425 z"
         id="path2031-7"
         style="clip-rule:evenodd;fill:#000000;stroke-width:1.5;image-rendering:optimizeQuality;shape-rendering:geometricPrecision;text-rendering:geometricPrecision;stroke-dasharray:none" /><path
         id="rect10984-0"
         style="fill:#000000;fill-opacity:0;stroke:#000000;stroke-width:1.5;stroke-linecap:round;stroke-linejoin:round;stroke-miterlimit:5;stroke-dasharray:none;stroke-dashoffset:0"
         d="m 18.675864,4.8083882 c -1.193813,0 -2.154908,0.961095 -2.154908,2.154907 V 24.651105 c 0,1.193812 0.961095,2.154907 2.154908,2.154907 h 16.58245 c 1.193812,0 2.154907,-0.961095 2.154907,-2.154907 v -6.530868 c -0.153314,-6.378614 0.547905,-6.099419 -3.390749,-9.9213578 -4.509477,-3.973542 -2.637194,-3.309159 -9.368679,-3.390491 z"
         sodipodi:nodetypes="sssssscccs" /></g><g
       id="g13202"
       transform="translate(54.390399,7.1686209)"
       style="stroke-width:1.5;stroke-dasharray:none"><path
         style="fill:#000000;fill-opacity:0;stroke:#000000;stroke-width:1.5;stroke-linecap:square;stroke-linejoin:round;stroke-miterlimit:5;stroke-dasharray:none"
         d="M -33.913136,19.554207 V 8.821627 h 14.293747 v 10.73258"
         id="path7053" /><path
         style="fill:#000000;fill-opacity:0;stroke:#000000;stroke-width:1.5;stroke-linecap:square;stroke-linejoin:round;stroke-miterlimit:5;stroke-dasharray:none"
         d="m -25.475834,-2.1641103 v 4.179971 h -8.661661 v -4.179971"
         id="path7053-3" /><path
         style="fill:#000000;fill-opacity:0;stroke:#000000;stroke-width:1.5;stroke-linecap:square;stroke-linejoin:bevel;stroke-miterlimit:5;stroke-dasharray:none"
         d="m -28.400912,-2.1803863 v 3.77779"
         id="path9318" /><path
         fill="#ff0000"
         d="m -32.187495,11.626082 h 10.842218 c 0.376859,0 0.684843,0.308473 0.684843,0.684844 v 4.604864 c 0,0.376127 -0.308472,0.684844 -0.684843,0.684844 h -10.842218 c -0.376127,0 -0.684844,-0.308228 -0.684844,-0.684844 v -4.604864 c 0,-0.37686 0.308228,-0.684844 0.684844,-0.684844 z"
         id="path2029"
         style="clip-rule:evenodd;fill:#4f7eff;fill-opacity:1;fill-rule:evenodd;stroke-width:1.5;image-rendering:optimizeQuality;shape-rendering:geometricPrecision;text-rendering:geometricPrecision;stroke-dasharray:none" /><path
         fill="#ffffff"
         fill-rule="nonzero"
         d="m -28.725176,15.244224 0.07083,0.793774 c -0.198322,0.08206 -0.4472,0.123097 -0.746636,0.123097 -0.299192,0 -0.539522,-0.0315 -0.720747,-0.09452 -0.18098,-0.06301 -0.323616,-0.162418 -0.427661,-0.297726 -0.103801,-0.135552 -0.17634,-0.294551 -0.217372,-0.477485 -0.04079,-0.18269 -0.0613,-0.407878 -0.0613,-0.675807 0,-0.267684 0.02051,-0.493605 0.0613,-0.678004 0.04104,-0.1844 0.113571,-0.344131 0.217372,-0.479684 0.20174,-0.261579 0.572005,-0.392246 1.110551,-0.392246 0.119921,0 0.260846,0.01173 0.42302,0.03541 0.162175,0.0237 0.282828,0.05276 0.361473,0.08744 l -0.141658,0.722945 c -0.204916,-0.04396 -0.392247,-0.06594 -0.562481,-0.06594 -0.16999,0 -0.288201,0.01564 -0.35439,0.04714 -0.06619,0.0315 -0.09916,0.09452 -0.09916,0.18904 v 1.238286 a 1.8548419,1.8548419 0 0 0 0.373196,0.03761 c 0.267929,0 0.505816,-0.03761 0.713664,-0.113326 z m 0.425219,0.793774 0.132377,-0.779607 c 0.28991,0.07254 0.550512,0.108686 0.78205,0.108686 0.231782,0 0.41838,-0.0095 0.560038,-0.02834 v -0.236422 l -0.425219,-0.03761 c -0.38443,-0.03469 -0.648207,-0.127004 -0.791575,-0.276478 -0.143368,-0.149718 -0.214929,-0.370996 -0.214929,-0.664082 0,-0.403237 0.08744,-0.680448 0.262067,-0.831631 0.174874,-0.151184 0.471868,-0.226898 0.890981,-0.226898 0.418868,0 0.796948,0.03933 1.134241,0.118213 l -0.118211,0.75616 c -0.293086,-0.04739 -0.527799,-0.07107 -0.704138,-0.07107 -0.176585,0 -0.326058,0.008 -0.44891,0.0237 v 0.231538 l 0.340224,0.03322 c 0.412762,0.04079 0.697788,0.139216 0.855321,0.295284 0.157534,0.155823 0.236178,0.372462 0.236178,0.649672 0,0.198566 -0.02662,0.366358 -0.08035,0.503375 -0.05349,0.137018 -0.117234,0.241063 -0.191238,0.311892 -0.074,0.07083 -0.178783,0.125294 -0.314335,0.163151 -0.135552,0.03761 -0.254496,0.06057 -0.356832,0.06838 -0.102336,0.008 -0.23862,0.01197 -0.40861,0.01197 -0.409588,0 -0.789378,-0.04104 -1.139127,-0.123095 z m 4.59827,-2.901547 h 0.997224 l -0.732714,2.95357 h -1.3797 l -0.732471,-2.95357 h 0.99698 l 0.401772,1.876236 h 0.0425 z"
         id="path2031"
         style="clip-rule:evenodd;stroke-width:1.5;image-rendering:optimizeQuality;shape-rendering:geometricPrecision;text-rendering:geometricPrecision;stroke-dasharray:none" /><path
         id="rect10984"
         style="opacity:1;fill:#000000;fill-opacity:0;stroke:#000000;stroke-width:1.5;stroke-linecap:round;stroke-linejoin:round;stroke-miterlimit:5;stroke-dasharray:none;stroke-dashoffset:0"
         d="m -35.057487,-2.1864323 c -1.193813,0 -2.154908,0.961095 -2.154908,2.15490698 V 17.656284 c 0,1.193813 0.961095,2.154908 2.154908,2.154908 h 16.58245 c 1.193812,0 2.154907,-0.961095 2.154907,-2.154908 v -6.530867 c -0.153314,-6.378614 0.547905,-6.099419 -3.390749,-9.9213583 -4.509477,-3.973542 -2.637194,-3.309159 -9.368679,-3.390491 z"
         sodipodi:nodetypes="sssssscccs" /></g></g></svg>
