<?xml version="1.0" encoding="UTF-8" standalone="no"?>
<!-- Created with Inkscape (http://www.inkscape.org/) -->

<svg
   width="200"
   height="200"
   viewBox="0 0 52.916665 52.916666"
   version="1.1"
   id="svg5"
   inkscape:export-filename="zero_axis_icon.png"
   inkscape:export-xdpi="139.02603"
   inkscape:export-ydpi="139.02603"
   inkscape:version="1.2.2 (b0a8486541, 2022-12-01)"
   sodipodi:docname="zero_axis_icon.svg"
   xmlns:inkscape="http://www.inkscape.org/namespaces/inkscape"
   xmlns:sodipodi="http://sodipodi.sourceforge.net/DTD/sodipodi-0.dtd"
   xmlns:xlink="http://www.w3.org/1999/xlink"
   xmlns="http://www.w3.org/2000/svg"
   xmlns:svg="http://www.w3.org/2000/svg">
  <sodipodi:namedview
     id="namedview7"
     pagecolor="#ffffff"
     bordercolor="#000000"
     borderopacity="0.25"
     inkscape:showpageshadow="2"
     inkscape:pageopacity="0.0"
     inkscape:pagecheckerboard="0"
     inkscape:deskcolor="#d1d1d1"
     inkscape:document-units="px"
     showgrid="false"
     inkscape:zoom="4"
     inkscape:cx="69.750001"
     inkscape:cy="76.500001"
     inkscape:window-width="1920"
     inkscape:window-height="1029"
     inkscape:window-x="0"
     inkscape:window-y="27"
     inkscape:window-maximized="1"
     inkscape:current-layer="layer1"
     showguides="true" />
  <defs
     id="defs2">
    <linearGradient
       inkscape:collect="always"
       id="linearGradient3705">
      <stop
         style="stop-color:#b7b7c8;stop-opacity:1"
         offset="0"
         id="stop3701" />
      <stop
         style="stop-color:#ffdd55;stop-opacity:1"
         offset="1"
         id="stop3703" />
    </linearGradient>
    <filter
       inkscape:collect="always"
       style="color-interpolation-filters:sRGB"
       id="filter3455"
       x="-0.082631955"
       y="-0.082629195"
       width="1.1652639"
       height="1.1652584">
      <feGaussianBlur
         inkscape:collect="always"
         stdDeviation="1.4808634"
         id="feGaussianBlur3457" />
    </filter>
    <linearGradient
       inkscape:collect="always"
       xlink:href="#linearGradient3705"
       id="linearGradient3707"
       x1="31.823977"
       y1="12.357202"
       x2="5.2342577"
       y2="43.581467"
       gradientUnits="userSpaceOnUse" />
  </defs>
  <g
     inkscape:label="Capa 1"
     inkscape:groupmode="layer"
     id="layer1">
    <rect
       style="display:inline;opacity:0.5;mix-blend-mode:normal;fill:#453748;stroke:#453748;stroke-width:1.02509;stroke-linejoin:round;stroke-dasharray:none;stroke-opacity:1;filter:url(#filter3455)"
       id="rect3452"
       width="49.213615"
       height="49.21526"
       x="3.1983473"
       y="3.1917942"
       ry="5.8074503"
       transform="matrix(0.95576091,0,0,0.95576091,0.02315618,0.03186728)" />
    <rect
       style="display:inline;fill:url(#linearGradient3707);stroke:none;stroke-width:0.979741;stroke-linejoin:round;stroke-dasharray:none;fill-opacity:1"
       id="rect1475"
       width="47.036449"
       height="47.038021"
       x="0.52107847"
       y="0.52587563"
       ry="5.5505342" />
    <path
       style="display:none;fill:#333333;stroke:none;stroke-width:0.15872"
       d="m 24.008746,16.769373 c -6.818444,0 -12.333902,5.514211 -12.333902,12.332662 0,1.265312 0.190477,2.485513 0.543427,3.634108 h 7.439028 a 5.6755921,5.6755921 0 0 1 -1.324623,-3.634108 5.6755921,5.6755921 0 0 1 5.675452,-5.675759 5.6755921,5.6755921 0 0 1 5.675754,5.675759 5.6755921,5.6755921 0 0 1 -1.324308,3.634108 h 7.438714 c 0.352871,-1.148574 0.543122,-2.368823 0.543122,-3.634108 0,-6.818451 -5.51421,-12.332662 -12.332664,-12.332662 z"
       id="path8691" />
    <path
       style="display:none;fill:#aa0000;stroke:none;stroke-width:0.15872"
       d="m 22.894612,9.6508822 c -0.726751,0.041709 -1.450594,0.1240864 -2.168127,0.2467592 0.854066,0.7286346 1.271681,2.7440776 0.545288,3.7959296 -0.255802,0.370414 -0.868061,0.283938 -1.318114,0.293879 -2.246201,0.0496 -2.084797,-2.743251 -6.637062,-1.174895 -0.608098,0.399392 -1.193365,0.83252 -1.753042,1.297344 1.10388,0.20397 2.472981,1.740651 2.369939,3.014733 -0.03628,0.448591 -0.609485,0.679957 -0.994166,0.913565 -1.920271,1.166131 -3.1768276,-1.333698 -6.3351238,2.300497 -0.3269478,0.64995 -0.6172525,1.317702 -0.8695453,2.000108 1.058082,-0.375154 3.0120273,0.271037 3.55971,1.425993 0.192905,0.406801 -0.1880894,0.893888 -0.4045478,1.288663 -1.0800434,1.969771 -3.4179163,0.433497 -4.3359454,5.1593 0.041841,0.726447 0.1243265,1.449981 0.2470686,2.167198 0.7286362,-0.853949 2.7438253,-1.271249 3.7956186,-0.544977 0.2637325,0.182107 0.2951319,0.544858 0.295429,0.901164 h 2.0785361 c -0.322433,-1.156725 -0.495376,-2.375412 -0.495376,-3.634108 0,-7.466851 6.06675,-13.532354 13.533594,-13.532354 7.466857,0 13.532354,6.065503 13.532354,13.532354 0,1.258696 -0.173001,2.477383 -0.495378,3.634108 h 2.360636 c 1.166696,-1.355885 3.218051,-0.406426 4.056021,-4.781103 -0.04235,-0.717283 -0.124302,-1.431684 -0.24552,-2.139917 -0.724971,0.853432 -2.739529,1.286881 -3.792516,0.562647 -0.375016,-0.257933 -0.285328,-0.877963 -0.296048,-1.332994 -0.05309,-2.253862 2.737039,-2.106988 1.153809,-6.664342 -0.395304,-0.600746 -0.823543,-1.17916 -1.282772,-1.73258 -0.200727,1.101591 -1.7283,2.485625 -3.002643,2.385437 -0.453867,-0.03568 -0.686495,-0.61754 -0.923485,-1.006255 -1.174542,-1.926491 1.318567,-3.195326 -2.336767,-6.352795 -0.641294,-0.320847 -1.29981,-0.606069 -1.972518,-0.854355 0.37675,1.054617 -0.255419,3.01694 -1.409564,3.56653 -0.410579,0.195515 -0.902339,-0.191756 -1.301063,-0.410437 -1.96748,-1.079068 -0.453656,-3.411153 -5.15868,-4.3250968 z"
       id="path234" />
    <text
       xml:space="preserve"
       style="font-style:normal;font-variant:normal;font-weight:normal;font-stretch:normal;font-size:5.36581px;font-family:NordiquePro-Bold;-inkscape-font-specification:'NordiquePro-Bold, Normal';font-variant-ligatures:normal;font-variant-caps:normal;font-variant-numeric:normal;font-variant-east-asian:normal;display:inline;opacity:1;fill:#808080;stroke:none;stroke-width:1.19977;stroke-dasharray:none"
       x="13.80666"
       y="38.327084"
       id="text11083"><tspan
         sodipodi:role="line"
         id="tspan11085"
         x="13.80666"
         y="38.327084"
         style="fill:#808080;stroke-width:1.19977">zero axis</tspan></text>
    <path
       style="display:inline;opacity:1;fill:#280b0b;stroke-width:0.798145;stroke-linecap:round;stroke-linejoin:round"
       d="m 25.617467,22.848149 c -0.49929,0.218183 -1.037986,0.331766 -1.582863,0.333732 -2.022613,-8.43e-4 -3.724436,-1.515427 -3.960024,-3.524274 l -2.345059,-1.115694 -2.345057,1.115666 c 0.246906,4.597972 4.045869,8.200389 8.650463,8.202921 1.366107,-0.0019 2.712447,-0.326473 3.929212,-0.947547 l -2.139544,-1.474562 z"
       id="path2882" />
    <path
       style="display:inline;opacity:1;fill:#ffffff;fill-opacity:1;stroke-width:0.798145;stroke-linecap:round;stroke-linejoin:round"
       d="m 27.948491,11.462168 c -1.213044,-0.615083 -2.55381,-0.936073 -3.913884,-0.937017 -4.604394,0.0027 -8.403138,3.604938 -8.650148,8.202704 l 2.34481,-1.1156 2.344811,1.115759 c 0.235624,-2.009167 1.93793,-3.523835 3.960866,-3.524277 0.538783,6.2e-4 1.071856,0.110383 1.567057,0.322668 l 2.139451,-1.474278 z"
       id="path2880" />
    <path
       style="display:inline;opacity:1;fill:#916f6f;stroke-width:0.798145;stroke-linecap:round;stroke-linejoin:round"
       d="m 28.754191,11.926123 -0.206581,2.589171 -2.138998,1.473492 c 1.015348,0.751869 1.614471,1.940305 1.615084,3.203729 -0.0019,1.256229 -0.595374,2.438189 -1.601841,3.189946 l 0.207295,2.590317 2.13971,1.474637 c 2.452293,-1.598876 3.931813,-4.327578 3.933738,-7.255058 -0.0014,-2.934268 -1.487198,-5.668619 -3.948407,-7.266234 z"
       id="path480" />
    <path
       id="rect1262"
       style="opacity:1;fill:#aa0000;fill-opacity:1;stroke-width:0.929736;stroke-linecap:round;stroke-linejoin:round"
       d="m 23.225629,5.4768194 c -0.510752,0.029313 -1.019617,0.087022 -1.523891,0.1732355 0.600228,0.5120765 0.893654,1.9286693 0.383151,2.6678979 -0.179773,0.2603228 -0.609808,0.1992977 -0.926101,0.2062847 -1.578606,0.034856 -1.465365,-1.9277243 -4.664648,-0.825502 -0.427366,0.2806886 -0.838563,0.5849013 -1.231898,0.9115743 0.775796,0.1433487 1.737948,1.223364 1.665531,2.1187752 -0.02549,0.315264 -0.428404,0.477919 -0.698752,0.642097 -1.349547,0.819545 -2.232573,-0.937209 -4.45219,1.616865 -0.229776,0.456777 -0.433919,0.925908 -0.611228,1.405496 0.743609,-0.263655 2.117022,0.190677 2.501928,1.002369 0.135572,0.285896 -0.132243,0.627957 -0.284367,0.905401 -0.696331,1.26996 -2.102518,0.468913 -2.833873,2.891616 -0.07937,0.247335 -0.151427,0.528068 -0.213548,0.852378 0.02976,0.504098 0.08732,1.006179 0.172509,1.503916 0.509502,-0.599782 1.92533,-0.904483 2.665358,-0.395499 0.263557,0.181272 0.200566,0.616842 0.208101,0.936634 0.03731,1.583989 -1.923652,1.481037 -0.810975,4.683896 0.277815,0.422198 0.579027,0.828432 0.901769,1.217371 0.141069,-0.774187 1.214465,-1.746838 2.11006,-1.676427 0.318973,0.02508 0.482443,0.434284 0.648997,0.707469 0.825456,1.353918 -0.926643,2.245503 1.642287,4.464539 0.450696,0.225487 0.913477,0.425838 1.386248,0.600331 -0.264776,-0.741174 0.179627,-2.120039 0.990748,-2.506287 0.28855,-0.137404 0.634261,0.134676 0.91448,0.288363 1.382724,0.758358 0.318594,2.397121 3.625235,3.039431 0.510753,-0.02931 1.019617,-0.08702 1.523892,-0.173237 -0.600229,-0.512076 -0.893654,-1.928669 -0.383152,-2.667898 0.179774,-0.260325 0.609809,-0.199299 0.926101,-0.206286 1.578606,-0.03486 1.465365,1.927726 4.664649,0.825503 0.427365,-0.280689 0.838563,-0.584901 1.231898,-0.911575 -0.775796,-0.143348 -1.737948,-1.223365 -1.665532,-2.118776 0.0255,-0.315265 0.428404,-0.47792 0.698753,-0.642098 1.349546,-0.819544 2.232573,0.93721 4.45219,-1.616864 0.229775,-0.456778 0.433918,-0.925908 0.611227,-1.405497 -0.743608,0.263656 -2.117022,-0.190677 -2.501928,-1.002369 -0.135572,-0.285896 0.132243,-0.627957 0.284368,-0.905401 0.69633,-1.26996 2.102518,-0.468913 2.833872,-2.891618 0.07936,-0.247334 0.151427,-0.528066 0.213547,-0.852376 -0.02976,-0.504099 -0.08732,-1.006179 -0.172508,-1.503918 -0.509502,0.599784 -1.925329,0.904485 -2.665358,0.395501 -0.263557,-0.181272 -0.200566,-0.616843 -0.2081,-0.936635 -0.03731,-1.583989 1.923652,-1.481036 0.810975,-4.683896 -0.277816,-0.422197 -0.579028,-0.828431 -0.901769,-1.21737 -0.14107,0.774187 -1.214466,1.746837 -2.11006,1.676426 C 32.114652,12.04559 31.95118,11.636377 31.784628,11.363192 30.959171,10.009275 32.711271,9.1176898 30.14234,6.8986577 29.691645,6.67317 29.228863,6.4728186 28.756092,6.2983259 29.020869,7.039499 28.576465,8.4183636 27.765345,8.8046102 27.476794,8.9420146 27.131084,8.6699343 26.850864,8.5162473 25.46814,7.7578903 26.53227,6.1191291 23.225629,5.4768194 Z m 0.783011,4.1594654 c 5.247627,0 9.510158,4.2628962 9.510158,9.5105212 0,0.01544 -6.75e-4,0.03071 -7.02e-4,0.04612 7.3e-5,0.01541 7.02e-4,0.03069 7.02e-4,0.04612 0,5.247625 -4.263629,9.510523 -9.511248,9.510523 -5.247628,0 -9.510159,-4.262898 -9.510159,-9.510523 0,-0.01544 6.76e-4,-0.03071 7.02e-4,-0.04612 -7.3e-5,-0.01541 -7.02e-4,-0.03069 -7.02e-4,-0.04612 0,-5.247625 4.263629,-9.5105212 9.511249,-9.5105212 z" />
  </g>
</svg>
